Poppins-Medium.ufo
<glyph name="exclam" format="2">
  <advance width="321"/>
  <unicode hex="0021"/>
  <outline>
    <contour>
      <point x="97" y="695" type="line"/>
      <point x="110" y="210" type="line"/>
      <point x="205" y="210" type="line"/>
      <point x="218" y="695" type="line"/>
    </contour>
    <component base="period" xOffset="40"/>
  </outline>
</glyph>
<glyph name="percent" format="2">
  <advance width="794"/>
  <unicode hex="0025"/>
  <outline>
    <contour>
      <point x="42" y="652"/>
      <point x="42" y="553" type="curve" smooth="yes"/>
      <point x="42" y="453"/>
      <point x="107" y="396"/>
      <point x="194" y="396" type="curve" smooth="yes"/>
      <point x="281" y="396"/>
      <point x="346" y="453"/>
      <point x="346" y="553" type="curve" smooth="yes"/>
      <point x="346" y="652"/>
      <point x="281" y="709"/>
      <point x="194" y="709" type="curve" smooth="yes"/>
      <point x="107" y="709"/>
    </contour>
    <contour>
      <point x="155" y="640"/>
      <point x="194" y="640" type="curve" smooth="yes"/>
      <point x="232" y="640"/>
      <point x="257" y="615"/>
      <point x="257" y="553" type="curve" smooth="yes"/>
      <point x="257" y="491"/>
      <point x="232" y="465"/>
      <point x="194" y="465" type="curve" smooth="yes"/>
      <point x="155" y="465"/>
      <point x="131" y="491"/>
      <point x="131" y="553" type="curve" smooth="yes"/>
      <point x="131" y="615"/>
    </contour>
    <contour>
      <point x="540" y="696" type="line"/>
      <point x="141" y="0" type="line"/>
      <point x="253" y="0" type="line"/>
      <point x="652" y="696" type="line"/>
    </contour>
    <contour>
      <point x="449" y="244"/>
      <point x="449" y="144" type="curve" smooth="yes"/>
      <point x="449" y="44"/>
      <point x="514" y="-13"/>
      <point x="601" y="-13" type="curve" smooth="yes"/>
      <point x="687" y="-13"/>
      <point x="752" y="44"/>
      <point x="752" y="144" type="curve" smooth="yes"/>
      <point x="752" y="244"/>
      <point x="687" y="300"/>
      <point x="601" y="300" type="curve" smooth="yes"/>
      <point x="514" y="300"/>
    </contour>
    <contour>
      <point x="562" y="231"/>
      <point x="600" y="231" type="curve" smooth="yes"/>
      <point x="638" y="231"/>
      <point x="663" y="206"/>
      <point x="663" y="144" type="curve" smooth="yes"/>
      <point x="663" y="82"/>
      <point x="638" y="57"/>
      <point x="600" y="57" type="curve" smooth="yes"/>
      <point x="562" y="57"/>
      <point x="537" y="82"/>
      <point x="537" y="144" type="curve" smooth="yes"/>
      <point x="537" y="206"/>
    </contour>
  </outline>
</glyph>
<glyph name="ampersand" format="2">
  <advance width="761"/>
  <unicode hex="0026"/>
  <outline>
    <contour>
      <point x="403" y="540" type="curve"/>
      <point x="517" y="540" type="line"/>
      <point x="524" y="635"/>
      <point x="459" y="711"/>
      <point x="338" y="711" type="curve" smooth="yes"/>
      <point x="219" y="711"/>
      <point x="145" y="642"/>
      <point x="145" y="551" type="curve" smooth="yes"/>
      <point x="145" y="489"/>
      <point x="167" y="446"/>
      <point x="234" y="379" type="curve" smooth="yes"/>
      <point x="612" y="0" type="line"/>
      <point x="761" y="0" type="line"/>
      <point x="329" y="429" type="line" smooth="yes"/>
      <point x="280" y="482"/>
      <point x="259" y="513"/>
      <point x="259" y="551" type="curve" smooth="yes"/>
      <point x="259" y="588"/>
      <point x="288" y="618"/>
      <point x="333" y="618" type="curve" smooth="yes"/>
      <point x="376" y="618"/>
      <point x="405" y="591"/>
    </contour>
    <contour>
      <point x="335" y="369" type="line"/>
      <point x="274" y="444" type="line"/>
      <point x="233" y="431" type="line" smooth="yes"/>
      <point x="100" y="389"/>
      <point x="35" y="304"/>
      <point x="35" y="200" type="curve" smooth="yes"/>
      <point x="35" y="70"/>
      <point x="135" y="-13"/>
      <point x="285" y="-13" type="curve" smooth="yes"/>
      <point x="430" y="-13"/>
      <point x="530" y="59"/>
      <point x="617" y="209" type="curve" smooth="yes"/>
      <point x="707" y="363" type="line"/>
      <point x="584" y="363" type="line"/>
      <point x="509" y="240" type="line" smooth="yes"/>
      <point x="446" y="136"/>
      <point x="377" y="84"/>
      <point x="285" y="84" type="curve" smooth="yes"/>
      <point x="203" y="84"/>
      <point x="149" y="137"/>
      <point x="149" y="204" type="curve" smooth="yes"/>
      <point x="149" y="271"/>
      <point x="192" y="321"/>
      <point x="287" y="353" type="curve" smooth="yes"/>
    </contour>
  </outline>
</glyph>
<glyph name="parenleft" format="2">
  <advance width="492"/>
  <unicode hex="0028"/>
  <outline>
    <contour>
      <point x="327" y="-186" type="curve"/>
      <point x="445" y="-186" type="line"/>
      <point x="445" y="-175" type="line"/>
      <point x="305" y="-31"/>
      <point x="234" y="166"/>
      <point x="234" y="364" type="curve" smooth="yes"/>
      <point x="234" y="562"/>
      <point x="305" y="776"/>
      <point x="465" y="923" type="curve"/>
      <point x="465" y="934" type="line"/>
      <point x="347" y="934" type="line"/>
      <point x="195" y="799"/>
      <point x="124" y="582"/>
      <point x="124" y="364" type="curve" smooth="yes"/>
      <point x="124" y="146"/>
      <point x="195" y="-59"/>
    </contour>
  </outline>
</glyph>
<glyph name="parenright" format="2">
  <advance width="492"/>
  <unicode hex="0029"/>
  <outline>
    <contour>
      <point x="165" y="-186" type="line"/>
      <point x="297" y="-59"/>
      <point x="368" y="146"/>
      <point x="368" y="364" type="curve" smooth="yes"/>
      <point x="368" y="582"/>
      <point x="297" y="799"/>
      <point x="145" y="934" type="curve"/>
      <point x="27" y="934" type="line"/>
      <point x="27" y="923" type="line"/>
      <point x="187" y="776"/>
      <point x="258" y="562"/>
      <point x="258" y="364" type="curve" smooth="yes"/>
      <point x="258" y="166"/>
      <point x="187" y="-31"/>
      <point x="47" y="-175" type="curve"/>
      <point x="47" y="-186" type="line"/>
    </contour>
  </outline>
</glyph>
<glyph name="plus" format="2">
  <advance width="714"/>
  <unicode hex="002B"/>
  <outline>
    <contour>
      <point x="410" y="616" type="line"/>
      <point x="304" y="616" type="line"/>
      <point x="304" y="106" type="line"/>
      <point x="410" y="106" type="line"/>
    </contour>
    <contour>
      <point x="102" y="409" type="line"/>
      <point x="102" y="313" type="line"/>
      <point x="612" y="313" type="line"/>
      <point x="612" y="409" type="line"/>
    </contour>
  </outline>
</glyph>
<glyph name="comma" format="2">
  <advance width="225"/>
  <unicode hex="002C"/>
  <outline>
    <contour>
      <point x="76" y="137" type="line"/>
      <point x="5" y="-139" type="line"/>
      <point x="79" y="-139" type="line"/>
      <point x="200" y="137" type="line"/>
    </contour>
  </outline>
</glyph>
<glyph name="period" format="2">
  <advance width="241"/>
  <unicode hex="002E"/>
  <outline>
    <contour>
      <point x="121" y="-7" type="curve" smooth="yes"/>
      <point x="161" y="-7"/>
      <point x="193" y="25"/>
      <point x="193" y="66" type="curve" smooth="yes"/>
      <point x="193" y="107"/>
      <point x="161" y="139"/>
      <point x="121" y="139" type="curve" smooth="yes"/>
      <point x="80" y="139"/>
      <point x="48" y="107"/>
      <point x="48" y="66" type="curve" smooth="yes"/>
      <point x="48" y="25"/>
      <point x="80" y="-7"/>
    </contour>
  </outline>
</glyph>
<glyph name="slash" format="2">
  <advance width="514"/>
  <unicode hex="002F"/>
  <unicode hex="2215"/>
  <outline>
    <contour>
      <point x="332" y="944" type="line"/>
      <point x="61" y="-175" type="line"/>
      <point x="173" y="-175" type="line"/>
      <point x="445" y="944" type="line"/>
    </contour>
  </outline>
</glyph>
<glyph name="zero" format="2">
  <advance width="641"/>
  <unicode hex="0030"/>
  <outline>
    <contour>
      <point x="116" y="742"/>
      <point x="60" y="582"/>
      <point x="60" y="374" type="curve"/>
      <point x="60" y="162"/>
      <point x="116" y="2"/>
      <point x="320" y="2" type="curve" smooth="yes"/>
      <point x="524" y="2"/>
      <point x="580" y="162"/>
      <point x="580" y="374" type="curve"/>
      <point x="580" y="582"/>
      <point x="524" y="742"/>
      <point x="320" y="742" type="curve" smooth="yes"/>
    </contour>
    <contour>
      <point x="453" y="638"/>
      <point x="468" y="510"/>
      <point x="468" y="374" type="curve"/>
      <point x="468" y="231"/>
      <point x="453" y="106"/>
      <point x="320" y="106" type="curve" smooth="yes"/>
      <point x="187" y="106"/>
      <point x="172" y="231"/>
      <point x="172" y="374" type="curve" smooth="yes"/>
      <point x="172" y="510"/>
      <point x="187" y="638"/>
      <point x="320" y="638" type="curve" smooth="yes"/>
    </contour>
  </outline>
</glyph>
<glyph name="one" format="2">
  <advance width="350"/>
  <unicode hex="0031"/>
  <outline>
    <contour>
      <point x="138" y="625" type="line"/>
      <point x="138" y="0" type="line"/>
      <point x="253" y="0" type="line"/>
      <point x="253" y="729" type="line"/>
      <point x="45" y="729" type="line"/>
      <point x="45" y="625" type="line"/>
    </contour>
  </outline>
</glyph>
<glyph name="two" format="2">
  <advance width="577"/>
  <unicode hex="0032"/>
  <outline>
    <contour>
      <point x="51" y="93" type="curve"/>
      <point x="51" y="10" type="line"/>
      <point x="537" y="10" type="line"/>
      <point x="537" y="105" type="line"/>
      <point x="220" y="105" type="line"/>
      <point x="337" y="212"/>
      <point x="517" y="347"/>
      <point x="517" y="524" type="curve" smooth="yes"/>
      <point x="517" y="655"/>
      <point x="433" y="744"/>
      <point x="285" y="744" type="curve" smooth="yes"/>
      <point x="156" y="744"/>
      <point x="54" y="667"/>
      <point x="50" y="509" type="curve"/>
      <point x="160" y="509" type="line"/>
      <point x="163" y="591"/>
      <point x="206" y="647"/>
      <point x="286" y="647" type="curve" smooth="yes"/>
      <point x="371" y="647"/>
      <point x="404" y="595"/>
      <point x="404" y="519" type="curve" smooth="yes"/>
      <point x="404" y="376"/>
      <point x="223" y="244"/>
    </contour>
  </outline>
</glyph>
<glyph name="seven" format="2">
  <advance width="560"/>
  <unicode hex="0037"/>
  <outline>
    <contour>
      <point x="522" y="726" type="line"/>
      <point x="40" y="726" type="line"/>
      <point x="40" y="629" type="line"/>
      <point x="410" y="629" type="line"/>
      <point x="129" y="0" type="line"/>
      <point x="244" y="0" type="line"/>
      <point x="522" y="641" type="line"/>
    </contour>
  </outline>
</glyph>
<glyph name="eight" format="2">
  <advance width="638"/>
  <unicode hex="0038"/>
  <outline>
    <contour>
      <point x="121" y="412"/>
      <point x="183" y="381" type="curve"/>
      <point x="110" y="354"/>
      <point x="61" y="289"/>
      <point x="61" y="201" type="curve" smooth="yes"/>
      <point x="61" y="68"/>
      <point x="169" y="-18"/>
      <point x="319" y="-18" type="curve" smooth="yes"/>
      <point x="470" y="-18"/>
      <point x="578" y="68"/>
      <point x="578" y="201" type="curve" smooth="yes"/>
      <point x="578" y="288"/>
      <point x="529" y="353"/>
      <point x="455" y="381" type="curve"/>
      <point x="514" y="410"/>
      <point x="559" y="467"/>
      <point x="559" y="545" type="curve" smooth="yes"/>
      <point x="559" y="650"/>
      <point x="480" y="742"/>
      <point x="319" y="742" type="curve"/>
      <point x="158" y="742"/>
      <point x="79" y="651"/>
      <point x="79" y="545" type="curve" smooth="yes"/>
      <point x="79" y="464"/>
    </contour>
    <contour>
      <point x="450" y="531" type="curve" smooth="yes"/>
      <point x="450" y="465"/>
      <point x="395" y="417"/>
      <point x="319" y="417" type="curve"/>
      <point x="243" y="417"/>
      <point x="189" y="464"/>
      <point x="189" y="530" type="curve" smooth="yes"/>
      <point x="189" y="607"/>
      <point x="241" y="647"/>
      <point x="319" y="647" type="curve" smooth="yes"/>
      <point x="399" y="647"/>
      <point x="450" y="606"/>
    </contour>
    <contour>
      <point x="235" y="331"/>
      <point x="319" y="331" type="curve" smooth="yes"/>
      <point x="405" y="331"/>
      <point x="466" y="287"/>
      <point x="466" y="205" type="curve" smooth="yes"/>
      <point x="466" y="132"/>
      <point x="411" y="77"/>
      <point x="319" y="77" type="curve"/>
      <point x="226" y="77"/>
      <point x="170" y="131"/>
      <point x="170" y="205" type="curve" smooth="yes"/>
      <point x="170" y="290"/>
    </contour>
  </outline>
</glyph>
<glyph name="equal" format="2">
  <advance width="774"/>
  <unicode hex="003D"/>
  <outline>
    <contour>
      <point x="121" y="296" type="line"/>
      <point x="121" y="200" type="line"/>
      <point x="653" y="200" type="line"/>
      <point x="653" y="296" type="line"/>
    </contour>
    <contour>
      <point x="121" y="523" type="line"/>
      <point x="121" y="427" type="line"/>
      <point x="653" y="427" type="line"/>
      <point x="653" y="523" type="line"/>
    </contour>
  </outline>
</glyph>
<glyph name="question" format="2">
  <advance width="538"/>
  <unicode hex="003F"/>
  <outline>
    <contour>
      <point x="262" y="705" type="curve" smooth="yes"/>
      <point x="126" y="705"/>
      <point x="39" y="620"/>
      <point x="40" y="499" type="curve"/>
      <point x="147" y="499" type="line"/>
      <point x="147" y="569"/>
      <point x="192" y="609"/>
      <point x="263" y="609" type="curve" smooth="yes"/>
      <point x="335" y="609"/>
      <point x="378" y="566"/>
      <point x="378" y="496" type="curve" smooth="yes"/>
      <point x="378" y="391"/>
      <point x="291" y="371"/>
      <point x="178" y="371" type="curve" smooth="yes"/>
      <point x="145" y="371" type="line"/>
      <point x="150" y="214" type="line"/>
      <point x="249" y="214" type="line"/>
      <point x="253" y="293" type="line"/>
      <point x="387" y="293"/>
      <point x="487" y="355"/>
      <point x="487" y="496" type="curve" smooth="yes"/>
      <point x="487" y="626"/>
      <point x="396" y="705"/>
    </contour>
    <component base="period" xOffset="77"/>
  </outline>
</glyph>
<glyph name="A" format="2">
  <advance width="697"/>
  <unicode hex="0041"/>
  <anchor x="664" y="0" name="ogonek"/>
  <anchor x="349" y="696" name="top"/>
  <outline>
    <contour>
      <point x="415" y="696" type="line"/>
      <point x="283" y="696" type="line"/>
      <point x="34" y="0" type="line"/>
      <point x="153" y="0" type="line"/>
      <point x="375" y="634" type="line"/>
      <point x="322" y="634" type="line"/>
      <point x="544" y="0" type="line"/>
      <point x="664" y="0" type="line"/>
    </contour>
    <contour>
      <point x="167" y="235" type="line"/>
      <point x="138" y="142" type="line"/>
      <point x="554" y="142" type="line"/>
      <point x="524" y="235" type="line"/>
    </contour>
  </outline>
</glyph>
<glyph name="B" format="2">
  <advance width="630"/>
  <unicode hex="0042"/>
  <outline>
    <contour>
      <point x="449" y="565"/>
      <point x="449" y="502" type="curve" smooth="yes"/>
      <point x="449" y="438"/>
      <point x="404" y="403"/>
      <point x="330" y="403" type="curve" smooth="yes"/>
      <point x="189" y="403" type="line"/>
      <point x="189" y="602" type="line"/>
      <point x="330" y="602" type="line" smooth="yes"/>
      <point x="404" y="602"/>
    </contour>
    <contour>
      <point x="581" y="81"/>
      <point x="581" y="187" type="curve" smooth="yes"/>
      <point x="581" y="277"/>
      <point x="511" y="356"/>
      <point x="428" y="359" type="curve"/>
      <point x="411" y="347" type="line"/>
      <point x="495" y="364"/>
      <point x="565" y="417"/>
      <point x="565" y="516" type="curve" smooth="yes"/>
      <point x="565" y="614"/>
      <point x="487" y="695"/>
      <point x="340" y="695" type="curve" smooth="yes"/>
      <point x="75" y="695" type="line"/>
      <point x="75" y="0" type="line"/>
      <point x="353" y="0" type="line" smooth="yes"/>
      <point x="495" y="0"/>
    </contour>
    <contour>
      <point x="467" y="268"/>
      <point x="467" y="199" type="curve" smooth="yes"/>
      <point x="467" y="132"/>
      <point x="420" y="93"/>
      <point x="343" y="93" type="curve" smooth="yes"/>
      <point x="189" y="93" type="line"/>
      <point x="189" y="310" type="line"/>
      <point x="339" y="310" type="line" smooth="yes"/>
      <point x="415" y="310"/>
    </contour>
  </outline>
</glyph>
<glyph name="C" format="2">
  <advance width="773"/>
  <unicode hex="0043"/>
  <anchor x="386" y="0" name="bottom"/>
  <anchor x="392" y="704" name="top"/>
  <outline>
    <contour>
      <point x="37" y="557"/>
      <point x="37" y="349" type="curve" smooth="yes"/>
      <point x="37" y="140"/>
      <point x="196" y="-6"/>
      <point x="392" y="-6" type="curve" smooth="yes"/>
      <point x="537" y="-6"/>
      <point x="662" y="66"/>
      <point x="715" y="202" type="curve"/>
      <point x="578" y="202" type="line"/>
      <point x="541" y="128"/>
      <point x="475" y="93"/>
      <point x="392" y="93" type="curve" smooth="yes"/>
      <point x="254" y="93"/>
      <point x="154" y="192"/>
      <point x="154" y="349" type="curve" smooth="yes"/>
      <point x="154" y="506"/>
      <point x="254" y="604"/>
      <point x="392" y="604" type="curve" smooth="yes"/>
      <point x="475" y="604"/>
      <point x="541" y="569"/>
      <point x="578" y="495" type="curve"/>
      <point x="715" y="495" type="line"/>
      <point x="662" y="631"/>
      <point x="537" y="704"/>
      <point x="392" y="704" type="curve" smooth="yes"/>
      <point x="196" y="704"/>
    </contour>
  </outline>
</glyph>
<glyph name="E" format="2">
  <advance width="524"/>
  <unicode hex="0045"/>
  <anchor x="262" y="0" name="bottom"/>
  <anchor x="459" y="0" name="ogonek"/>
  <anchor x="262" y="696" name="top"/>
  <outline>
    <contour>
      <point x="459" y="603" type="line"/>
      <point x="459" y="696" type="line"/>
      <point x="75" y="696" type="line"/>
      <point x="75" y="0" type="line"/>
      <point x="459" y="0" type="line"/>
      <point x="459" y="93" type="line"/>
      <point x="189" y="93" type="line"/>
      <point x="189" y="306" type="line"/>
      <point x="429" y="306" type="line"/>
      <point x="429" y="399" type="line"/>
      <point x="189" y="399" type="line"/>
      <point x="189" y="603" type="line"/>
    </contour>
  </outline>
</glyph>
<glyph name="F" format="2">
  <advance width="515"/>
  <unicode hex="0046"/>
  <outline>
    <contour>
      <point x="75" y="695" type="line"/>
      <point x="75" y="0" type="line"/>
      <point x="189" y="0" type="line"/>
      <point x="189" y="304" type="line"/>
      <point x="419" y="304" type="line"/>
      <point x="419" y="397" type="line"/>
      <point x="189" y="397" type="line"/>
      <point x="189" y="602" type="line"/>
      <point x="484" y="602" type="line"/>
      <point x="484" y="695" type="line"/>
    </contour>
  </outline>
</glyph>
<glyph name="H" format="2">
  <advance width="705"/>
  <unicode hex="0048"/>
  <guideline x="132" y="695" angle="0"/>
  <outline>
    <contour>
      <point x="75" y="695" type="line"/>
      <point x="75" y="0" type="line"/>
      <point x="189" y="0" type="line"/>
      <point x="189" y="695" type="line"/>
    </contour>
    <contour>
      <point x="516" y="695" type="line"/>
      <point x="516" y="0" type="line"/>
      <point x="630" y="0" type="line"/>
      <point x="630" y="695" type="line"/>
    </contour>
    <contour>
      <point x="169" y="397" type="line"/>
      <point x="169" y="304" type="line"/>
      <point x="543" y="304" type="line"/>
      <point x="543" y="397" type="line"/>
    </contour>
  </outline>
</glyph>
<glyph name="I" format="2">
  <advance width="264"/>
  <unicode hex="0049"/>
  <anchor x="189" y="1" name="ogonek"/>
  <anchor x="132" y="696" name="top"/>
  <outline>
    <contour>
      <point x="75" y="695" type="line"/>
      <point x="75" y="0" type="line"/>
      <point x="189" y="0" type="line"/>
      <point x="189" y="695" type="line"/>
    </contour>
  </outline>
</glyph>
<glyph name="K" format="2">
  <advance width="633"/>
  <unicode hex="004B"/>
  <anchor x="317" y="0" name="bottom"/>
  <anchor x="317" y="696" name="top"/>
  <outline>
    <contour>
      <point x="75" y="695" type="line"/>
      <point x="75" y="0" type="line"/>
      <point x="189" y="0" type="line"/>
      <point x="189" y="695" type="line"/>
    </contour>
    <contour>
      <point x="459" y="695" type="line"/>
      <point x="160" y="344" type="line"/>
      <point x="458" y="0" type="line"/>
      <point x="607" y="0" type="line"/>
      <point x="288" y="360" type="line"/>
      <point x="277" y="321" type="line"/>
      <point x="602" y="695" type="line"/>
    </contour>
  </outline>
</glyph>
<glyph name="L" format="2">
  <advance width="444"/>
  <unicode hex="004C"/>
  <anchor x="248" y="0" name="bottom"/>
  <anchor x="248" y="10" name="commaaccent"/>
  <anchor x="222" y="696" name="top"/>
  <anchor x="424" y="696" name="topright"/>
  <outline>
    <contour>
      <point x="189" y="695" type="line"/>
      <point x="75" y="695" type="line"/>
      <point x="75" y="0" type="line"/>
      <point x="424" y="0" type="line"/>
      <point x="424" y="92" type="line"/>
      <point x="189" y="92" type="line"/>
    </contour>
  </outline>
</glyph>
<glyph name="N" format="2">
  <advance width="721"/>
  <unicode hex="004E"/>
  <anchor x="361" y="0" name="bottom"/>
  <anchor x="361" y="696" name="top"/>
  <outline>
    <contour>
      <point x="646" y="696" type="line"/>
      <point x="532" y="696" type="line"/>
      <point x="532" y="178" type="line"/>
      <point x="189" y="696" type="line"/>
      <point x="75" y="696" type="line"/>
      <point x="75" y="0" type="line"/>
      <point x="189" y="0" type="line"/>
      <point x="189" y="519" type="line"/>
      <point x="532" y="0" type="line"/>
      <point x="646" y="0" type="line"/>
    </contour>
  </outline>
</glyph>
<glyph name="O" format="2">
  <advance width="784"/>
  <unicode hex="004F"/>
  <anchor x="392" y="696" name="top"/>
  <outline>
    <contour>
      <point x="392" y="-7" type="curve" smooth="yes"/>
      <point x="590" y="-7"/>
      <point x="747" y="140"/>
      <point x="747" y="349" type="curve" smooth="yes"/>
      <point x="747" y="557"/>
      <point x="590" y="704"/>
      <point x="392" y="704" type="curve" smooth="yes"/>
      <point x="196" y="704"/>
      <point x="37" y="557"/>
      <point x="37" y="349" type="curve" smooth="yes"/>
      <point x="37" y="140"/>
      <point x="196" y="-7"/>
    </contour>
    <contour>
      <point x="392" y="92" type="curve" smooth="yes"/>
      <point x="254" y="92"/>
      <point x="154" y="192"/>
      <point x="154" y="349" type="curve" smooth="yes"/>
      <point x="154" y="506"/>
      <point x="254" y="604"/>
      <point x="392" y="604" type="curve" smooth="yes"/>
      <point x="530" y="604"/>
      <point x="630" y="506"/>
      <point x="630" y="349" type="curve" smooth="yes"/>
      <point x="630" y="192"/>
      <point x="530" y="92"/>
    </contour>
  </outline>
</glyph>
<glyph name="P" format="2">
  <advance width="595"/>
  <unicode hex="0050"/>
  <outline>
    <contour>
      <point x="315" y="375" type="curve" smooth="yes"/>
      <point x="189" y="375" type="line"/>
      <point x="189" y="602" type="line"/>
      <point x="315" y="602" type="line" smooth="yes"/>
      <point x="404" y="602"/>
      <point x="444" y="560"/>
      <point x="444" y="488" type="curve" smooth="yes"/>
      <point x="444" y="418"/>
      <point x="404" y="375"/>
    </contour>
    <contour>
      <point x="561" y="389"/>
      <point x="561" y="488" type="curve" smooth="yes"/>
      <point x="561" y="601"/>
      <point x="480" y="695"/>
      <point x="315" y="695" type="curve" smooth="yes"/>
      <point x="75" y="695" type="line"/>
      <point x="75" y="0" type="line"/>
      <point x="189" y="0" type="line"/>
      <point x="189" y="282" type="line"/>
      <point x="315" y="282" type="line" smooth="yes"/>
      <point x="496" y="282"/>
    </contour>
  </outline>
</glyph>
<glyph name="R" format="2">
  <advance width="632"/>
  <unicode hex="0052"/>
  <anchor x="316" y="0" name="bottom"/>
  <anchor x="316" y="696" name="top"/>
  <outline>
    <contour>
      <point x="444" y="557"/>
      <point x="444" y="487" type="curve" smooth="yes"/>
      <point x="444" y="418"/>
      <point x="404" y="369"/>
      <point x="315" y="369" type="curve" smooth="yes"/>
      <point x="189" y="369" type="line"/>
      <point x="189" y="602" type="line"/>
      <point x="315" y="602" type="line" smooth="yes"/>
      <point x="404" y="602"/>
    </contour>
    <contour>
      <point x="315" y="695" type="curve" smooth="yes"/>
      <point x="75" y="695" type="line"/>
      <point x="75" y="0" type="line"/>
      <point x="189" y="0" type="line"/>
      <point x="189" y="278" type="line"/>
      <point x="315" y="278" type="line" smooth="yes"/>
      <point x="496" y="278"/>
      <point x="561" y="388"/>
      <point x="561" y="487" type="curve" smooth="yes"/>
      <point x="561" y="600"/>
      <point x="480" y="695"/>
    </contour>
    <contour>
      <point x="384" y="315" type="line"/>
      <point x="255" y="315" type="line"/>
      <point x="436" y="0" type="line"/>
      <point x="572" y="0" type="line"/>
    </contour>
  </outline>
</glyph>
<glyph name="S" format="2">
  <advance width="604"/>
  <unicode hex="0053"/>
  <anchor x="304" y="-7" name="bottom"/>
  <anchor x="299" y="704" name="top"/>
  <outline>
    <contour>
      <point x="304" y="-7" type="curve" smooth="yes"/>
      <point x="459" y="-7"/>
      <point x="544" y="93"/>
      <point x="544" y="197" type="curve" smooth="yes"/>
      <point x="544" y="451"/>
      <point x="176" y="353"/>
      <point x="176" y="510" type="curve" smooth="yes"/>
      <point x="176" y="577"/>
      <point x="227" y="609"/>
      <point x="293" y="607" type="curve" smooth="yes"/>
      <point x="365" y="605"/>
      <point x="406" y="562"/>
      <point x="410" y="515" type="curve"/>
      <point x="536" y="515" type="line"/>
      <point x="526" y="634"/>
      <point x="432" y="704"/>
      <point x="299" y="704" type="curve" smooth="yes"/>
      <point x="157" y="704"/>
      <point x="60" y="628"/>
      <point x="60" y="506" type="curve" smooth="yes"/>
      <point x="60" y="250"/>
      <point x="429" y="359"/>
      <point x="429" y="191" type="curve" smooth="yes"/>
      <point x="429" y="132"/>
      <point x="384" y="89"/>
      <point x="304" y="89" type="curve" smooth="yes"/>
      <point x="225" y="89"/>
      <point x="185" y="135"/>
      <point x="180" y="192" type="curve"/>
      <point x="58" y="192" type="line"/>
      <point x="58" y="69"/>
      <point x="165" y="-7"/>
    </contour>
  </outline>
</glyph>
<glyph name="T" format="2">
  <advance width="564"/>
  <unicode hex="0054"/>
  <anchor x="280" y="0" name="bottom"/>
  <anchor x="282" y="696" name="top"/>
  <outline>
    <contour>
      <point x="39" y="695" type="line"/>
      <point x="39" y="602" type="line"/>
      <point x="225" y="602" type="line"/>
      <point x="225" y="0" type="line"/>
      <point x="339" y="0" type="line"/>
      <point x="339" y="602" type="line"/>
      <point x="524" y="602" type="line"/>
      <point x="524" y="695" type="line"/>
    </contour>
  </outline>
</glyph>
<glyph name="U" format="2">
  <advance width="690"/>
  <unicode hex="0055"/>
  <anchor x="418" y="0" name="ogonek"/>
  <anchor x="345" y="696" name="top"/>
  <outline>
    <contour>
      <point x="74" y="695" type="line"/>
      <point x="74" y="254" type="line" smooth="yes"/>
      <point x="74" y="77"/>
      <point x="198" y="-7"/>
      <point x="344" y="-7" type="curve" smooth="yes"/>
      <point x="489" y="-7"/>
      <point x="617" y="77"/>
      <point x="617" y="254" type="curve" smooth="yes"/>
      <point x="617" y="695" type="line"/>
      <point x="503" y="695" type="line"/>
      <point x="503" y="252" type="line" smooth="yes"/>
      <point x="503" y="144"/>
      <point x="442" y="93"/>
      <point x="345" y="93" type="curve" smooth="yes"/>
      <point x="249" y="93"/>
      <point x="188" y="144"/>
      <point x="188" y="252" type="curve" smooth="yes"/>
      <point x="188" y="695" type="line"/>
    </contour>
  </outline>
</glyph>
<glyph name="V" format="2">
  <advance width="694"/>
  <unicode hex="0056"/>
  <outline>
    <contour>
      <point x="554" y="695" type="line"/>
      <point x="347" y="117" type="line"/>
      <point x="141" y="695" type="line"/>
      <point x="19" y="695" type="line"/>
      <point x="281" y="0" type="line"/>
      <point x="413" y="0" type="line"/>
      <point x="674" y="695" type="line"/>
    </contour>
  </outline>
</glyph>
<glyph name="X" format="2">
  <advance width="660"/>
  <unicode hex="0058"/>
  <outline>
    <contour>
      <point x="50" y="695" type="line"/>
      <point x="482" y="0" type="line"/>
      <point x="610" y="0" type="line"/>
      <point x="178" y="695" type="line"/>
    </contour>
    <contour>
      <point x="347" y="290" type="line"/>
      <point x="286" y="378" type="line"/>
      <point x="51" y="0" type="line"/>
      <point x="178" y="0" type="line"/>
    </contour>
    <contour>
      <point x="315" y="405" type="line"/>
      <point x="376" y="317" type="line"/>
      <point x="611" y="695" type="line"/>
      <point x="484" y="695" type="line"/>
    </contour>
  </outline>
</glyph>
<glyph name="Y" format="2">
  <advance width="605"/>
  <unicode hex="0059"/>
  <anchor x="303" y="696" name="top"/>
  <outline>
    <contour>
      <point x="15" y="695" type="line"/>
      <point x="246" y="252" type="line"/>
      <point x="246" y="0" type="line"/>
      <point x="360" y="0" type="line"/>
      <point x="360" y="252" type="line"/>
      <point x="590" y="695" type="line"/>
      <point x="464" y="695" type="line"/>
      <point x="278" y="300" type="line"/>
      <point x="329" y="300" type="line"/>
      <point x="142" y="695" type="line"/>
    </contour>
  </outline>
</glyph>
<glyph name="Z" format="2">
  <advance width="558"/>
  <unicode hex="005A"/>
  <anchor x="279" y="696" name="top"/>
  <outline>
    <contour>
      <point x="508" y="606" type="line"/>
      <point x="508" y="695" type="line"/>
      <point x="50" y="695" type="line"/>
      <point x="50" y="596" type="line"/>
      <point x="372" y="596" type="line"/>
      <point x="50" y="89" type="line"/>
      <point x="50" y="0" type="line"/>
      <point x="508" y="0" type="line"/>
      <point x="508" y="99" type="line"/>
      <point x="185" y="99" type="line"/>
    </contour>
  </outline>
</glyph>
<glyph name="bracketleft" format="2">
  <advance width="485"/>
  <unicode hex="005B"/>
  <outline>
    <contour>
      <point x="148" y="934" type="line"/>
      <point x="148" y="-186" type="line"/>
      <point x="356" y="-186" type="line"/>
      <point x="356" y="-91" type="line"/>
      <point x="255" y="-91" type="line"/>
      <point x="255" y="840" type="line"/>
      <point x="356" y="840" type="line"/>
      <point x="356" y="934" type="line"/>
    </contour>
  </outline>
</glyph>
<glyph name="bracketright" format="2">
  <advance width="484"/>
  <unicode hex="005D"/>
  <outline>
    <contour>
      <point x="336" y="934" type="line"/>
      <point x="128" y="934" type="line"/>
      <point x="128" y="840" type="line"/>
      <point x="229" y="840" type="line"/>
      <point x="229" y="-91" type="line"/>
      <point x="128" y="-91" type="line"/>
      <point x="128" y="-186" type="line"/>
      <point x="336" y="-186" type="line"/>
    </contour>
  </outline>
</glyph>
<glyph name="a" format="2">
  <advance width="678"/>
  <unicode hex="0061"/>
  <guideline x="549" y="86" angle="0"/>
  <guideline x="407" y="466" angle="0"/>
  <anchor x="603" y="0" name="ogonek"/>
  <anchor x="339" y="551" name="top"/>
  <outline>
    <contour>
      <point x="37" y="448"/>
      <point x="37" y="278" type="curve" smooth="yes"/>
      <point x="37" y="108"/>
      <point x="152" y="-9"/>
      <point x="295" y="-9" type="curve" smooth="yes"/>
      <point x="387" y="-9"/>
      <point x="453" y="35"/>
      <point x="488" y="82" type="curve"/>
      <point x="488" y="0" type="line"/>
      <point x="603" y="0" type="line"/>
      <point x="603" y="551" type="line"/>
      <point x="488" y="551" type="line"/>
      <point x="488" y="471" type="line"/>
      <point x="454" y="516"/>
      <point x="390" y="560"/>
      <point x="297" y="560" type="curve" smooth="yes"/>
      <point x="152" y="560"/>
    </contour>
    <contour>
      <point x="488" y="394"/>
      <point x="488" y="276" type="curve" smooth="yes"/>
      <point x="488" y="157"/>
      <point x="407" y="90"/>
      <point x="321" y="90" type="curve" smooth="yes"/>
      <point x="236" y="90"/>
      <point x="154" y="159"/>
      <point x="154" y="278" type="curve" smooth="yes"/>
      <point x="154" y="397"/>
      <point x="236" y="461"/>
      <point x="321" y="461" type="curve" smooth="yes"/>
      <point x="407" y="461"/>
    </contour>
  </outline>
</glyph>
<glyph name="b" format="2">
  <advance width="678"/>
  <unicode hex="0062"/>
  <outline>
    <contour>
      <point x="225" y="519"/>
      <point x="189" y="469" type="curve"/>
      <point x="189" y="740" type="line"/>
      <point x="75" y="740" type="line"/>
      <point x="75" y="0" type="line"/>
      <point x="189" y="0" type="line"/>
      <point x="189" y="80" type="line"/>
      <point x="225" y="32"/>
      <point x="290" y="-9"/>
      <point x="381" y="-9" type="curve" smooth="yes"/>
      <point x="526" y="-9"/>
      <point x="640" y="108"/>
      <point x="640" y="278" type="curve" smooth="yes"/>
      <point x="640" y="448"/>
      <point x="527" y="560"/>
      <point x="381" y="560" type="curve" smooth="yes"/>
      <point x="294" y="560"/>
    </contour>
    <contour>
      <point x="524" y="397"/>
      <point x="524" y="278" type="curve" smooth="yes"/>
      <point x="524" y="159"/>
      <point x="442" y="90"/>
      <point x="356" y="90" type="curve" smooth="yes"/>
      <point x="271" y="90"/>
      <point x="189" y="157"/>
      <point x="189" y="276" type="curve" smooth="yes"/>
      <point x="189" y="394"/>
      <point x="271" y="461"/>
      <point x="356" y="461" type="curve" smooth="yes"/>
      <point x="442" y="461"/>
    </contour>
  </outline>
</glyph>
<glyph name="e" format="2">
  <advance width="617"/>
  <unicode hex="0065"/>
  <anchor x="309" y="0" name="bottom"/>
  <anchor x="418" y="14" name="ogonek"/>
  <anchor x="309" y="551" name="top"/>
  <outline>
    <contour>
      <point x="136" y="325" type="line"/>
      <point x="135" y="233" type="line"/>
      <point x="576" y="233" type="line"/>
      <point x="579" y="252"/>
      <point x="580" y="270"/>
      <point x="580" y="289" type="curve" smooth="yes"/>
      <point x="580" y="451"/>
      <point x="469" y="560"/>
      <point x="312" y="560" type="curve" smooth="yes"/>
      <point x="149" y="560"/>
      <point x="37" y="449"/>
      <point x="37" y="276" type="curve" smooth="yes"/>
      <point x="37" y="103"/>
      <point x="154" y="-9"/>
      <point x="312" y="-9" type="curve" smooth="yes"/>
      <point x="447" y="-9"/>
      <point x="534" y="68"/>
      <point x="565" y="164" type="curve"/>
      <point x="442" y="164" type="line"/>
      <point x="421" y="121"/>
      <point x="382" y="87"/>
      <point x="312" y="87" type="curve" smooth="yes"/>
      <point x="223" y="87"/>
      <point x="154" y="150"/>
      <point x="154" y="251" type="curve" smooth="yes"/>
      <point x="154" y="295" type="line" smooth="yes"/>
      <point x="154" y="400"/>
      <point x="221" y="464"/>
      <point x="307" y="464" type="curve" smooth="yes"/>
      <point x="392" y="464"/>
      <point x="459" y="410"/>
      <point x="461" y="325" type="curve"/>
    </contour>
  </outline>
</glyph>
<glyph name="h" format="2">
  <advance width="649"/>
  <unicode hex="0068"/>
  <outline>
    <contour>
      <point x="75" y="740" type="line"/>
      <point x="75" y="0" type="line"/>
      <point x="189" y="0" type="line"/>
      <point x="189" y="740" type="line"/>
    </contour>
    <contour>
      <point x="466" y="308" type="curve" smooth="yes"/>
      <point x="466" y="0" type="line"/>
      <point x="579" y="0" type="line"/>
      <point x="579" y="325" type="line" smooth="yes"/>
      <point x="579" y="479"/>
      <point x="483" y="560"/>
      <point x="360" y="560" type="curve" smooth="yes"/>
      <point x="264" y="560"/>
      <point x="183" y="510"/>
      <point x="159" y="432" type="curve"/>
      <point x="189" y="308" type="line"/>
      <point x="189" y="409"/>
      <point x="244" y="461"/>
      <point x="328" y="461" type="curve" smooth="yes"/>
      <point x="411" y="461"/>
      <point x="466" y="409"/>
    </contour>
  </outline>
</glyph>
<glyph name="k" format="2">
  <advance width="554"/>
  <unicode hex="006B"/>
  <anchor x="277" y="0" name="bottom"/>
  <outline>
    <contour>
      <point x="75" y="740" type="line"/>
      <point x="75" y="0" type="line"/>
      <point x="189" y="0" type="line"/>
      <point x="189" y="740" type="line"/>
    </contour>
    <contour>
      <point x="389" y="551" type="line"/>
      <point x="158" y="273" type="line"/>
      <point x="393" y="0" type="line"/>
      <point x="547" y="0" type="line"/>
      <point x="281" y="288" type="line"/>
      <point x="274" y="255" type="line"/>
      <point x="547" y="551" type="line"/>
    </contour>
  </outline>
</glyph>
<glyph name="l" format="2">
  <advance width="264"/>
  <unicode hex="006C"/>
  <anchor x="132" y="0" name="bottom"/>
  <anchor x="132" y="10" name="commaaccent"/>
  <anchor x="132" y="740" name="top"/>
  <anchor x="244" y="551" name="topright"/>
  <outline>
    <contour>
      <point x="75" y="740" type="line"/>
      <point x="75" y="0" type="line"/>
      <point x="189" y="0" type="line"/>
      <point x="189" y="740" type="line"/>
    </contour>
  </outline>
</glyph>
<glyph name="m" format="2">
  <advance width="1039"/>
  <unicode hex="006D"/>
  <outline>
    <contour>
      <point x="75" y="551" type="line"/>
      <point x="75" y="0" type="line"/>
      <point x="189" y="0" type="line"/>
      <point x="189" y="551" type="line"/>
    </contour>
    <contour>
      <point x="466" y="308" type="curve" smooth="yes"/>
      <point x="466" y="0" type="line"/>
      <point x="579" y="0" type="line"/>
      <point x="579" y="325" type="line" smooth="yes"/>
      <point x="579" y="479"/>
      <point x="481" y="560"/>
      <point x="352" y="560" type="curve" smooth="yes"/>
      <point x="262" y="560"/>
      <point x="183" y="510"/>
      <point x="159" y="432" type="curve"/>
      <point x="189" y="308" type="line"/>
      <point x="189" y="409"/>
      <point x="244" y="461"/>
      <point x="328" y="461" type="curve" smooth="yes"/>
      <point x="411" y="461"/>
      <point x="466" y="409"/>
    </contour>
    <contour>
      <point x="856" y="308" type="curve" smooth="yes"/>
      <point x="856" y="0" type="line"/>
      <point x="969" y="0" type="line"/>
      <point x="969" y="325" type="line" smooth="yes"/>
      <point x="969" y="479"/>
      <point x="871" y="560"/>
      <point x="742" y="560" type="curve" smooth="yes"/>
      <point x="654" y="560"/>
      <point x="570" y="510"/>
      <point x="542" y="432" type="curve"/>
      <point x="579" y="308" type="line"/>
      <point x="579" y="409"/>
      <point x="634" y="461"/>
      <point x="718" y="461" type="curve" smooth="yes"/>
      <point x="801" y="461"/>
      <point x="856" y="409"/>
    </contour>
  </outline>
</glyph>
<glyph name="o" format="2">
  <advance width="638"/>
  <unicode hex="006F"/>
  <anchor x="319" y="560" name="top"/>
  <outline>
    <contour>
      <point x="314" y="-9" type="curve" smooth="yes"/>
      <point x="472" y="-9"/>
      <point x="600" y="103"/>
      <point x="600" y="276" type="curve" smooth="yes"/>
      <point x="600" y="449"/>
      <point x="476" y="560"/>
      <point x="319" y="560" type="curve" smooth="yes"/>
      <point x="162" y="560"/>
      <point x="38" y="449"/>
      <point x="38" y="276" type="curve" smooth="yes"/>
      <point x="38" y="103"/>
      <point x="157" y="-9"/>
    </contour>
    <contour>
      <point x="314" y="90" type="curve" smooth="yes"/>
      <point x="228" y="90"/>
      <point x="154" y="151"/>
      <point x="154" y="276" type="curve" smooth="yes"/>
      <point x="154" y="401"/>
      <point x="231" y="461"/>
      <point x="317" y="461" type="curve" smooth="yes"/>
      <point x="402" y="461"/>
      <point x="483" y="401"/>
      <point x="483" y="276" type="curve" smooth="yes"/>
      <point x="483" y="151"/>
      <point x="399" y="90"/>
    </contour>
  </outline>
</glyph>
<glyph name="p" format="2">
  <advance width="678"/>
  <unicode hex="0070"/>
  <guideline x="-224" y="84" angle="0"/>
  <outline>
    <contour>
      <point x="224" y="516"/>
      <point x="189" y="470" type="curve"/>
      <point x="189" y="551" type="line"/>
      <point x="75" y="551" type="line"/>
      <point x="75" y="-262" type="line"/>
      <point x="189" y="-262" type="line"/>
      <point x="189" y="80" type="line"/>
      <point x="225" y="37"/>
      <point x="290" y="-9"/>
      <point x="381" y="-9" type="curve" smooth="yes"/>
      <point x="526" y="-9"/>
      <point x="640" y="108"/>
      <point x="640" y="278" type="curve" smooth="yes"/>
      <point x="640" y="448"/>
      <point x="526" y="560"/>
      <point x="381" y="560" type="curve" smooth="yes"/>
      <point x="291" y="560"/>
    </contour>
    <contour>
      <point x="524" y="397"/>
      <point x="524" y="278" type="curve" smooth="yes"/>
      <point x="524" y="159"/>
      <point x="442" y="90"/>
      <point x="356" y="90" type="curve" smooth="yes"/>
      <point x="271" y="90"/>
      <point x="189" y="157"/>
      <point x="189" y="276" type="curve" smooth="yes"/>
      <point x="189" y="394"/>
      <point x="271" y="461"/>
      <point x="356" y="461" type="curve" smooth="yes"/>
      <point x="442" y="461"/>
    </contour>
  </outline>
</glyph>
<glyph name="q" format="2">
  <advance width="678"/>
  <unicode hex="0071"/>
  <guideline x="-251" y="84" angle="0"/>
  <outline>
    <contour>
      <point x="37" y="448"/>
      <point x="37" y="278" type="curve" smooth="yes"/>
      <point x="37" y="108"/>
      <point x="152" y="-9"/>
      <point x="294" y="-9" type="curve" smooth="yes"/>
      <point x="387" y="-9"/>
      <point x="456" y="37"/>
      <point x="488" y="80" type="curve"/>
      <point x="488" y="-262" type="line"/>
      <point x="603" y="-262" type="line"/>
      <point x="603" y="551" type="line"/>
      <point x="488" y="551" type="line"/>
      <point x="488" y="471" type="line"/>
      <point x="456" y="516"/>
      <point x="389" y="560"/>
      <point x="298" y="560" type="curve" smooth="yes"/>
      <point x="152" y="560"/>
    </contour>
    <contour>
      <point x="488" y="394"/>
      <point x="488" y="276" type="curve" smooth="yes"/>
      <point x="488" y="157"/>
      <point x="407" y="90"/>
      <point x="321" y="90" type="curve" smooth="yes"/>
      <point x="236" y="90"/>
      <point x="154" y="159"/>
      <point x="154" y="278" type="curve" smooth="yes"/>
      <point x="154" y="397"/>
      <point x="236" y="461"/>
      <point x="321" y="461" type="curve" smooth="yes"/>
      <point x="407" y="461"/>
    </contour>
  </outline>
</glyph>
<glyph name="r" format="2">
  <advance width="384"/>
  <unicode hex="0072"/>
  <anchor x="132" y="0" name="bottom"/>
  <anchor x="241" y="551" name="top"/>
  <outline>
    <contour>
      <point x="155" y="330" type="curve"/>
      <point x="189" y="290" type="line"/>
      <point x="189" y="407"/>
      <point x="241" y="442"/>
      <point x="325" y="442" type="curve" smooth="yes"/>
      <point x="354" y="442" type="line"/>
      <point x="354" y="560" type="line"/>
      <point x="220" y="560"/>
      <point x="155" y="459"/>
    </contour>
    <contour>
      <point x="75" y="551" type="line"/>
      <point x="75" y="0" type="line"/>
      <point x="189" y="0" type="line"/>
      <point x="189" y="551" type="line"/>
    </contour>
  </outline>
</glyph>
<glyph name="s" format="2">
  <advance width="534"/>
  <unicode hex="0073"/>
  <anchor x="267" y="0" name="bottom"/>
  <anchor x="266" y="560" name="top"/>
  <outline>
    <contour>
      <point x="275" y="-9" type="curve" smooth="yes"/>
      <point x="405" y="-9"/>
      <point x="486" y="61"/>
      <point x="486" y="154" type="curve" smooth="yes"/>
      <point x="480" y="353"/>
      <point x="169" y="291"/>
      <point x="169" y="402" type="curve" smooth="yes"/>
      <point x="169" y="439"/>
      <point x="201" y="464"/>
      <point x="262" y="464" type="curve" smooth="yes"/>
      <point x="324" y="464"/>
      <point x="361" y="431"/>
      <point x="365" y="383" type="curve"/>
      <point x="479" y="383" type="line"/>
      <point x="473" y="493"/>
      <point x="391" y="560"/>
      <point x="266" y="560" type="curve" smooth="yes"/>
      <point x="136" y="560"/>
      <point x="54" y="489"/>
      <point x="54" y="401" type="curve" smooth="yes"/>
      <point x="54" y="199"/>
      <point x="374" y="261"/>
      <point x="374" y="153" type="curve" smooth="yes"/>
      <point x="374" y="115"/>
      <point x="339" y="87"/>
      <point x="273" y="87" type="curve" smooth="yes"/>
      <point x="210" y="87"/>
      <point x="167" y="124"/>
      <point x="163" y="169" type="curve"/>
      <point x="45" y="169" type="line"/>
      <point x="50" y="69"/>
      <point x="143" y="-9"/>
    </contour>
  </outline>
</glyph>
<glyph name="t" format="2">
  <advance width="372"/>
  <unicode hex="0074"/>
  <anchor x="187" y="0" name="bottom"/>
  <anchor x="203" y="828" name="topright"/>
  <outline>
    <contour>
      <point x="93" y="688" type="line"/>
      <point x="93" y="153" type="line" smooth="yes"/>
      <point x="93" y="41"/>
      <point x="154" y="0"/>
      <point x="252" y="0" type="curve" smooth="yes"/>
      <point x="342" y="0" type="line"/>
      <point x="342" y="95" type="line"/>
      <point x="272" y="95" type="line" smooth="yes"/>
      <point x="224" y="95"/>
      <point x="208" y="112"/>
      <point x="208" y="153" type="curve" smooth="yes"/>
      <point x="208" y="688" type="line"/>
    </contour>
    <contour>
      <point x="28" y="458" type="line"/>
      <point x="342" y="458" type="line"/>
      <point x="342" y="551" type="line"/>
      <point x="28" y="551" type="line"/>
    </contour>
  </outline>
</glyph>
<glyph name="u" format="2">
  <advance width="649"/>
  <unicode hex="0075"/>
  <anchor x="574" y="-1" name="ogonek"/>
  <anchor x="325" y="551" name="top"/>
  <outline>
    <contour>
      <point x="574" y="0" type="line"/>
      <point x="574" y="551" type="line"/>
      <point x="460" y="551" type="line"/>
      <point x="460" y="0" type="line"/>
    </contour>
    <contour>
      <point x="183" y="244" type="curve" smooth="yes"/>
      <point x="183" y="551" type="line"/>
      <point x="70" y="551" type="line"/>
      <point x="70" y="227" type="line" smooth="yes"/>
      <point x="70" y="73"/>
      <point x="168" y="-8"/>
      <point x="297" y="-8" type="curve" smooth="yes"/>
      <point x="385" y="-8"/>
      <point x="466" y="42"/>
      <point x="488" y="120" type="curve"/>
      <point x="460" y="244" type="line"/>
      <point x="460" y="143"/>
      <point x="405" y="91"/>
      <point x="321" y="91" type="curve" smooth="yes"/>
      <point x="238" y="91"/>
      <point x="183" y="143"/>
    </contour>
  </outline>
</glyph>
<glyph name="v" format="2">
  <advance width="576"/>
  <unicode hex="0076"/>
  <outline>
    <contour>
      <point x="132" y="551" type="line"/>
      <point x="10" y="551" type="line"/>
      <point x="219" y="0" type="line"/>
      <point x="355" y="0" type="line"/>
      <point x="565" y="551" type="line"/>
      <point x="444" y="551" type="line"/>
      <point x="288" y="102" type="line"/>
    </contour>
  </outline>
</glyph>
<glyph name="z" format="2">
  <advance width="471"/>
  <unicode hex="007A"/>
  <anchor x="236" y="551" name="top"/>
  <outline>
    <contour>
      <point x="426" y="458" type="line"/>
      <point x="426" y="551" type="line"/>
      <point x="44" y="551" type="line"/>
      <point x="44" y="458" type="line"/>
      <point x="295" y="458" type="line"/>
      <point x="44" y="93" type="line"/>
      <point x="44" y="0" type="line"/>
      <point x="426" y="0" type="line"/>
      <point x="426" y="93" type="line"/>
      <point x="176" y="93" type="line"/>
    </contour>
  </outline>
</glyph>
<glyph name="braceleft" format="2">
  <advance width="516"/>
  <unicode hex="007B"/>
  <outline>
    <contour>
      <point x="126" y="331" type="line"/>
      <point x="190" y="324"/>
      <point x="225" y="291"/>
      <point x="225" y="239" type="curve" smooth="yes"/>
      <point x="225" y="163"/>
      <point x="208" y="46"/>
      <point x="208" y="-37" type="curve" smooth="yes"/>
      <point x="208" y="-134"/>
      <point x="271" y="-188"/>
      <point x="359" y="-188" type="curve" smooth="yes"/>
      <point x="426" y="-188" type="line"/>
      <point x="426" y="-89" type="line"/>
      <point x="382" y="-89" type="line" smooth="yes"/>
      <point x="340" y="-89"/>
      <point x="319" y="-71"/>
      <point x="319" y="-28" type="curve" smooth="yes"/>
      <point x="319" y="41"/>
      <point x="335" y="157"/>
      <point x="335" y="243" type="curve" smooth="yes"/>
      <point x="335" y="309"/>
      <point x="304" y="358"/>
      <point x="231" y="373" type="curve"/>
      <point x="231" y="375" type="line"/>
      <point x="304" y="390"/>
      <point x="335" y="439"/>
      <point x="335" y="505" type="curve" smooth="yes"/>
      <point x="335" y="591"/>
      <point x="319" y="707"/>
      <point x="319" y="776" type="curve" smooth="yes"/>
      <point x="319" y="819"/>
      <point x="340" y="837"/>
      <point x="382" y="837" type="curve" smooth="yes"/>
      <point x="426" y="837" type="line"/>
      <point x="426" y="936" type="line"/>
      <point x="359" y="936" type="line" smooth="yes"/>
      <point x="271" y="936"/>
      <point x="208" y="882"/>
      <point x="208" y="785" type="curve" smooth="yes"/>
      <point x="208" y="702"/>
      <point x="225" y="585"/>
      <point x="225" y="509" type="curve" smooth="yes"/>
      <point x="225" y="457"/>
      <point x="190" y="424"/>
      <point x="126" y="417" type="curve"/>
    </contour>
  </outline>
</glyph>
<glyph name="braceright" format="2">
  <advance width="516"/>
  <unicode hex="007D"/>
  <outline>
    <contour>
      <point x="390" y="331" type="curve"/>
      <point x="390" y="417" type="line"/>
      <point x="326" y="424"/>
      <point x="291" y="457"/>
      <point x="291" y="509" type="curve" smooth="yes"/>
      <point x="291" y="585"/>
      <point x="308" y="702"/>
      <point x="308" y="785" type="curve" smooth="yes"/>
      <point x="308" y="882"/>
      <point x="245" y="936"/>
      <point x="157" y="936" type="curve" smooth="yes"/>
      <point x="90" y="936" type="line"/>
      <point x="90" y="837" type="line"/>
      <point x="134" y="837" type="line" smooth="yes"/>
      <point x="176" y="837"/>
      <point x="197" y="819"/>
      <point x="197" y="776" type="curve" smooth="yes"/>
      <point x="197" y="707"/>
      <point x="181" y="591"/>
      <point x="181" y="505" type="curve" smooth="yes"/>
      <point x="181" y="439"/>
      <point x="212" y="390"/>
      <point x="285" y="375" type="curve"/>
      <point x="285" y="373" type="line"/>
      <point x="212" y="358"/>
      <point x="181" y="309"/>
      <point x="181" y="243" type="curve" smooth="yes"/>
      <point x="181" y="157"/>
      <point x="197" y="41"/>
      <point x="197" y="-28" type="curve" smooth="yes"/>
      <point x="197" y="-71"/>
      <point x="176" y="-89"/>
      <point x="134" y="-89" type="curve" smooth="yes"/>
      <point x="90" y="-89" type="line"/>
      <point x="90" y="-188" type="line"/>
      <point x="157" y="-188" type="line" smooth="yes"/>
      <point x="245" y="-188"/>
      <point x="308" y="-134"/>
      <point x="308" y="-37" type="curve" smooth="yes"/>
      <point x="308" y="46"/>
      <point x="291" y="163"/>
      <point x="291" y="239" type="curve" smooth="yes"/>
      <point x="291" y="291"/>
      <point x="326" y="324"/>
    </contour>
  </outline>
</glyph>
<glyph name="currency" format="2">
  <advance width="548"/>
  <unicode hex="00A4"/>
  <outline>
    <contour>
      <point x="274" y="555" type="curve" smooth="yes"/>
      <point x="168" y="555"/>
      <point x="89" y="486"/>
      <point x="89" y="377" type="curve" smooth="yes"/>
      <point x="89" y="269"/>
      <point x="164" y="199"/>
      <point x="272" y="199" type="curve" smooth="yes"/>
      <point x="379" y="199"/>
      <point x="460" y="269"/>
      <point x="460" y="377" type="curve" smooth="yes"/>
      <point x="460" y="486"/>
      <point x="381" y="555"/>
    </contour>
    <contour>
      <point x="273" y="485" type="curve" smooth="yes"/>
      <point x="321" y="485"/>
      <point x="365" y="448"/>
      <point x="365" y="377" type="curve" smooth="yes"/>
      <point x="365" y="306"/>
      <point x="319" y="270"/>
      <point x="272" y="270" type="curve" smooth="yes"/>
      <point x="224" y="270"/>
      <point x="183" y="306"/>
      <point x="183" y="377" type="curve" smooth="yes"/>
      <point x="183" y="448"/>
      <point x="225" y="485"/>
    </contour>
    <contour>
      <point x="147" y="455" type="line"/>
      <point x="201" y="502" type="line"/>
      <point x="111" y="592" type="line"/>
      <point x="60" y="541" type="line"/>
    </contour>
    <contour>
      <point x="347" y="501" type="line"/>
      <point x="398" y="450" type="line"/>
      <point x="488" y="541" type="line"/>
      <point x="438" y="592" type="line"/>
    </contour>
    <contour>
      <point x="404" y="299" type="line"/>
      <point x="351" y="250" type="line"/>
      <point x="438" y="164" type="line"/>
      <point x="488" y="215" type="line"/>
    </contour>
    <contour>
      <point x="204" y="257" type="line"/>
      <point x="147" y="303" type="line"/>
      <point x="60" y="215" type="line"/>
      <point x="111" y="164" type="line"/>
    </contour>
  </outline>
</glyph>
<glyph name="ordfeminine" format="2">
  <advance width="456"/>
  <unicode hex="00AA"/>
  <outline>
    <contour>
      <point x="31" y="530" type="curve" smooth="yes"/>
      <point x="31" y="424"/>
      <point x="106" y="347"/>
      <point x="202" y="347" type="curve" smooth="yes"/>
      <point x="261" y="347"/>
      <point x="304" y="371"/>
      <point x="325" y="399" type="curve"/>
      <point x="325" y="353" type="line"/>
      <point x="414" y="353" type="line"/>
      <point x="414" y="703" type="line"/>
      <point x="325" y="703" type="line"/>
      <point x="325" y="655" type="line"/>
      <point x="302" y="683"/>
      <point x="261" y="709"/>
      <point x="199" y="709" type="curve" smooth="yes"/>
      <point x="106" y="709"/>
      <point x="31" y="636"/>
    </contour>
    <contour>
      <point x="123" y="529" type="curve" smooth="yes"/>
      <point x="123" y="601"/>
      <point x="172" y="640"/>
      <point x="224" y="640" type="curve" smooth="yes"/>
      <point x="277" y="640"/>
      <point x="325" y="600"/>
      <point x="325" y="528" type="curve" smooth="yes"/>
      <point x="325" y="456"/>
      <point x="277" y="416"/>
      <point x="224" y="416" type="curve" smooth="yes"/>
      <point x="172" y="416"/>
      <point x="123" y="457"/>
    </contour>
  </outline>
</glyph>
<glyph name="logicalnot" format="2">
  <advance width="649"/>
  <unicode hex="00AC"/>
  <outline>
    <contour>
      <point x="37" y="435" type="line"/>
      <point x="37" y="346" type="line"/>
      <point x="491" y="346" type="line"/>
      <point x="491" y="208" type="line"/>
      <point x="605" y="208" type="line"/>
      <point x="605" y="435" type="line"/>
    </contour>
  </outline>
</glyph>
<glyph name="registered" format="2">
  <advance width="517"/>
  <unicode hex="00AE"/>
  <outline>
    <contour>
      <point x="50" y="496" type="curve" smooth="yes"/>
      <point x="50" y="374"/>
      <point x="137" y="287"/>
      <point x="259" y="287" type="curve" smooth="yes"/>
      <point x="380" y="287"/>
      <point x="467" y="374"/>
      <point x="467" y="496" type="curve" smooth="yes"/>
      <point x="467" y="618"/>
      <point x="380" y="705"/>
      <point x="259" y="705" type="curve" smooth="yes"/>
      <point x="137" y="705"/>
      <point x="50" y="618"/>
    </contour>
    <contour>
      <point x="100" y="496" type="curve" smooth="yes"/>
      <point x="100" y="593"/>
      <point x="161" y="659"/>
      <point x="259" y="659" type="curve" smooth="yes"/>
      <point x="356" y="659"/>
      <point x="418" y="593"/>
      <point x="418" y="496" type="curve" smooth="yes"/>
      <point x="418" y="399"/>
      <point x="356" y="333"/>
      <point x="259" y="333" type="curve" smooth="yes"/>
      <point x="161" y="333"/>
      <point x="100" y="399"/>
    </contour>
    <contour>
      <point x="274" y="606" type="line" smooth="yes"/>
      <point x="320" y="606"/>
      <point x="351" y="578"/>
      <point x="351" y="536" type="curve" smooth="yes"/>
      <point x="351" y="494"/>
      <point x="320" y="466"/>
      <point x="274" y="466" type="curve" smooth="yes"/>
      <point x="236" y="466" type="line"/>
      <point x="236" y="391" type="line"/>
      <point x="173" y="391" type="line"/>
      <point x="173" y="606" type="line"/>
    </contour>
    <contour>
      <point x="287" y="391" type="line"/>
      <point x="230" y="489" type="line"/>
      <point x="299" y="490" type="line"/>
      <point x="363" y="391" type="line"/>
    </contour>
    <contour>
      <point x="270" y="550" type="curve" smooth="yes"/>
      <point x="236" y="550" type="line"/>
      <point x="236" y="517" type="line"/>
      <point x="270" y="517" type="line" smooth="yes"/>
      <point x="280" y="517"/>
      <point x="289" y="522"/>
      <point x="289" y="534" type="curve" smooth="yes"/>
      <point x="289" y="545"/>
      <point x="280" y="550"/>
    </contour>
  </outline>
</glyph>
<glyph name="macroncomb" format="2">
  <advance width="386"/>
  <unicode hex="00AF"/>
  <anchor x="193" y="551" name="_top"/>
  <outline>
    <contour>
      <point x="10" y="720" type="line"/>
      <point x="10" y="635" type="line"/>
      <point x="376" y="635" type="line"/>
      <point x="376" y="720" type="line"/>
    </contour>
  </outline>
</glyph>
<glyph name="plusminus" format="2">
  <advance width="717"/>
  <unicode hex="00B1"/>
  <outline>
    <contour>
      <point x="412" y="621" type="line"/>
      <point x="306" y="621" type="line"/>
      <point x="306" y="166" type="line"/>
      <point x="412" y="166" type="line"/>
    </contour>
    <contour>
      <point x="104" y="468" type="line"/>
      <point x="104" y="372" type="line"/>
      <point x="613" y="372" type="line"/>
      <point x="613" y="468" type="line"/>
    </contour>
    <contour>
      <point x="104" y="223" type="line"/>
      <point x="104" y="127" type="line"/>
      <point x="613" y="127" type="line"/>
      <point x="613" y="223" type="line"/>
    </contour>
  </outline>
</glyph>
<glyph name="acute" format="2">
  <advance width="241"/>
  <unicode hex="00B4"/>
  <anchor x="128" y="551" name="_top"/>
  <outline>
    <contour>
      <point x="231" y="796" type="line"/>
      <point x="10" y="674" type="line"/>
      <point x="10" y="590" type="line"/>
      <point x="231" y="699" type="line"/>
    </contour>
  </outline>
</glyph>
<glyph name="ordmasculine" format="2">
  <advance width="444"/>
  <unicode hex="00BA"/>
  <outline>
    <contour>
      <point x="31" y="639"/>
      <point x="31" y="528" type="curve" smooth="yes"/>
      <point x="31" y="419"/>
      <point x="111" y="347"/>
      <point x="220" y="347" type="curve" smooth="yes"/>
      <point x="328" y="347"/>
      <point x="413" y="419"/>
      <point x="413" y="528" type="curve" smooth="yes"/>
      <point x="413" y="639"/>
      <point x="331" y="709"/>
      <point x="222" y="709" type="curve" smooth="yes"/>
      <point x="114" y="709"/>
    </contour>
    <contour>
      <point x="321" y="602"/>
      <point x="321" y="527" type="curve" smooth="yes"/>
      <point x="321" y="455"/>
      <point x="271" y="417"/>
      <point x="220" y="417" type="curve" smooth="yes"/>
      <point x="168" y="417"/>
      <point x="123" y="455"/>
      <point x="123" y="527" type="curve" smooth="yes"/>
      <point x="123" y="602"/>
      <point x="170" y="640"/>
      <point x="221" y="640" type="curve" smooth="yes"/>
      <point x="272" y="640"/>
    </contour>
  </outline>
</glyph>
<glyph name="onehalf" format="2">
  <advance width="701"/>
  <unicode hex="00BD"/>
  <outline>
    <contour>
      <point x="434" y="696" type="line"/>
      <point x="63" y="0" type="line"/>
      <point x="171" y="0" type="line"/>
      <point x="542" y="696" type="line"/>
    </contour>
    <component base="onesuperior" xOffset="14"/>
    <component base="twosuperior" xOffset="359" yOffset="-353"/>
  </outline>
</glyph>
<glyph name="multiply" format="2">
  <advance width="699"/>
  <unicode hex="00D7"/>
  <outline>
    <contour>
      <point x="200" y="587" type="line"/>
      <point x="127" y="514" type="line"/>
      <point x="502" y="138" type="line"/>
      <point x="575" y="211" type="line"/>
    </contour>
    <contour>
      <point x="123" y="213" type="line"/>
      <point x="198" y="138" type="line"/>
      <point x="573" y="512" type="line"/>
      <point x="498" y="587" type="line"/>
    </contour>
  </outline>
</glyph>
<glyph name="Thorn" format="2">
  <advance width="595"/>
  <unicode hex="00DE"/>
  <outline>
    <contour>
      <point x="315" y="231" type="curve" smooth="yes"/>
      <point x="189" y="231" type="line"/>
      <point x="189" y="466" type="line"/>
      <point x="315" y="466" type="line" smooth="yes"/>
      <point x="404" y="466"/>
      <point x="444" y="419"/>
      <point x="444" y="348" type="curve" smooth="yes"/>
      <point x="444" y="278"/>
      <point x="404" y="231"/>
    </contour>
    <contour>
      <point x="561" y="249"/>
      <point x="561" y="348" type="curve" smooth="yes"/>
      <point x="561" y="461"/>
      <point x="480" y="555"/>
      <point x="315" y="555" type="curve" smooth="yes"/>
      <point x="188" y="555" type="line"/>
      <point x="188" y="696" type="line"/>
      <point x="75" y="696" type="line"/>
      <point x="75" y="0" type="line"/>
      <point x="189" y="0" type="line"/>
      <point x="189" y="142" type="line"/>
      <point x="315" y="142" type="line" smooth="yes"/>
      <point x="496" y="142"/>
    </contour>
  </outline>
</glyph>
<glyph name="germandbls" format="2">
  <advance width="699"/>
  <unicode hex="00DF"/>
  <guideline x="493" y="363" angle="329.9816"/>
  <outline>
    <contour>
      <point x="54" y="562" type="curve" smooth="yes"/>
      <point x="54" y="0" type="line"/>
      <point x="168" y="0" type="line"/>
      <point x="168" y="547" type="line" smooth="yes"/>
      <point x="168" y="630"/>
      <point x="201" y="678"/>
      <point x="300" y="678" type="curve" smooth="yes"/>
      <point x="372" y="678"/>
      <point x="418" y="647"/>
      <point x="418" y="592" type="curve" smooth="yes"/>
      <point x="418" y="511"/>
      <point x="282" y="475"/>
      <point x="282" y="374" type="curve" smooth="yes"/>
      <point x="282" y="307"/>
      <point x="332" y="270"/>
      <point x="437" y="235" type="curve" smooth="yes"/>
      <point x="507" y="212"/>
      <point x="528" y="189"/>
      <point x="528" y="146" type="curve" smooth="yes"/>
      <point x="528" y="102"/>
      <point x="498" y="81"/>
      <point x="443" y="81" type="curve" smooth="yes"/>
      <point x="382" y="81"/>
      <point x="350" y="117"/>
      <point x="348" y="173" type="curve"/>
      <point x="232" y="173" type="line"/>
      <point x="241" y="56"/>
      <point x="323" y="-10"/>
      <point x="443" y="-10" type="curve" smooth="yes"/>
      <point x="571" y="-10"/>
      <point x="645" y="58"/>
      <point x="645" y="155" type="curve" smooth="yes"/>
      <point x="645" y="235"/>
      <point x="604" y="288"/>
      <point x="502" y="322" type="curve" smooth="yes"/>
      <point x="416" y="351"/>
      <point x="397" y="367"/>
      <point x="397" y="390" type="curve" smooth="yes"/>
      <point x="397" y="439"/>
      <point x="532" y="475"/>
      <point x="532" y="601" type="curve" smooth="yes"/>
      <point x="532" y="687"/>
      <point x="455" y="773"/>
      <point x="302" y="773" type="curve" smooth="yes"/>
      <point x="128" y="773"/>
      <point x="54" y="676"/>
    </contour>
  </outline>
</glyph>
<glyph name="ae" format="2">
  <advance width="1085"/>
  <unicode hex="00E6"/>
  <guideline x="765" y="473" angle="180"/>
  <outline>
    <contour>
      <point x="593" y="319" type="line"/>
      <point x="593" y="237" type="line"/>
      <point x="1044" y="237" type="line"/>
      <point x="1047" y="256"/>
      <point x="1048" y="274"/>
      <point x="1048" y="291" type="curve" smooth="yes"/>
      <point x="1048" y="447"/>
      <point x="942" y="560"/>
      <point x="789" y="560" type="curve" smooth="yes"/>
      <point x="710" y="560"/>
      <point x="647" y="536"/>
      <point x="590" y="473" type="curve"/>
      <point x="590" y="551" type="line"/>
      <point x="495" y="551" type="line"/>
      <point x="495" y="473" type="line"/>
      <point x="446" y="532"/>
      <point x="382" y="560"/>
      <point x="303" y="560" type="curve" smooth="yes"/>
      <point x="152" y="560"/>
      <point x="37" y="448"/>
      <point x="37" y="278" type="curve" smooth="yes"/>
      <point x="37" y="108"/>
      <point x="152" y="-9"/>
      <point x="297" y="-9" type="curve" smooth="yes"/>
      <point x="382" y="-9"/>
      <point x="450" y="32"/>
      <point x="492" y="83" type="curve"/>
      <point x="492" y="0" type="line"/>
      <point x="590" y="0" type="line"/>
      <point x="590" y="83" type="line"/>
      <point x="632" y="30"/>
      <point x="706" y="-9"/>
      <point x="789" y="-9" type="curve" smooth="yes"/>
      <point x="917" y="-9"/>
      <point x="1002" y="68"/>
      <point x="1033" y="164" type="curve"/>
      <point x="909" y="164" type="line"/>
      <point x="891" y="120"/>
      <point x="845" y="87"/>
      <point x="769" y="87" type="curve" smooth="yes"/>
      <point x="690" y="87"/>
      <point x="603" y="147"/>
      <point x="603" y="265" type="curve" smooth="yes"/>
      <point x="603" y="290" type="line" smooth="yes"/>
      <point x="603" y="394"/>
      <point x="679" y="464"/>
      <point x="770" y="464" type="curve" smooth="yes"/>
      <point x="860" y="464"/>
      <point x="928" y="407"/>
      <point x="930" y="319" type="curve"/>
    </contour>
    <contour>
      <point x="154" y="159"/>
      <point x="154" y="278" type="curve" smooth="yes"/>
      <point x="154" y="397"/>
      <point x="236" y="461"/>
      <point x="321" y="461" type="curve" smooth="yes"/>
      <point x="407" y="461"/>
      <point x="488" y="394"/>
      <point x="488" y="276" type="curve" smooth="yes"/>
      <point x="488" y="157"/>
      <point x="407" y="90"/>
      <point x="321" y="90" type="curve" smooth="yes"/>
      <point x="236" y="90"/>
    </contour>
  </outline>
</glyph>
<glyph name="divide" format="2">
  <advance width="679"/>
  <unicode hex="00F7"/>
  <outline>
    <contour>
      <point x="90" y="410" type="line"/>
      <point x="90" y="314" type="line"/>
      <point x="600" y="314" type="line"/>
      <point x="600" y="410" type="line"/>
    </contour>
    <component base="period" xOffset="226" yOffset="82"/>
    <component base="period" xOffset="226" yOffset="512"/>
  </outline>
</glyph>
<glyph name="Aogonek" format="2">
  <advance width="697"/>
  <unicode hex="0104"/>
  <anchor x="664" y="0" name="_ogonek"/>
  <outline>
    <contour>
      <point x="634" y="58" type="line"/>
      <point x="592" y="39" type="line" smooth="yes"/>
      <point x="498" y="-4"/>
      <point x="465" y="-52"/>
      <point x="465" y="-103" type="curve" smooth="yes"/>
      <point x="465" y="-183"/>
      <point x="535" y="-211"/>
      <point x="598" y="-211" type="curve" smooth="yes"/>
      <point x="627" y="-211"/>
      <point x="656" y="-205"/>
      <point x="679" y="-196" type="curve"/>
      <point x="679" y="-123" type="line"/>
      <point x="656" y="-132"/>
      <point x="632" y="-137"/>
      <point x="613" y="-137" type="curve" smooth="yes"/>
      <point x="579" y="-137"/>
      <point x="558" y="-119"/>
      <point x="558" y="-91" type="curve" smooth="yes"/>
      <point x="558" y="-67"/>
      <point x="572" y="-47"/>
      <point x="615" y="-25" type="curve" smooth="yes"/>
      <point x="664" y="0" type="line"/>
    </contour>
    <component base="A"/>
  </outline>
</glyph>
<glyph name="dcaron" format="2">
  <advance width="781"/>
  <unicode hex="010F"/>
  <outline>
    <contour>
      <point x="757" y="740" type="curve"/>
      <point x="654" y="740" type="line"/>
      <point x="654" y="643" type="line"/>
      <point x="707" y="643" type="line"/>
      <point x="707" y="622" type="line" smooth="yes"/>
      <point x="707" y="585"/>
      <point x="692" y="566"/>
      <point x="658" y="566" type="curve"/>
      <point x="658" y="516" type="line"/>
      <point x="733" y="516"/>
      <point x="771" y="558"/>
      <point x="771" y="640" type="curve" smooth="yes"/>
      <point x="771" y="670"/>
      <point x="766" y="703"/>
    </contour>
    <component base="d"/>
  </outline>
</glyph>
<glyph name="Gcommaaccent" format="2">
  <advance width="773"/>
  <unicode hex="0122"/>
  <anchor x="386" y="0" name="_bottom"/>
  <outline>
    <contour>
      <point x="435" y="-46" type="curve"/>
      <point x="332" y="-46" type="line"/>
      <point x="332" y="-142" type="line"/>
      <point x="385" y="-142" type="line"/>
      <point x="385" y="-163" type="line" smooth="yes"/>
      <point x="385" y="-201"/>
      <point x="370" y="-220"/>
      <point x="336" y="-220" type="curve"/>
      <point x="336" y="-270" type="line"/>
      <point x="410" y="-270"/>
      <point x="449" y="-228"/>
      <point x="449" y="-145" type="curve" smooth="yes"/>
      <point x="449" y="-116"/>
      <point x="444" y="-83"/>
    </contour>
    <component base="G"/>
  </outline>
</glyph>
<glyph name="gcommaaccent" format="2">
  <advance width="678"/>
  <unicode hex="0123"/>
  <outline>
    <contour>
      <point x="290" y="597" type="curve"/>
      <point x="393" y="597" type="line"/>
      <point x="393" y="694" type="line"/>
      <point x="341" y="694" type="line"/>
      <point x="341" y="715" type="line" smooth="yes"/>
      <point x="341" y="752"/>
      <point x="356" y="771"/>
      <point x="389" y="771" type="curve"/>
      <point x="389" y="821" type="line"/>
      <point x="315" y="821"/>
      <point x="277" y="779"/>
      <point x="277" y="696" type="curve" smooth="yes"/>
      <point x="277" y="667"/>
      <point x="281" y="634"/>
    </contour>
    <component base="g"/>
  </outline>
</glyph>
<glyph name="Kcommaaccent" format="2">
  <advance width="633"/>
  <unicode hex="0136"/>
  <outline>
    <contour>
      <point x="365" y="-46" type="curve"/>
      <point x="262" y="-46" type="line"/>
      <point x="262" y="-142" type="line"/>
      <point x="315" y="-142" type="line"/>
      <point x="315" y="-163" type="line" smooth="yes"/>
      <point x="315" y="-201"/>
      <point x="300" y="-220"/>
      <point x="267" y="-220" type="curve"/>
      <point x="267" y="-270" type="line"/>
      <point x="341" y="-270"/>
      <point x="379" y="-228"/>
      <point x="379" y="-145" type="curve" smooth="yes"/>
      <point x="379" y="-116"/>
      <point x="375" y="-83"/>
    </contour>
    <component base="K"/>
  </outline>
</glyph>
<glyph name="kcommaaccent" format="2">
  <advance width="554"/>
  <unicode hex="0137"/>
  <outline>
    <contour>
      <point x="326" y="-46" type="curve"/>
      <point x="223" y="-46" type="line"/>
      <point x="223" y="-142" type="line"/>
      <point x="276" y="-142" type="line"/>
      <point x="276" y="-163" type="line" smooth="yes"/>
      <point x="276" y="-201"/>
      <point x="260" y="-220"/>
      <point x="227" y="-220" type="curve"/>
      <point x="227" y="-270" type="line"/>
      <point x="301" y="-270"/>
      <point x="339" y="-228"/>
      <point x="339" y="-145" type="curve" smooth="yes"/>
      <point x="339" y="-116"/>
      <point x="335" y="-83"/>
    </contour>
    <component base="k"/>
  </outline>
</glyph>
<glyph name="Lcommaaccent" format="2">
  <advance width="444"/>
  <unicode hex="013B"/>
  <outline>
    <contour>
      <point x="296" y="-46" type="curve"/>
      <point x="193" y="-46" type="line"/>
      <point x="193" y="-142" type="line"/>
      <point x="246" y="-142" type="line"/>
      <point x="246" y="-163" type="line" smooth="yes"/>
      <point x="246" y="-201"/>
      <point x="231" y="-220"/>
      <point x="197" y="-220" type="curve"/>
      <point x="197" y="-270" type="line"/>
      <point x="272" y="-270"/>
      <point x="310" y="-228"/>
      <point x="310" y="-145" type="curve" smooth="yes"/>
      <point x="310" y="-116"/>
      <point x="306" y="-83"/>
    </contour>
    <component base="L"/>
  </outline>
</glyph>
<glyph name="lcommaaccent" format="2">
  <advance width="264"/>
  <unicode hex="013C"/>
  <outline>
    <contour>
      <point x="181" y="-46" type="curve"/>
      <point x="78" y="-46" type="line"/>
      <point x="78" y="-142" type="line"/>
      <point x="131" y="-142" type="line"/>
      <point x="131" y="-163" type="line" smooth="yes"/>
      <point x="131" y="-201"/>
      <point x="116" y="-220"/>
      <point x="82" y="-220" type="curve"/>
      <point x="82" y="-270" type="line"/>
      <point x="156" y="-270"/>
      <point x="195" y="-228"/>
      <point x="195" y="-145" type="curve" smooth="yes"/>
      <point x="195" y="-116"/>
      <point x="190" y="-83"/>
    </contour>
    <component base="l"/>
  </outline>
</glyph>
<glyph name="Lcaron" format="2">
  <advance width="463"/>
  <unicode hex="013D"/>
  <outline>
    <contour>
      <point x="400" y="695" type="curve"/>
      <point x="297" y="695" type="line"/>
      <point x="297" y="599" type="line"/>
      <point x="350" y="599" type="line"/>
      <point x="350" y="578" type="line" smooth="yes"/>
      <point x="350" y="540"/>
      <point x="335" y="521"/>
      <point x="302" y="521" type="curve"/>
      <point x="302" y="471" type="line"/>
      <point x="376" y="471"/>
      <point x="414" y="513"/>
      <point x="414" y="596" type="curve" smooth="yes"/>
      <point x="414" y="625"/>
      <point x="410" y="658"/>
    </contour>
    <component base="L"/>
  </outline>
</glyph>
<glyph name="lcaron" format="2">
  <advance width="427"/>
  <unicode hex="013E"/>
  <outline>
    <contour>
      <point x="370" y="740" type="curve"/>
      <point x="267" y="740" type="line"/>
      <point x="267" y="643" type="line"/>
      <point x="320" y="643" type="line"/>
      <point x="320" y="622" type="line" smooth="yes"/>
      <point x="320" y="585"/>
      <point x="305" y="566"/>
      <point x="272" y="566" type="curve"/>
      <point x="272" y="516" type="line"/>
      <point x="346" y="516"/>
      <point x="384" y="558"/>
      <point x="384" y="640" type="curve" smooth="yes"/>
      <point x="384" y="670"/>
      <point x="380" y="703"/>
    </contour>
    <component base="l"/>
  </outline>
</glyph>
<glyph name="Ldot" format="2">
  <advance width="444"/>
  <unicode hex="013F"/>
  <outline>
    <contour>
      <point x="75" y="0" type="line"/>
      <point x="424" y="0" type="line"/>
      <point x="424" y="92" type="line"/>
      <point x="189" y="92" type="line"/>
      <point x="189" y="695" type="line"/>
      <point x="75" y="695" type="line"/>
    </contour>
    <contour>
      <point x="352" y="315" type="curve" smooth="yes"/>
      <point x="385" y="315"/>
      <point x="412" y="341"/>
      <point x="412" y="375" type="curve" smooth="yes"/>
      <point x="412" y="408"/>
      <point x="385" y="435"/>
      <point x="352" y="435" type="curve" smooth="yes"/>
      <point x="318" y="435"/>
      <point x="292" y="408"/>
      <point x="292" y="375" type="curve" smooth="yes"/>
      <point x="292" y="341"/>
      <point x="318" y="315"/>
    </contour>
  </outline>
</glyph>
<glyph name="ldot" format="2">
  <advance width="314"/>
  <unicode hex="0140"/>
  <outline>
    <contour>
      <point x="75" y="0" type="line"/>
      <point x="189" y="0" type="line"/>
      <point x="189" y="740" type="line"/>
      <point x="75" y="740" type="line"/>
    </contour>
    <contour>
      <point x="288" y="305" type="curve" smooth="yes"/>
      <point x="321" y="305"/>
      <point x="348" y="331"/>
      <point x="348" y="365" type="curve" smooth="yes"/>
      <point x="348" y="398"/>
      <point x="321" y="425"/>
      <point x="288" y="425" type="curve" smooth="yes"/>
      <point x="254" y="425"/>
      <point x="228" y="398"/>
      <point x="228" y="365" type="curve" smooth="yes"/>
      <point x="228" y="331"/>
      <point x="254" y="305"/>
    </contour>
  </outline>
</glyph>
<glyph name="Lslash" format="2">
  <advance width="444"/>
  <unicode hex="0141"/>
  <outline>
    <contour>
      <point x="9" y="353" type="line"/>
      <point x="9" y="267" type="line"/>
      <point x="293" y="359" type="line"/>
      <point x="293" y="446" type="line"/>
    </contour>
    <contour>
      <point x="201" y="695" type="line"/>
      <point x="86" y="695" type="line"/>
      <point x="86" y="0" type="line"/>
      <point x="435" y="0" type="line"/>
      <point x="435" y="87" type="line"/>
      <point x="201" y="87" type="line"/>
    </contour>
  </outline>
</glyph>
<glyph name="Ncommaaccent" format="2">
  <advance width="721"/>
  <unicode hex="0145"/>
  <anchor x="361" y="0" name="_bottom"/>
  <outline>
    <contour>
      <point x="409" y="-46" type="curve"/>
      <point x="306" y="-46" type="line"/>
      <point x="306" y="-142" type="line"/>
      <point x="359" y="-142" type="line"/>
      <point x="359" y="-163" type="line" smooth="yes"/>
      <point x="359" y="-201"/>
      <point x="344" y="-220"/>
      <point x="311" y="-220" type="curve"/>
      <point x="311" y="-270" type="line"/>
      <point x="385" y="-270"/>
      <point x="423" y="-228"/>
      <point x="423" y="-145" type="curve" smooth="yes"/>
      <point x="423" y="-116"/>
      <point x="419" y="-83"/>
    </contour>
    <component base="N"/>
  </outline>
</glyph>
<glyph name="ncommaaccent" format="2">
  <advance width="649"/>
  <unicode hex="0146"/>
  <outline>
    <contour>
      <point x="373" y="-46" type="curve"/>
      <point x="270" y="-46" type="line"/>
      <point x="270" y="-142" type="line"/>
      <point x="323" y="-142" type="line"/>
      <point x="323" y="-163" type="line" smooth="yes"/>
      <point x="323" y="-201"/>
      <point x="308" y="-220"/>
      <point x="275" y="-220" type="curve"/>
      <point x="275" y="-270" type="line"/>
      <point x="349" y="-270"/>
      <point x="387" y="-228"/>
      <point x="387" y="-145" type="curve" smooth="yes"/>
      <point x="387" y="-116"/>
      <point x="383" y="-83"/>
    </contour>
    <component base="n"/>
  </outline>
</glyph>
<glyph name="Rcommaaccent" format="2">
  <advance width="632"/>
  <unicode hex="0156"/>
  <outline>
    <contour>
      <point x="365" y="-46" type="curve"/>
      <point x="262" y="-46" type="line"/>
      <point x="262" y="-142" type="line"/>
      <point x="314" y="-142" type="line"/>
      <point x="314" y="-163" type="line" smooth="yes"/>
      <point x="314" y="-201"/>
      <point x="299" y="-220"/>
      <point x="266" y="-220" type="curve"/>
      <point x="266" y="-270" type="line"/>
      <point x="340" y="-270"/>
      <point x="378" y="-228"/>
      <point x="378" y="-145" type="curve" smooth="yes"/>
      <point x="378" y="-116"/>
      <point x="374" y="-83"/>
    </contour>
    <component base="R"/>
  </outline>
</glyph>
<glyph name="rcommaaccent" format="2">
  <advance width="384"/>
  <unicode hex="0157"/>
  <outline>
    <contour>
      <point x="180" y="-46" type="curve"/>
      <point x="77" y="-46" type="line"/>
      <point x="77" y="-142" type="line"/>
      <point x="130" y="-142" type="line"/>
      <point x="130" y="-163" type="line" smooth="yes"/>
      <point x="130" y="-201"/>
      <point x="115" y="-220"/>
      <point x="82" y="-220" type="curve"/>
      <point x="82" y="-270" type="line"/>
      <point x="156" y="-270"/>
      <point x="194" y="-228"/>
      <point x="194" y="-145" type="curve" smooth="yes"/>
      <point x="194" y="-116"/>
      <point x="190" y="-83"/>
    </contour>
    <component base="r"/>
  </outline>
</glyph>
<glyph name="tcaron" format="2">
  <advance width="377"/>
  <unicode hex="0165"/>
  <outline>
    <contour>
      <point x="384" y="784" type="curve"/>
      <point x="281" y="784" type="line"/>
      <point x="281" y="687" type="line"/>
      <point x="334" y="687" type="line"/>
      <point x="334" y="672" type="line" smooth="yes"/>
      <point x="334" y="649"/>
      <point x="318" y="640"/>
      <point x="285" y="640" type="curve"/>
      <point x="285" y="590" type="line"/>
      <point x="359" y="590"/>
      <point x="398" y="623"/>
      <point x="398" y="694" type="curve" smooth="yes"/>
      <point x="398" y="724"/>
      <point x="393" y="747"/>
    </contour>
    <component base="t"/>
  </outline>
</glyph>
<glyph name="Schwa" format="2">
  <advance width="784"/>
  <unicode hex="018F"/>
  <anchor x="392" y="704" name="top"/>
  <outline>
    <contour>
      <point x="603" y="370" type="curve" smooth="yes"/>
      <point x="603" y="305" type="line" smooth="yes"/>
      <point x="603" y="175"/>
      <point x="512" y="96"/>
      <point x="393" y="96" type="curve" smooth="yes"/>
      <point x="270" y="96"/>
      <point x="185" y="171"/>
      <point x="181" y="284" type="curve"/>
      <point x="624" y="284" type="line"/>
      <point x="624" y="391" type="line"/>
      <point x="66" y="391" type="line"/>
      <point x="63" y="367"/>
      <point x="62" y="344"/>
      <point x="62" y="323" type="curve" smooth="yes"/>
      <point x="62" y="112"/>
      <point x="198" y="-7"/>
      <point x="393" y="-7" type="curve" smooth="yes"/>
      <point x="594" y="-7"/>
      <point x="727" y="139"/>
      <point x="727" y="349" type="curve" smooth="yes"/>
      <point x="727" y="559"/>
      <point x="590" y="704"/>
      <point x="392" y="704" type="curve" smooth="yes"/>
      <point x="234" y="704"/>
      <point x="118" y="619"/>
      <point x="70" y="485" type="curve"/>
      <point x="202" y="485" type="line"/>
      <point x="233" y="557"/>
      <point x="300" y="600"/>
      <point x="392" y="600" type="curve" smooth="yes"/>
      <point x="517" y="600"/>
      <point x="603" y="507"/>
    </contour>
  </outline>
</glyph>
<glyph name="Scommaaccent" format="2">
  <advance width="604"/>
  <unicode hex="0218"/>
  <outline>
    <contour>
      <point x="351" y="-46" type="curve"/>
      <point x="248" y="-46" type="line"/>
      <point x="248" y="-142" type="line"/>
      <point x="301" y="-142" type="line"/>
      <point x="301" y="-163" type="line" smooth="yes"/>
      <point x="301" y="-201"/>
      <point x="286" y="-220"/>
      <point x="252" y="-220" type="curve"/>
      <point x="252" y="-270" type="line"/>
      <point x="327" y="-270"/>
      <point x="365" y="-228"/>
      <point x="365" y="-145" type="curve" smooth="yes"/>
      <point x="365" y="-116"/>
      <point x="361" y="-83"/>
    </contour>
    <component base="S"/>
  </outline>
</glyph>
<glyph name="scommaaccent" format="2">
  <advance width="534"/>
  <unicode hex="0219"/>
  <outline>
    <contour>
      <point x="316" y="-46" type="curve"/>
      <point x="213" y="-46" type="line"/>
      <point x="213" y="-142" type="line"/>
      <point x="266" y="-142" type="line"/>
      <point x="266" y="-163" type="line" smooth="yes"/>
      <point x="266" y="-201"/>
      <point x="251" y="-220"/>
      <point x="217" y="-220" type="curve"/>
      <point x="217" y="-270" type="line"/>
      <point x="291" y="-270"/>
      <point x="330" y="-228"/>
      <point x="330" y="-145" type="curve" smooth="yes"/>
      <point x="330" y="-116"/>
      <point x="325" y="-83"/>
    </contour>
    <component base="s"/>
  </outline>
</glyph>
<glyph name="Tcommaaccent" format="2">
  <advance width="564"/>
  <unicode hex="021A"/>
  <outline>
    <contour>
      <point x="331" y="-46" type="curve"/>
      <point x="228" y="-46" type="line"/>
      <point x="228" y="-142" type="line"/>
      <point x="281" y="-142" type="line"/>
      <point x="281" y="-163" type="line" smooth="yes"/>
      <point x="281" y="-201"/>
      <point x="265" y="-220"/>
      <point x="232" y="-220" type="curve"/>
      <point x="232" y="-270" type="line"/>
      <point x="306" y="-270"/>
      <point x="344" y="-228"/>
      <point x="344" y="-145" type="curve" smooth="yes"/>
      <point x="344" y="-116"/>
      <point x="340" y="-83"/>
    </contour>
    <component base="T"/>
  </outline>
</glyph>
<glyph name="tcommaaccent" format="2">
  <advance width="372"/>
  <unicode hex="021B"/>
  <outline>
    <contour>
      <point x="235" y="-46" type="curve"/>
      <point x="132" y="-46" type="line"/>
      <point x="132" y="-142" type="line"/>
      <point x="185" y="-142" type="line"/>
      <point x="185" y="-163" type="line" smooth="yes"/>
      <point x="185" y="-201"/>
      <point x="170" y="-220"/>
      <point x="136" y="-220" type="curve"/>
      <point x="136" y="-270" type="line"/>
      <point x="211" y="-270"/>
      <point x="249" y="-228"/>
      <point x="249" y="-145" type="curve" smooth="yes"/>
      <point x="249" y="-116"/>
      <point x="245" y="-83"/>
    </contour>
    <component base="t"/>
  </outline>
</glyph>
<glyph name="circumflex" format="2">
  <advance width="306"/>
  <unicode hex="02C6"/>
  <anchor x="153" y="551" name="_top"/>
  <outline>
    <contour>
      <point x="296" y="590" type="line"/>
      <point x="296" y="679" type="line"/>
      <point x="153" y="762" type="line"/>
      <point x="10" y="679" type="line"/>
      <point x="10" y="590" type="line"/>
      <point x="153" y="676" type="line"/>
    </contour>
  </outline>
</glyph>
<glyph name="dotaccent" format="2">
  <advance width="140"/>
  <unicode hex="02D9"/>
  <anchor x="70" y="551" name="_top"/>
  <outline>
    <contour>
      <point x="36" y="620"/>
      <point x="70" y="620" type="curve" smooth="yes"/>
      <point x="103" y="620"/>
      <point x="130" y="646"/>
      <point x="130" y="680" type="curve" smooth="yes"/>
      <point x="130" y="713"/>
      <point x="103" y="740"/>
      <point x="70" y="740" type="curve" smooth="yes"/>
      <point x="36" y="740"/>
      <point x="10" y="713"/>
      <point x="10" y="680" type="curve" smooth="yes"/>
      <point x="10" y="646"/>
    </contour>
  </outline>
</glyph>
<glyph name="ogonekcomb" format="2">
  <advance width="234"/>
  <unicode hex="02DB"/>
  <anchor x="209" y="0" name="_ogonek"/>
  <outline>
    <contour>
      <point x="179" y="58" type="line"/>
      <point x="137" y="39" type="line" smooth="yes"/>
      <point x="43" y="-4"/>
      <point x="10" y="-52"/>
      <point x="10" y="-103" type="curve" smooth="yes"/>
      <point x="10" y="-183"/>
      <point x="80" y="-211"/>
      <point x="143" y="-211" type="curve" smooth="yes"/>
      <point x="172" y="-211"/>
      <point x="201" y="-205"/>
      <point x="224" y="-196" type="curve"/>
      <point x="224" y="-123" type="line"/>
      <point x="201" y="-132"/>
      <point x="177" y="-137"/>
      <point x="158" y="-137" type="curve" smooth="yes"/>
      <point x="124" y="-137"/>
      <point x="103" y="-119"/>
      <point x="103" y="-91" type="curve" smooth="yes"/>
      <point x="103" y="-67"/>
      <point x="117" y="-47"/>
      <point x="160" y="-25" type="curve" smooth="yes"/>
      <point x="209" y="0" type="line"/>
    </contour>
  </outline>
</glyph>
<glyph name="gravecomb" format="2">
  <unicode hex="0300"/>
  <anchor x="128" y="551" name="_top"/>
  <outline>
    <contour>
      <point x="10" y="796" type="line"/>
      <point x="10" y="699" type="line"/>
      <point x="231" y="590" type="line"/>
      <point x="231" y="674" type="line"/>
    </contour>
  </outline>
</glyph>
<glyph name="acutecomb" format="2">
  <unicode hex="0301"/>
  <anchor x="128" y="551" name="_top"/>
  <outline>
    <contour>
      <point x="231" y="796" type="line"/>
      <point x="10" y="674" type="line"/>
      <point x="10" y="590" type="line"/>
      <point x="231" y="699" type="line"/>
    </contour>
  </outline>
</glyph>
<glyph name="circumflexcomb" format="2">
  <unicode hex="0302"/>
  <anchor x="153" y="551" name="_top"/>
  <outline>
    <contour>
      <point x="296" y="590" type="line"/>
      <point x="296" y="679" type="line"/>
      <point x="153" y="762" type="line"/>
      <point x="10" y="679" type="line"/>
      <point x="10" y="590" type="line"/>
      <point x="153" y="676" type="line"/>
    </contour>
  </outline>
</glyph>
<glyph name="tildecomb" format="2">
  <unicode hex="0303"/>
  <anchor x="173" y="551" name="_top"/>
  <outline>
    <contour>
      <point x="21" y="687"/>
      <point x="10" y="608" type="curve"/>
      <point x="74" y="608" type="line"/>
      <point x="78" y="637"/>
      <point x="95" y="651"/>
      <point x="117" y="651" type="curve" smooth="yes"/>
      <point x="157" y="651"/>
      <point x="179" y="606"/>
      <point x="233" y="606" type="curve" smooth="yes"/>
      <point x="291" y="606"/>
      <point x="335" y="644"/>
      <point x="346" y="723" type="curve"/>
      <point x="282" y="723" type="line"/>
      <point x="278" y="694"/>
      <point x="261" y="681"/>
      <point x="239" y="681" type="curve" smooth="yes"/>
      <point x="199" y="681"/>
      <point x="177" y="725"/>
      <point x="123" y="725" type="curve" smooth="yes"/>
      <point x="65" y="725"/>
    </contour>
  </outline>
</glyph>
<glyph name="brevecomb" format="2">
  <advance width="321"/>
  <unicode hex="0306"/>
  <anchor x="160" y="551" name="_top"/>
  <outline>
    <contour>
      <point x="311" y="653"/>
      <point x="311" y="736" type="curve" smooth="yes"/>
      <point x="311" y="758" type="line"/>
      <point x="245" y="758" type="line"/>
      <point x="245" y="713"/>
      <point x="225" y="686"/>
      <point x="160" y="686" type="curve" smooth="yes"/>
      <point x="95" y="686"/>
      <point x="75" y="713"/>
      <point x="75" y="758" type="curve"/>
      <point x="10" y="758" type="line"/>
      <point x="10" y="737" type="line" smooth="yes"/>
      <point x="10" y="654"/>
      <point x="66" y="597"/>
      <point x="160" y="597" type="curve" smooth="yes"/>
      <point x="255" y="597"/>
    </contour>
  </outline>
</glyph>
<glyph name="dieresiscomb" format="2">
  <unicode hex="0308"/>
  <anchor x="156" y="551" name="_top"/>
  <outline>
    <contour>
      <point x="36" y="620"/>
      <point x="70" y="620" type="curve" smooth="yes"/>
      <point x="103" y="620"/>
      <point x="130" y="646"/>
      <point x="130" y="680" type="curve" smooth="yes"/>
      <point x="130" y="713"/>
      <point x="103" y="740"/>
      <point x="70" y="740" type="curve" smooth="yes"/>
      <point x="36" y="740"/>
      <point x="10" y="713"/>
      <point x="10" y="680" type="curve" smooth="yes"/>
      <point x="10" y="646"/>
    </contour>
    <contour>
      <point x="208" y="620"/>
      <point x="242" y="620" type="curve" smooth="yes"/>
      <point x="275" y="620"/>
      <point x="302" y="646"/>
      <point x="302" y="680" type="curve" smooth="yes"/>
      <point x="302" y="713"/>
      <point x="275" y="740"/>
      <point x="242" y="740" type="curve" smooth="yes"/>
      <point x="208" y="740"/>
      <point x="182" y="713"/>
      <point x="182" y="680" type="curve" smooth="yes"/>
      <point x="182" y="646"/>
    </contour>
  </outline>
</glyph>
<glyph name="ringcomb" format="2">
  <advance width="238"/>
  <unicode hex="030A"/>
  <anchor x="119" y="551" name="_top"/>
  <outline>
    <contour>
      <point x="232" y="714" type="curve" smooth="yes"/>
      <point x="232" y="782"/>
      <point x="182" y="824"/>
      <point x="119" y="824" type="curve" smooth="yes"/>
      <point x="58" y="824"/>
      <point x="7" y="782"/>
      <point x="7" y="714" type="curve" smooth="yes"/>
      <point x="7" y="647"/>
      <point x="58" y="605"/>
      <point x="119" y="605" type="curve" smooth="yes"/>
      <point x="182" y="605"/>
      <point x="232" y="647"/>
    </contour>
    <contour>
      <point x="168" y="715" type="curve" smooth="yes"/>
      <point x="168" y="685"/>
      <point x="146" y="664"/>
      <point x="119" y="664" type="curve" smooth="yes"/>
      <point x="93" y="664"/>
      <point x="71" y="685"/>
      <point x="71" y="715" type="curve" smooth="yes"/>
      <point x="71" y="746"/>
      <point x="93" y="766"/>
      <point x="119" y="766" type="curve" smooth="yes"/>
      <point x="146" y="766"/>
      <point x="168" y="746"/>
    </contour>
  </outline>
</glyph>
<glyph name="hungarumlautcomb" format="2">
  <unicode hex="030B"/>
  <anchor x="138" y="551" name="_top"/>
  <outline>
    <contour>
      <point x="178" y="771" type="line"/>
      <point x="79" y="771" type="line"/>
      <point x="10" y="601" type="line"/>
      <point x="84" y="601" type="line"/>
    </contour>
    <contour>
      <point x="344" y="771" type="line"/>
      <point x="245" y="771" type="line"/>
      <point x="170" y="601" type="line"/>
      <point x="244" y="601" type="line"/>
    </contour>
  </outline>
</glyph>
<glyph name="caroncomb" format="2">
  <unicode hex="030C"/>
  <anchor x="153" y="551" name="_top"/>
  <outline>
    <contour>
      <point x="296" y="762" type="line"/>
      <point x="153" y="676" type="line"/>
      <point x="10" y="762" type="line"/>
      <point x="10" y="673" type="line"/>
      <point x="153" y="590" type="line"/>
      <point x="296" y="673" type="line"/>
    </contour>
  </outline>
</glyph>
<glyph name="dvCandrabindu" format="2">
  <unicode hex="0901"/>
  <anchor x="-98" y="740" name="_abvm.e"/>
  <outline>
    <contour>
      <point x="-156" y="816" type="curve" smooth="yes"/>
      <point x="-14" y="816"/>
      <point x="58" y="897"/>
      <point x="58" y="1002" type="curve"/>
      <point x="-27" y="1002" type="line"/>
      <point x="-27" y="947"/>
      <point x="-69" y="892"/>
      <point x="-156" y="892" type="curve" smooth="yes"/>
      <point x="-243" y="892"/>
      <point x="-285" y="947"/>
      <point x="-285" y="1002" type="curve"/>
      <point x="-370" y="1002" type="line"/>
      <point x="-370" y="897"/>
      <point x="-298" y="816"/>
    </contour>
    <contour>
      <point x="-156" y="983" type="curve" smooth="yes"/>
      <point x="-129" y="983"/>
      <point x="-109" y="1004"/>
      <point x="-109" y="1030" type="curve" smooth="yes"/>
      <point x="-109" y="1056"/>
      <point x="-129" y="1077"/>
      <point x="-156" y="1077" type="curve" smooth="yes"/>
      <point x="-182" y="1077"/>
      <point x="-203" y="1056"/>
      <point x="-203" y="1030" type="curve" smooth="yes"/>
      <point x="-203" y="1004"/>
      <point x="-182" y="983"/>
    </contour>
  </outline>
</glyph>
<glyph name="dvAnusvara" format="2">
  <unicode hex="0902"/>
  <anchor x="-98" y="740" name="_abvm.e"/>
  <outline>
    <contour>
      <point x="-151" y="829" type="curve" smooth="yes"/>
      <point x="-114" y="829"/>
      <point x="-85" y="858"/>
      <point x="-85" y="895" type="curve" smooth="yes"/>
      <point x="-85" y="932"/>
      <point x="-114" y="961"/>
      <point x="-151" y="961" type="curve" smooth="yes"/>
      <point x="-189" y="961"/>
      <point x="-218" y="932"/>
      <point x="-218" y="895" type="curve" smooth="yes"/>
      <point x="-218" y="858"/>
      <point x="-189" y="829"/>
    </contour>
  </outline>
</glyph>
<glyph name="dvVisarga" format="2">
  <advance width="245"/>
  <unicode hex="0903"/>
  <outline>
    <contour>
      <point x="123" y="419" type="curve" smooth="yes"/>
      <point x="160" y="419"/>
      <point x="190" y="448"/>
      <point x="190" y="485" type="curve" smooth="yes"/>
      <point x="190" y="522"/>
      <point x="160" y="551"/>
      <point x="123" y="551" type="curve" smooth="yes"/>
      <point x="86" y="551"/>
      <point x="56" y="522"/>
      <point x="56" y="485" type="curve" smooth="yes"/>
      <point x="56" y="448"/>
      <point x="86" y="419"/>
    </contour>
    <contour>
      <point x="123" y="119" type="curve" smooth="yes"/>
      <point x="160" y="119"/>
      <point x="190" y="148"/>
      <point x="190" y="185" type="curve" smooth="yes"/>
      <point x="190" y="222"/>
      <point x="160" y="251"/>
      <point x="123" y="251" type="curve" smooth="yes"/>
      <point x="86" y="251"/>
      <point x="56" y="222"/>
      <point x="56" y="185" type="curve" smooth="yes"/>
      <point x="56" y="148"/>
      <point x="86" y="119"/>
    </contour>
  </outline>
</glyph>
<glyph name="dvA" format="2">
  <advance width="831"/>
  <unicode hex="0905"/>
  <outline>
    <contour>
      <point x="628" y="308" type="line"/>
      <point x="628" y="0" type="line"/>
      <point x="732" y="0" type="line"/>
      <point x="732" y="652" type="line"/>
      <point x="854" y="652" type="line"/>
      <point x="854" y="740" type="line"/>
      <point x="628" y="740" type="line"/>
      <point x="628" y="395" type="line"/>
      <point x="384" y="395" type="line"/>
      <point x="391" y="309" type="line"/>
    </contour>
    <contour>
      <point x="278" y="456" type="curve" smooth="yes"/>
      <point x="237" y="456" type="line"/>
      <point x="237" y="371" type="line"/>
      <point x="278" y="371" type="line" smooth="yes"/>
      <point x="369" y="371"/>
      <point x="404" y="313"/>
      <point x="404" y="258" type="curve" smooth="yes"/>
      <point x="404" y="191"/>
      <point x="360" y="145"/>
      <point x="289" y="145" type="curve" smooth="yes"/>
      <point x="217" y="145"/>
      <point x="168" y="194"/>
      <point x="168" y="260" type="curve"/>
      <point x="70" y="260" type="line"/>
      <point x="70" y="138"/>
      <point x="162" y="55"/>
      <point x="296" y="55" type="curve" smooth="yes"/>
      <point x="418" y="55"/>
      <point x="500" y="131"/>
      <point x="500" y="248" type="curve" smooth="yes"/>
      <point x="500" y="322"/>
      <point x="458" y="398"/>
      <point x="371" y="415" type="curve"/>
      <point x="371" y="417" type="line"/>
      <point x="448" y="438"/>
      <point x="488" y="496"/>
      <point x="488" y="570" type="curve" smooth="yes"/>
      <point x="488" y="679"/>
      <point x="406" y="749"/>
      <point x="287" y="749" type="curve" smooth="yes"/>
      <point x="164" y="749"/>
      <point x="77" y="675"/>
      <point x="77" y="559" type="curve"/>
      <point x="174" y="559" type="line"/>
      <point x="174" y="621"/>
      <point x="224" y="660"/>
      <point x="287" y="660" type="curve" smooth="yes"/>
      <point x="346" y="660"/>
      <point x="394" y="621"/>
      <point x="394" y="556" type="curve" smooth="yes"/>
      <point x="394" y="505"/>
      <point x="355" y="456"/>
    </contour>
  </outline>
</glyph>
<glyph name="dvI" format="2">
  <advance width="579"/>
  <unicode hex="0907"/>
  <anchor x="342" y="740" name="abvm.e"/>
  <outline>
    <contour>
      <point x="91" y="-79" type="line"/>
      <point x="190" y="-79" type="line"/>
      <point x="190" y="66" type="line"/>
      <point x="205" y="39"/>
      <point x="252" y="-15"/>
      <point x="348" y="-15" type="curve" smooth="yes"/>
      <point x="464" y="-15"/>
      <point x="526" y="59"/>
      <point x="526" y="152" type="curve" smooth="yes"/>
      <point x="526" y="285"/>
      <point x="422" y="326"/>
      <point x="320" y="326" type="curve" smooth="yes"/>
      <point x="304" y="326"/>
      <point x="288" y="326"/>
      <point x="276" y="326" type="curve" smooth="yes"/>
      <point x="224" y="326"/>
      <point x="181" y="345"/>
      <point x="181" y="397" type="curve" smooth="yes"/>
      <point x="181" y="457"/>
      <point x="238" y="470"/>
      <point x="287" y="470" type="curve" smooth="yes"/>
      <point x="466" y="470" type="line"/>
      <point x="466" y="546" type="line"/>
      <point x="259" y="546" type="line" smooth="yes"/>
      <point x="165" y="546"/>
      <point x="76" y="507"/>
      <point x="76" y="398" type="curve" smooth="yes"/>
      <point x="76" y="295"/>
      <point x="160" y="254"/>
      <point x="245" y="251" type="curve" smooth="yes"/>
      <point x="264" y="251"/>
      <point x="283" y="251"/>
      <point x="301" y="251" type="curve" smooth="yes"/>
      <point x="366" y="251"/>
      <point x="426" y="229"/>
      <point x="426" y="155" type="curve" smooth="yes"/>
      <point x="426" y="106"/>
      <point x="391" y="64"/>
      <point x="319" y="64" type="curve" smooth="yes"/>
      <point x="238" y="64"/>
      <point x="191" y="111"/>
      <point x="185" y="177" type="curve"/>
      <point x="91" y="177" type="line"/>
    </contour>
    <contour>
      <point x="-32" y="652" type="line"/>
      <point x="612" y="652" type="line"/>
      <point x="612" y="740" type="line"/>
      <point x="-32" y="740" type="line"/>
    </contour>
    <contour>
      <point x="365" y="520" type="line"/>
      <point x="466" y="520" type="line"/>
      <point x="466" y="726" type="line"/>
      <point x="365" y="726" type="line"/>
    </contour>
  </outline>
</glyph>
<glyph name="dvU" format="2">
  <advance width="572"/>
  <unicode hex="0909"/>
  <anchor x="346" y="740" name="abvm.e"/>
  <outline>
    <contour>
      <point x="291" y="3" type="curve" smooth="yes"/>
      <point x="431" y="3"/>
      <point x="513" y="93"/>
      <point x="513" y="219" type="curve" smooth="yes"/>
      <point x="513" y="312"/>
      <point x="461" y="389"/>
      <point x="379" y="408" type="curve"/>
      <point x="379" y="410" type="line"/>
      <point x="440" y="422"/>
      <point x="484" y="478"/>
      <point x="484" y="561" type="curve" smooth="yes"/>
      <point x="484" y="719" type="line"/>
      <point x="383" y="719" type="line"/>
      <point x="383" y="567" type="line" smooth="yes"/>
      <point x="383" y="498"/>
      <point x="342" y="452"/>
      <point x="265" y="452" type="curve" smooth="yes"/>
      <point x="229" y="452" type="line"/>
      <point x="229" y="360" type="line"/>
      <point x="279" y="360" type="line" smooth="yes"/>
      <point x="376" y="360"/>
      <point x="414" y="290"/>
      <point x="414" y="227" type="curve" smooth="yes"/>
      <point x="414" y="151"/>
      <point x="364" y="97"/>
      <point x="286" y="97" type="curve" smooth="yes"/>
      <point x="207" y="97"/>
      <point x="148" y="154"/>
      <point x="148" y="230" type="curve"/>
      <point x="48" y="230" type="line"/>
      <point x="48" y="94"/>
      <point x="149" y="3"/>
    </contour>
    <contour>
      <point x="-24" y="652" type="line"/>
      <point x="596" y="652" type="line"/>
      <point x="596" y="740" type="line"/>
      <point x="-24" y="740" type="line"/>
    </contour>
  </outline>
</glyph>
<glyph name="dvUU" format="2">
  <advance width="861"/>
  <unicode hex="090A"/>
  <anchor x="484" y="740" name="abvm.e"/>
  <outline>
    <contour>
      <point x="291" y="3" type="curve" smooth="yes"/>
      <point x="430" y="3"/>
      <point x="512" y="93"/>
      <point x="512" y="214" type="curve" smooth="yes"/>
      <point x="512" y="307"/>
      <point x="460" y="384"/>
      <point x="379" y="403" type="curve"/>
      <point x="379" y="410" type="line"/>
      <point x="440" y="422"/>
      <point x="484" y="478"/>
      <point x="484" y="561" type="curve" smooth="yes"/>
      <point x="484" y="716" type="line"/>
      <point x="383" y="716" type="line"/>
      <point x="383" y="567" type="line" smooth="yes"/>
      <point x="383" y="498"/>
      <point x="342" y="452"/>
      <point x="265" y="452" type="curve" smooth="yes"/>
      <point x="229" y="452" type="line"/>
      <point x="229" y="360" type="line"/>
      <point x="279" y="360" type="line" smooth="yes"/>
      <point x="376" y="360"/>
      <point x="414" y="290"/>
      <point x="414" y="227" type="curve" smooth="yes"/>
      <point x="414" y="151"/>
      <point x="364" y="97"/>
      <point x="286" y="97" type="curve" smooth="yes"/>
      <point x="207" y="97"/>
      <point x="148" y="154"/>
      <point x="148" y="230" type="curve"/>
      <point x="48" y="230" type="line"/>
      <point x="48" y="94"/>
      <point x="149" y="3"/>
    </contour>
    <contour>
      <point x="617" y="25" type="curve" smooth="yes"/>
      <point x="730" y="25"/>
      <point x="810" y="88"/>
      <point x="810" y="211" type="curve" smooth="yes"/>
      <point x="810" y="351"/>
      <point x="709" y="408"/>
      <point x="578" y="408" type="curve" smooth="yes"/>
      <point x="374" y="408" type="line"/>
      <point x="398" y="324" type="line"/>
      <point x="579" y="324" type="line" smooth="yes"/>
      <point x="650" y="324"/>
      <point x="709" y="294"/>
      <point x="709" y="215" type="curve" smooth="yes"/>
      <point x="709" y="137"/>
      <point x="660" y="108"/>
      <point x="600" y="108" type="curve" smooth="yes"/>
      <point x="589" y="108"/>
      <point x="578" y="108"/>
      <point x="567" y="109" type="curve"/>
      <point x="567" y="29" type="line"/>
      <point x="584" y="27"/>
      <point x="601" y="25"/>
    </contour>
    <contour>
      <point x="-24" y="652" type="line"/>
      <point x="884" y="652" type="line"/>
      <point x="884" y="740" type="line"/>
      <point x="-24" y="740" type="line"/>
    </contour>
  </outline>
</glyph>
<glyph name="dvvR" format="2">
  <advance width="1030"/>
  <unicode hex="090B"/>
  <anchor x="589" y="740" name="abvm.e"/>
  <outline>
    <contour>
      <point x="492" y="0" type="line"/>
      <point x="589" y="0" type="line"/>
      <point x="589" y="652" type="line"/>
      <point x="1054" y="652" type="line"/>
      <point x="1054" y="740" type="line"/>
      <point x="-24" y="740" type="line"/>
      <point x="-24" y="652" type="line"/>
      <point x="492" y="652" type="line"/>
    </contour>
    <contour>
      <point x="112" y="0" type="line"/>
      <point x="244" y="0" type="line"/>
      <point x="550" y="301" type="line"/>
      <point x="511" y="368" type="line"/>
      <point x="112" y="6" type="line"/>
    </contour>
    <contour>
      <point x="540" y="281" type="line"/>
      <point x="541" y="432"/>
      <point x="472" y="556"/>
      <point x="312" y="556" type="curve" smooth="yes"/>
      <point x="165" y="556"/>
      <point x="69" y="450"/>
      <point x="69" y="293" type="curve"/>
      <point x="174" y="293" type="line"/>
      <point x="174" y="399"/>
      <point x="241" y="467"/>
      <point x="342" y="467" type="curve" smooth="yes"/>
      <point x="436" y="467"/>
      <point x="496" y="398"/>
      <point x="496" y="312" type="curve"/>
    </contour>
    <contour>
      <point x="895" y="-62" type="curve" smooth="yes"/>
      <point x="919" y="-62"/>
      <point x="948" y="-58"/>
      <point x="966" y="-54" type="curve"/>
      <point x="966" y="30" type="line"/>
      <point x="951" y="26"/>
      <point x="929" y="22"/>
      <point x="909" y="22" type="curve" smooth="yes"/>
      <point x="849" y="22"/>
      <point x="799" y="47"/>
      <point x="799" y="115" type="curve" smooth="yes"/>
      <point x="799" y="168"/>
      <point x="835" y="210"/>
      <point x="906" y="210" type="curve" smooth="yes"/>
      <point x="922" y="210" type="line"/>
      <point x="922" y="276" type="line"/>
      <point x="895" y="276" type="line" smooth="yes"/>
      <point x="778" y="276"/>
      <point x="698" y="211"/>
      <point x="698" y="106" type="curve" smooth="yes"/>
      <point x="698" y="-6"/>
      <point x="785" y="-62"/>
    </contour>
    <contour>
      <point x="565" y="358" type="line"/>
      <point x="743" y="358" type="line" smooth="yes"/>
      <point x="838" y="358"/>
      <point x="913" y="408"/>
      <point x="913" y="513" type="curve" smooth="yes"/>
      <point x="913" y="546" type="line"/>
      <point x="836" y="546" type="line"/>
      <point x="836" y="511" type="line" smooth="yes"/>
      <point x="836" y="468"/>
      <point x="813" y="442"/>
      <point x="758" y="442" type="curve" smooth="yes"/>
      <point x="565" y="442" type="line"/>
    </contour>
    <contour>
      <point x="836" y="210" type="line"/>
      <point x="927" y="210" type="line"/>
      <point x="927" y="563" type="line"/>
      <point x="836" y="563" type="line"/>
    </contour>
  </outline>
</glyph>
<glyph name="dvvL" format="2">
  <advance width="901"/>
  <unicode hex="090C"/>
  <anchor x="687" y="740" name="abvm.e"/>
  <outline>
    <contour>
      <point x="794" y="-64" type="curve" smooth="yes"/>
      <point x="818" y="-64"/>
      <point x="843" y="-61"/>
      <point x="864" y="-56" type="curve"/>
      <point x="864" y="28" type="line"/>
      <point x="848" y="23"/>
      <point x="827" y="20"/>
      <point x="806" y="20" type="curve" smooth="yes"/>
      <point x="745" y="20"/>
      <point x="695" y="46"/>
      <point x="695" y="112" type="curve" smooth="yes"/>
      <point x="695" y="166"/>
      <point x="731" y="208"/>
      <point x="814" y="208" type="curve" smooth="yes"/>
      <point x="817" y="208"/>
      <point x="819" y="208"/>
      <point x="821" y="208" type="curve"/>
      <point x="832" y="238"/>
      <point x="837" y="272"/>
      <point x="837" y="308" type="curve" smooth="yes"/>
      <point x="837" y="455"/>
      <point x="750" y="541"/>
      <point x="634" y="541" type="curve" smooth="yes"/>
      <point x="527" y="541"/>
      <point x="474" y="473"/>
      <point x="454" y="404" type="curve"/>
      <point x="451" y="404" type="line"/>
      <point x="431" y="472"/>
      <point x="381" y="541"/>
      <point x="279" y="541" type="curve" smooth="yes"/>
      <point x="157" y="541"/>
      <point x="65" y="458"/>
      <point x="65" y="308" type="curve" smooth="yes"/>
      <point x="65" y="163"/>
      <point x="149" y="61"/>
      <point x="309" y="61" type="curve" smooth="yes"/>
      <point x="318" y="61"/>
      <point x="330" y="61"/>
      <point x="343" y="62" type="curve"/>
      <point x="343" y="154" type="line"/>
      <point x="333" y="153"/>
      <point x="322" y="152"/>
      <point x="315" y="152" type="curve" smooth="yes"/>
      <point x="223" y="152"/>
      <point x="171" y="211"/>
      <point x="171" y="307" type="curve" smooth="yes"/>
      <point x="171" y="388"/>
      <point x="213" y="448"/>
      <point x="293" y="448" type="curve" smooth="yes"/>
      <point x="373" y="448"/>
      <point x="409" y="377"/>
      <point x="409" y="284" type="curve" smooth="yes"/>
      <point x="409" y="263" type="line"/>
      <point x="497" y="263" type="line"/>
      <point x="497" y="284" type="line" smooth="yes"/>
      <point x="497" y="379"/>
      <point x="535" y="448"/>
      <point x="618" y="448" type="curve" smooth="yes"/>
      <point x="694" y="448"/>
      <point x="733" y="387"/>
      <point x="733" y="309" type="curve" smooth="yes"/>
      <point x="733" y="283"/>
      <point x="730" y="260"/>
      <point x="722" y="238" type="curve"/>
      <point x="755" y="268" type="line"/>
      <point x="664" y="264"/>
      <point x="594" y="197"/>
      <point x="594" y="107" type="curve" smooth="yes"/>
      <point x="594" y="-8"/>
      <point x="681" y="-64"/>
    </contour>
    <contour>
      <point x="585" y="495" type="line"/>
      <point x="687" y="512" type="line"/>
      <point x="687" y="670" type="line"/>
      <point x="585" y="670" type="line"/>
    </contour>
    <contour>
      <point x="-24" y="652" type="line"/>
      <point x="925" y="652" type="line"/>
      <point x="925" y="740" type="line"/>
      <point x="-24" y="740" type="line"/>
    </contour>
  </outline>
</glyph>
<glyph name="dvE" format="2">
  <advance width="651"/>
  <unicode hex="090F"/>
  <anchor x="396" y="740" name="abvm.e"/>
  <outline>
    <contour>
      <point x="342" y="19" type="curve" smooth="yes"/>
      <point x="485" y="19"/>
      <point x="575" y="103"/>
      <point x="575" y="247" type="curve"/>
      <point x="472" y="247" type="line"/>
      <point x="472" y="160"/>
      <point x="423" y="109"/>
      <point x="340" y="109" type="curve" smooth="yes"/>
      <point x="250" y="109"/>
      <point x="201" y="168"/>
      <point x="201" y="269" type="curve" smooth="yes"/>
      <point x="201" y="701" type="line"/>
      <point x="96" y="701" type="line"/>
      <point x="97" y="272" type="line" smooth="yes"/>
      <point x="97" y="122"/>
      <point x="175" y="19"/>
    </contour>
    <contour>
      <point x="356" y="343" type="line"/>
      <point x="514" y="325"/>
      <point x="571" y="398"/>
      <point x="571" y="547" type="curve" smooth="yes"/>
      <point x="571" y="701" type="line"/>
      <point x="469" y="701" type="line"/>
      <point x="469" y="550" type="line" smooth="yes"/>
      <point x="469" y="464"/>
      <point x="436" y="429"/>
      <point x="356" y="437" type="curve"/>
    </contour>
    <contour>
      <point x="-24" y="652" type="line"/>
      <point x="676" y="652" type="line"/>
      <point x="676" y="740" type="line"/>
      <point x="-24" y="740" type="line"/>
    </contour>
  </outline>
</glyph>
<glyph name="dvKA" format="2">
  <advance width="985"/>
  <unicode hex="0915"/>
  <anchor x="550" y="740" name="abvm.e"/>
  <anchor x="550" y="0" name="blwm.u"/>
  <anchor x="550" y="0" name="blwm.virama"/>
  <outline>
    <contour>
      <point x="449" y="0" type="line"/>
      <point x="550" y="0" type="line"/>
      <point x="550" y="652" type="line"/>
      <point x="1009" y="652" type="line"/>
      <point x="1009" y="740" type="line"/>
      <point x="-24" y="740" type="line"/>
      <point x="-24" y="652" type="line"/>
      <point x="449" y="652" type="line"/>
    </contour>
    <contour>
      <point x="276" y="88" type="curve" smooth="yes"/>
      <point x="412" y="88"/>
      <point x="477" y="187"/>
      <point x="472" y="291" type="curve"/>
      <point x="449" y="319" type="line"/>
      <point x="449" y="253"/>
      <point x="405" y="176"/>
      <point x="310" y="176" type="curve" smooth="yes"/>
      <point x="230" y="176"/>
      <point x="171" y="230"/>
      <point x="171" y="320" type="curve" smooth="yes"/>
      <point x="171" y="407"/>
      <point x="233" y="461"/>
      <point x="310" y="461" type="curve" smooth="yes"/>
      <point x="406" y="461"/>
      <point x="449" y="388"/>
      <point x="449" y="319" type="curve"/>
      <point x="473" y="348" type="line"/>
      <point x="478" y="449"/>
      <point x="417" y="551"/>
      <point x="280" y="551" type="curve" smooth="yes"/>
      <point x="152" y="551"/>
      <point x="65" y="460"/>
      <point x="65" y="321" type="curve" smooth="yes"/>
      <point x="65" y="180"/>
      <point x="150" y="88"/>
    </contour>
    <contour>
      <point x="713" y="94" type="curve" smooth="yes"/>
      <point x="832" y="94"/>
      <point x="921" y="178"/>
      <point x="921" y="323" type="curve" smooth="yes"/>
      <point x="921" y="455"/>
      <point x="838" y="551"/>
      <point x="714" y="551" type="curve" smooth="yes"/>
      <point x="585" y="551"/>
      <point x="525" y="453"/>
      <point x="527" y="354" type="curve"/>
      <point x="550" y="312" type="line"/>
      <point x="550" y="385"/>
      <point x="589" y="461"/>
      <point x="683" y="461" type="curve" smooth="yes"/>
      <point x="758" y="461"/>
      <point x="815" y="405"/>
      <point x="815" y="321" type="curve" smooth="yes"/>
      <point x="815" y="231"/>
      <point x="759" y="180"/>
      <point x="686" y="180" type="curve" smooth="yes"/>
      <point x="674" y="180"/>
      <point x="660" y="181"/>
      <point x="649" y="184" type="curve"/>
      <point x="649" y="101" type="line"/>
      <point x="669" y="96"/>
      <point x="690" y="94"/>
    </contour>
  </outline>
</glyph>
<glyph name="dvGA" format="2">
  <advance width="765"/>
  <unicode hex="0917"/>
  <outline>
    <contour>
      <point x="563" y="0" type="line"/>
      <point x="667" y="0" type="line"/>
      <point x="667" y="652" type="line"/>
      <point x="789" y="652" type="line"/>
      <point x="789" y="740" type="line"/>
      <point x="-24" y="740" type="line"/>
      <point x="-24" y="652" type="line"/>
      <point x="563" y="652" type="line"/>
    </contour>
    <contour>
      <point x="224" y="208" type="curve" smooth="yes"/>
      <point x="349" y="208"/>
      <point x="400" y="292"/>
      <point x="400" y="395" type="curve" smooth="yes"/>
      <point x="400" y="680" type="line"/>
      <point x="295" y="666" type="line"/>
      <point x="295" y="391" type="line" smooth="yes"/>
      <point x="295" y="346"/>
      <point x="281" y="298"/>
      <point x="221" y="298" type="curve" smooth="yes"/>
      <point x="165" y="298"/>
      <point x="147" y="343"/>
      <point x="147" y="389" type="curve" smooth="yes"/>
      <point x="147" y="420" type="line"/>
      <point x="45" y="420" type="line"/>
      <point x="44" y="410"/>
      <point x="44" y="399"/>
      <point x="44" y="389" type="curve" smooth="yes"/>
      <point x="44" y="280"/>
      <point x="106" y="208"/>
    </contour>
  </outline>
</glyph>
<glyph name="dvGHA" format="2">
  <advance width="706"/>
  <unicode hex="0918"/>
  <outline>
    <contour>
      <point x="299" y="102" type="curve" smooth="yes"/>
      <point x="428" y="102"/>
      <point x="524" y="181"/>
      <point x="538" y="304" type="curve"/>
      <point x="504" y="359" type="line"/>
      <point x="504" y="257"/>
      <point x="424" y="188"/>
      <point x="323" y="188" type="curve" smooth="yes"/>
      <point x="244" y="188"/>
      <point x="184" y="223"/>
      <point x="184" y="295" type="curve" smooth="yes"/>
      <point x="184" y="351"/>
      <point x="222" y="395"/>
      <point x="313" y="395" type="curve" smooth="yes"/>
      <point x="366" y="395" type="line"/>
      <point x="366" y="480" type="line"/>
      <point x="321" y="480" type="line" smooth="yes"/>
      <point x="232" y="480"/>
      <point x="198" y="520"/>
      <point x="198" y="589" type="curve" smooth="yes"/>
      <point x="198" y="692" type="line"/>
      <point x="93" y="692" type="line"/>
      <point x="93" y="584" type="line" smooth="yes"/>
      <point x="93" y="491"/>
      <point x="142" y="449"/>
      <point x="203" y="437" type="curve"/>
      <point x="203" y="435" type="line"/>
      <point x="138" y="422"/>
      <point x="78" y="370"/>
      <point x="78" y="285" type="curve" smooth="yes"/>
      <point x="78" y="164"/>
      <point x="174" y="102"/>
    </contour>
    <contour>
      <point x="504" y="0" type="line"/>
      <point x="610" y="0" type="line"/>
      <point x="610" y="667" type="line"/>
      <point x="504" y="667" type="line"/>
    </contour>
    <contour>
      <point x="-24" y="652" type="line"/>
      <point x="731" y="652" type="line"/>
      <point x="731" y="740" type="line"/>
      <point x="-24" y="740" type="line"/>
    </contour>
  </outline>
</glyph>
<glyph name="dvCA" format="2">
  <advance width="740"/>
  <unicode hex="091A"/>
  <outline>
    <contour>
      <point x="-24" y="652" type="line"/>
      <point x="764" y="652" type="line"/>
      <point x="764" y="740" type="line"/>
      <point x="-24" y="740" type="line"/>
    </contour>
    <contour>
      <point x="350" y="95" type="curve" smooth="yes"/>
      <point x="478" y="95"/>
      <point x="571" y="183"/>
      <point x="569" y="311" type="curve"/>
      <point x="537" y="355" type="line"/>
      <point x="537" y="258"/>
      <point x="475" y="183"/>
      <point x="380" y="182" type="curve" smooth="yes"/>
      <point x="303" y="182"/>
      <point x="239" y="227"/>
      <point x="239" y="309" type="curve" smooth="yes"/>
      <point x="239" y="385"/>
      <point x="294" y="440"/>
      <point x="378" y="440" type="curve"/>
      <point x="346" y="475" type="line"/>
      <point x="219" y="475"/>
      <point x="140" y="400"/>
      <point x="140" y="292" type="curve" smooth="yes"/>
      <point x="140" y="167"/>
      <point x="234" y="95"/>
    </contour>
    <contour>
      <point x="50" y="440" type="line"/>
      <point x="415" y="440" type="line"/>
      <point x="415" y="523" type="line"/>
      <point x="50" y="523" type="line"/>
    </contour>
    <contour>
      <point x="537" y="0" type="line"/>
      <point x="642" y="0" type="line"/>
      <point x="642" y="670" type="line"/>
      <point x="537" y="670" type="line"/>
    </contour>
  </outline>
</glyph>
<glyph name="dvCHA" format="2">
  <advance width="818"/>
  <unicode hex="091B"/>
  <anchor x="633" y="740" name="abvm.e"/>
  <anchor x="468" y="-70" name="blwm.u"/>
  <anchor x="462" y="25" name="blwm.virama"/>
  <outline>
    <contour>
      <point x="399" y="25" type="curve" smooth="yes"/>
      <point x="627" y="25"/>
      <point x="774" y="144"/>
      <point x="774" y="337" type="curve" smooth="yes"/>
      <point x="774" y="475"/>
      <point x="691" y="547"/>
      <point x="585" y="547" type="curve" smooth="yes"/>
      <point x="492" y="547"/>
      <point x="403" y="499"/>
      <point x="403" y="375" type="curve" smooth="yes"/>
      <point x="403" y="340"/>
      <point x="409" y="306"/>
      <point x="420" y="276" type="curve"/>
      <point x="507" y="276" type="line"/>
      <point x="497" y="306"/>
      <point x="491" y="337"/>
      <point x="491" y="364" type="curve" smooth="yes"/>
      <point x="491" y="439"/>
      <point x="539" y="469"/>
      <point x="584" y="469" type="curve" smooth="yes"/>
      <point x="634" y="469"/>
      <point x="681" y="425"/>
      <point x="681" y="341" type="curve" smooth="yes"/>
      <point x="681" y="198"/>
      <point x="569" y="115"/>
      <point x="400" y="115" type="curve" smooth="yes"/>
      <point x="258" y="115"/>
      <point x="176" y="164"/>
      <point x="176" y="255" type="curve" smooth="yes"/>
      <point x="176" y="316"/>
      <point x="217" y="367"/>
      <point x="314" y="367" type="curve" smooth="yes"/>
      <point x="333" y="367" type="line"/>
      <point x="333" y="452" type="line"/>
      <point x="312" y="452" type="line" smooth="yes"/>
      <point x="228" y="452"/>
      <point x="195" y="492"/>
      <point x="195" y="561" type="curve" smooth="yes"/>
      <point x="195" y="682" type="line"/>
      <point x="91" y="682" type="line"/>
      <point x="91" y="557" type="line" smooth="yes"/>
      <point x="91" y="464"/>
      <point x="140" y="421"/>
      <point x="200" y="410" type="curve"/>
      <point x="200" y="407" type="line"/>
      <point x="126" y="390"/>
      <point x="70" y="336"/>
      <point x="70" y="245" type="curve" smooth="yes"/>
      <point x="70" y="99"/>
      <point x="205" y="25"/>
    </contour>
    <contour>
      <point x="-24" y="652" type="line"/>
      <point x="843" y="652" type="line"/>
      <point x="843" y="740" type="line"/>
      <point x="-24" y="740" type="line"/>
    </contour>
    <contour>
      <point x="536" y="492" type="line"/>
      <point x="633" y="492" type="line"/>
      <point x="633" y="675" type="line"/>
      <point x="536" y="675" type="line"/>
    </contour>
  </outline>
</glyph>
<glyph name="dvNYA" format="2">
  <advance width="817"/>
  <unicode hex="091E"/>
  <outline>
    <contour>
      <point x="289" y="79" type="curve" smooth="yes"/>
      <point x="435" y="79"/>
      <point x="519" y="181"/>
      <point x="519" y="316" type="curve" smooth="yes"/>
      <point x="519" y="450"/>
      <point x="435" y="552"/>
      <point x="289" y="552" type="curve" smooth="yes"/>
      <point x="156" y="552"/>
      <point x="76" y="473"/>
      <point x="65" y="372" type="curve"/>
      <point x="164" y="372" type="line"/>
      <point x="176" y="418"/>
      <point x="217" y="463"/>
      <point x="290" y="463" type="curve" smooth="yes"/>
      <point x="379" y="463"/>
      <point x="424" y="394"/>
      <point x="424" y="316" type="curve" smooth="yes"/>
      <point x="424" y="236"/>
      <point x="379" y="168"/>
      <point x="290" y="168" type="curve" smooth="yes"/>
      <point x="219" y="168"/>
      <point x="177" y="211"/>
      <point x="164" y="259" type="curve"/>
      <point x="65" y="259" type="line"/>
      <point x="77" y="159"/>
      <point x="157" y="79"/>
    </contour>
    <contour>
      <point x="480" y="276" type="line"/>
      <point x="670" y="276" type="line"/>
      <point x="670" y="365" type="line"/>
      <point x="480" y="365" type="line"/>
    </contour>
    <contour>
      <point x="614" y="0" type="line"/>
      <point x="719" y="0" type="line"/>
      <point x="719" y="675" type="line"/>
      <point x="614" y="675" type="line"/>
    </contour>
    <contour>
      <point x="-24" y="652" type="line"/>
      <point x="841" y="652" type="line"/>
      <point x="841" y="740" type="line"/>
      <point x="-24" y="740" type="line"/>
    </contour>
  </outline>
</glyph>
<glyph name="dvTTA" format="2">
  <advance width="648"/>
  <unicode hex="091F"/>
  <anchor x="471" y="740" name="abvm.e"/>
  <anchor x="402" y="-58" name="blwm.u"/>
  <anchor x="396" y="36" name="blwm.virama"/>
  <outline>
    <contour>
      <point x="340" y="36" type="curve" smooth="yes"/>
      <point x="502" y="36"/>
      <point x="608" y="141"/>
      <point x="608" y="297" type="curve"/>
      <point x="508" y="297" type="line"/>
      <point x="508" y="197"/>
      <point x="440" y="127"/>
      <point x="338" y="127" type="curve" smooth="yes"/>
      <point x="239" y="127"/>
      <point x="170" y="194"/>
      <point x="170" y="289" type="curve" smooth="yes"/>
      <point x="170" y="404"/>
      <point x="254" y="459"/>
      <point x="360" y="459" type="curve" smooth="yes"/>
      <point x="472" y="459" type="line"/>
      <point x="472" y="668" type="line"/>
      <point x="369" y="668" type="line"/>
      <point x="369" y="498" type="line"/>
      <point x="428" y="548" type="line"/>
      <point x="354" y="548" type="line" smooth="yes"/>
      <point x="181" y="548"/>
      <point x="65" y="454"/>
      <point x="65" y="289" type="curve" smooth="yes"/>
      <point x="65" y="138"/>
      <point x="180" y="36"/>
    </contour>
    <contour>
      <point x="-24" y="652" type="line"/>
      <point x="673" y="652" type="line"/>
      <point x="673" y="740" type="line"/>
      <point x="-24" y="740" type="line"/>
    </contour>
  </outline>
</glyph>
<glyph name="dvTTHA" format="2">
  <advance width="674"/>
  <unicode hex="0920"/>
  <anchor x="390" y="740" name="abvm.e"/>
  <anchor x="398" y="-52" name="blwm.u"/>
  <anchor x="392" y="42" name="blwm.virama"/>
  <outline>
    <contour>
      <point x="337" y="42" type="curve" smooth="yes"/>
      <point x="492" y="42"/>
      <point x="610" y="141"/>
      <point x="610" y="295" type="curve" smooth="yes"/>
      <point x="610" y="455"/>
      <point x="484" y="547"/>
      <point x="337" y="547" type="curve" smooth="yes"/>
      <point x="191" y="547"/>
      <point x="65" y="455"/>
      <point x="65" y="295" type="curve" smooth="yes"/>
      <point x="65" y="141"/>
      <point x="183" y="42"/>
    </contour>
    <contour>
      <point x="337" y="130" type="curve" smooth="yes"/>
      <point x="239" y="130"/>
      <point x="169" y="199"/>
      <point x="169" y="295" type="curve" smooth="yes"/>
      <point x="169" y="391"/>
      <point x="239" y="458"/>
      <point x="337" y="458" type="curve" smooth="yes"/>
      <point x="437" y="458"/>
      <point x="506" y="391"/>
      <point x="506" y="295" type="curve" smooth="yes"/>
      <point x="506" y="199"/>
      <point x="437" y="130"/>
    </contour>
    <contour>
      <point x="284" y="529" type="line"/>
      <point x="388" y="529" type="line"/>
      <point x="388" y="652" type="line"/>
      <point x="698" y="652" type="line"/>
      <point x="698" y="740" type="line"/>
      <point x="-24" y="740" type="line"/>
      <point x="-24" y="652" type="line"/>
      <point x="284" y="652" type="line"/>
    </contour>
  </outline>
</glyph>
<glyph name="dvDDA" format="2">
  <advance width="571"/>
  <unicode hex="0921"/>
  <anchor x="464" y="740" name="abvm.e"/>
  <anchor x="376" y="-111" name="blwm.u"/>
  <anchor x="370" y="-16" name="blwm.virama"/>
  <outline>
    <contour>
      <point x="313" y="-16" type="curve" smooth="yes"/>
      <point x="454" y="-16"/>
      <point x="528" y="54"/>
      <point x="528" y="155" type="curve" smooth="yes"/>
      <point x="528" y="284"/>
      <point x="424" y="326"/>
      <point x="323" y="326" type="curve" smooth="yes"/>
      <point x="307" y="326"/>
      <point x="291" y="326"/>
      <point x="278" y="326" type="curve" smooth="yes"/>
      <point x="229" y="326"/>
      <point x="185" y="344"/>
      <point x="185" y="398" type="curve" smooth="yes"/>
      <point x="185" y="457"/>
      <point x="241" y="470"/>
      <point x="290" y="470" type="curve" smooth="yes"/>
      <point x="464" y="470" type="line"/>
      <point x="464" y="545" type="line"/>
      <point x="261" y="545" type="line" smooth="yes"/>
      <point x="168" y="545"/>
      <point x="80" y="506"/>
      <point x="80" y="401" type="curve" smooth="yes"/>
      <point x="80" y="281"/>
      <point x="183" y="251"/>
      <point x="265" y="251" type="curve" smooth="yes"/>
      <point x="277" y="251"/>
      <point x="291" y="251"/>
      <point x="304" y="251" type="curve" smooth="yes"/>
      <point x="370" y="251"/>
      <point x="429" y="228"/>
      <point x="429" y="156" type="curve" smooth="yes"/>
      <point x="429" y="103"/>
      <point x="389" y="64"/>
      <point x="310" y="64" type="curve" smooth="yes"/>
      <point x="221" y="64"/>
      <point x="170" y="110"/>
      <point x="169" y="177" type="curve"/>
      <point x="65" y="177" type="line"/>
      <point x="68" y="59"/>
      <point x="165" y="-16"/>
    </contour>
    <contour>
      <point x="-24" y="652" type="line"/>
      <point x="595" y="652" type="line"/>
      <point x="595" y="740" type="line"/>
      <point x="-24" y="740" type="line"/>
    </contour>
    <contour>
      <point x="363" y="520" type="line"/>
      <point x="464" y="520" type="line"/>
      <point x="464" y="726" type="line"/>
      <point x="363" y="726" type="line"/>
    </contour>
  </outline>
</glyph>
<glyph name="dvDDHA" format="2">
  <advance width="644"/>
  <unicode hex="0922"/>
  <anchor x="489" y="740" name="abvm.e"/>
  <anchor x="432" y="-91" name="blwm.u"/>
  <anchor x="426" y="3" name="blwm.virama"/>
  <outline>
    <contour>
      <point x="372" y="3" type="curve" smooth="yes"/>
      <point x="527" y="3"/>
      <point x="620" y="81"/>
      <point x="620" y="201" type="curve" smooth="yes"/>
      <point x="620" y="298"/>
      <point x="554" y="366"/>
      <point x="447" y="366" type="curve" smooth="yes"/>
      <point x="356" y="366"/>
      <point x="287" y="316"/>
      <point x="287" y="228" type="curve" smooth="yes"/>
      <point x="287" y="218"/>
      <point x="288" y="206"/>
      <point x="290" y="195" type="curve"/>
      <point x="367" y="195" type="line"/>
      <point x="365" y="200"/>
      <point x="364" y="208"/>
      <point x="364" y="214" type="curve" smooth="yes"/>
      <point x="364" y="260"/>
      <point x="400" y="290"/>
      <point x="443" y="290" type="curve" smooth="yes"/>
      <point x="494" y="290"/>
      <point x="530" y="253"/>
      <point x="530" y="201" type="curve" smooth="yes"/>
      <point x="530" y="127"/>
      <point x="463" y="80"/>
      <point x="374" y="80" type="curve" smooth="yes"/>
      <point x="244" y="80"/>
      <point x="166" y="163"/>
      <point x="166" y="277" type="curve" smooth="yes"/>
      <point x="166" y="413"/>
      <point x="263" y="479"/>
      <point x="390" y="479" type="curve" smooth="yes"/>
      <point x="491" y="479" type="line"/>
      <point x="491" y="668" type="line"/>
      <point x="392" y="668" type="line"/>
      <point x="392" y="502" type="line"/>
      <point x="456" y="553" type="line"/>
      <point x="358" y="553" type="line" smooth="yes"/>
      <point x="192" y="553"/>
      <point x="65" y="461"/>
      <point x="65" y="280" type="curve" smooth="yes"/>
      <point x="65" y="108"/>
      <point x="198" y="3"/>
    </contour>
    <contour>
      <point x="-24" y="652" type="line"/>
      <point x="669" y="652" type="line"/>
      <point x="669" y="740" type="line"/>
      <point x="-24" y="740" type="line"/>
    </contour>
  </outline>
</glyph>
<glyph name="dvNNA" format="2">
  <advance width="867"/>
  <unicode hex="0923"/>
  <outline>
    <contour>
      <point x="287" y="172" type="curve" smooth="yes"/>
      <point x="419" y="172"/>
      <point x="487" y="259"/>
      <point x="487" y="378" type="curve" smooth="yes"/>
      <point x="487" y="686" type="line"/>
      <point x="384" y="686" type="line"/>
      <point x="384" y="368" type="line" smooth="yes"/>
      <point x="384" y="305"/>
      <point x="349" y="261"/>
      <point x="288" y="261" type="curve" smooth="yes"/>
      <point x="228" y="261"/>
      <point x="191" y="305"/>
      <point x="191" y="368" type="curve" smooth="yes"/>
      <point x="191" y="686" type="line"/>
      <point x="88" y="686" type="line"/>
      <point x="88" y="378" type="line" smooth="yes"/>
      <point x="88" y="262"/>
      <point x="156" y="172"/>
    </contour>
    <contour>
      <point x="664" y="0" type="line"/>
      <point x="769" y="0" type="line"/>
      <point x="769" y="686" type="line"/>
      <point x="664" y="686" type="line"/>
    </contour>
    <contour>
      <point x="-24" y="652" type="line"/>
      <point x="891" y="652" type="line"/>
      <point x="891" y="740" type="line"/>
      <point x="-24" y="740" type="line"/>
    </contour>
  </outline>
</glyph>
<glyph name="dvTA" format="2">
  <advance width="697"/>
  <unicode hex="0924"/>
  <outline>
    <contour>
      <point x="512" y="406" type="line"/>
      <point x="512" y="496" type="line"/>
      <point x="350" y="496" type="line" smooth="yes"/>
      <point x="188" y="496"/>
      <point x="65" y="421"/>
      <point x="65" y="248" type="curve" smooth="yes"/>
      <point x="65" y="81"/>
      <point x="174" y="2"/>
      <point x="325" y="2" type="curve" smooth="yes"/>
      <point x="361" y="2" type="line"/>
      <point x="361" y="85" type="line"/>
      <point x="340" y="85" type="line"/>
      <point x="229" y="85"/>
      <point x="171" y="146"/>
      <point x="171" y="246" type="curve" smooth="yes"/>
      <point x="171" y="353"/>
      <point x="244" y="406"/>
      <point x="355" y="406" type="curve" smooth="yes"/>
    </contour>
    <contour>
      <point x="-24" y="652" type="line"/>
      <point x="722" y="652" type="line"/>
      <point x="722" y="740" type="line"/>
      <point x="-24" y="740" type="line"/>
    </contour>
    <contour>
      <point x="600" y="675" type="line"/>
      <point x="495" y="675" type="line"/>
      <point x="495" y="0" type="line"/>
      <point x="600" y="0" type="line"/>
    </contour>
  </outline>
</glyph>
<glyph name="dvDA" format="2">
  <advance width="609"/>
  <unicode hex="0926"/>
  <anchor x="498" y="740" name="abvm.e"/>
  <anchor x="536" y="-21" name="blwm.u"/>
  <anchor x="536" y="-21" name="blwm.virama"/>
  <outline>
    <contour>
      <point x="433" y="-21" type="line"/>
      <point x="536" y="-21" type="line"/>
      <point x="536" y="296" type="line"/>
      <point x="439" y="296" type="line"/>
      <point x="439" y="211"/>
      <point x="373" y="173"/>
      <point x="312" y="173" type="curve" smooth="yes"/>
      <point x="226" y="173"/>
      <point x="172" y="228"/>
      <point x="172" y="313" type="curve" smooth="yes"/>
      <point x="172" y="410"/>
      <point x="246" y="461"/>
      <point x="341" y="461" type="curve" smooth="yes"/>
      <point x="498" y="461" type="line"/>
      <point x="498" y="670" type="line"/>
      <point x="393" y="670" type="line"/>
      <point x="393" y="551" type="line"/>
      <point x="331" y="551" type="line" smooth="yes"/>
      <point x="182" y="551"/>
      <point x="65" y="472"/>
      <point x="65" y="316" type="curve" smooth="yes"/>
      <point x="65" y="169"/>
      <point x="160" y="89"/>
      <point x="283" y="89" type="curve" smooth="yes"/>
      <point x="368" y="89"/>
      <point x="434" y="132"/>
      <point x="451" y="197" type="curve"/>
      <point x="433" y="205" type="line"/>
    </contour>
    <contour>
      <point x="-24" y="652" type="line"/>
      <point x="633" y="652" type="line"/>
      <point x="634" y="740" type="line"/>
      <point x="-24" y="740" type="line"/>
    </contour>
  </outline>
</glyph>
<glyph name="dvDHA" format="2">
  <advance width="717"/>
  <unicode hex="0927"/>
  <outline>
    <contour>
      <point x="303" y="92" type="curve" smooth="yes"/>
      <point x="444" y="92"/>
      <point x="539" y="175"/>
      <point x="552" y="300" type="curve"/>
      <point x="521" y="374" type="line"/>
      <point x="521" y="258"/>
      <point x="440" y="179"/>
      <point x="328" y="179" type="curve" smooth="yes"/>
      <point x="249" y="179"/>
      <point x="190" y="211"/>
      <point x="190" y="279" type="curve" smooth="yes"/>
      <point x="190" y="336"/>
      <point x="233" y="374"/>
      <point x="315" y="374" type="curve" smooth="yes"/>
      <point x="369" y="374" type="line"/>
      <point x="369" y="459" type="line"/>
      <point x="311" y="459" type="line" smooth="yes"/>
      <point x="228" y="459"/>
      <point x="166" y="497"/>
      <point x="166" y="570" type="curve" smooth="yes"/>
      <point x="166" y="621"/>
      <point x="199" y="661"/>
      <point x="255" y="661" type="curve" smooth="yes"/>
      <point x="311" y="661"/>
      <point x="342" y="623"/>
      <point x="342" y="575" type="curve" smooth="yes"/>
      <point x="342" y="570"/>
      <point x="342" y="564"/>
      <point x="341" y="552" type="curve"/>
      <point x="420" y="552" type="line"/>
      <point x="421" y="563"/>
      <point x="422" y="578"/>
      <point x="422" y="587" type="curve" smooth="yes"/>
      <point x="422" y="681"/>
      <point x="360" y="749"/>
      <point x="252" y="749" type="curve" smooth="yes"/>
      <point x="149" y="749"/>
      <point x="76" y="681"/>
      <point x="76" y="581" type="curve" smooth="yes"/>
      <point x="76" y="484"/>
      <point x="139" y="432"/>
      <point x="203" y="416" type="curve"/>
      <point x="203" y="413" type="line"/>
      <point x="146" y="403"/>
      <point x="83" y="356"/>
      <point x="83" y="268" type="curve" smooth="yes"/>
      <point x="83" y="152"/>
      <point x="181" y="92"/>
    </contour>
    <contour>
      <point x="521" y="0" type="line"/>
      <point x="626" y="0" type="line"/>
      <point x="626" y="669" type="line"/>
      <point x="521" y="669" type="line"/>
    </contour>
    <contour>
      <point x="521" y="652" type="line"/>
      <point x="746" y="652" type="line"/>
      <point x="746" y="740" type="line"/>
      <point x="521" y="740" type="line"/>
    </contour>
  </outline>
</glyph>
<glyph name="dvPA" format="2">
  <advance width="661"/>
  <unicode hex="092A"/>
  <outline>
    <contour>
      <point x="297" y="186" type="curve" smooth="yes"/>
      <point x="425" y="186"/>
      <point x="492" y="270"/>
      <point x="495" y="384" type="curve"/>
      <point x="459" y="419" type="line"/>
      <point x="459" y="341"/>
      <point x="411" y="275"/>
      <point x="323" y="275" type="curve" smooth="yes"/>
      <point x="227" y="275"/>
      <point x="185" y="339"/>
      <point x="185" y="437" type="curve" smooth="yes"/>
      <point x="185" y="664" type="line"/>
      <point x="80" y="664" type="line"/>
      <point x="80" y="437" type="line" smooth="yes"/>
      <point x="80" y="289"/>
      <point x="152" y="186"/>
    </contour>
    <contour>
      <point x="459" y="0" type="line"/>
      <point x="563" y="0" type="line"/>
      <point x="563" y="659" type="line"/>
      <point x="459" y="659" type="line"/>
    </contour>
    <contour>
      <point x="-24" y="652" type="line"/>
      <point x="685" y="652" type="line"/>
      <point x="685" y="740" type="line"/>
      <point x="-24" y="740" type="line"/>
    </contour>
  </outline>
</glyph>
<glyph name="dvPHA" format="2">
  <advance width="985"/>
  <unicode hex="092B"/>
  <anchor x="545" y="740" name="abvm.e"/>
  <anchor x="545" y="0" name="blwm.u"/>
  <anchor x="545" y="0" name="blwm.virama"/>
  <outline>
    <contour>
      <point x="288" y="186" type="curve" smooth="yes"/>
      <point x="409" y="186"/>
      <point x="473" y="270"/>
      <point x="476" y="384" type="curve"/>
      <point x="440" y="414" type="line"/>
      <point x="440" y="339"/>
      <point x="396" y="275"/>
      <point x="313" y="275" type="curve" smooth="yes"/>
      <point x="225" y="275"/>
      <point x="185" y="337"/>
      <point x="185" y="432" type="curve" smooth="yes"/>
      <point x="185" y="664" type="line"/>
      <point x="80" y="664" type="line"/>
      <point x="80" y="432" type="line" smooth="yes"/>
      <point x="80" y="286"/>
      <point x="150" y="186"/>
    </contour>
    <contour>
      <point x="440" y="0" type="line"/>
      <point x="545" y="0" type="line"/>
      <point x="545" y="659" type="line"/>
      <point x="440" y="659" type="line"/>
    </contour>
    <contour>
      <point x="713" y="94" type="curve" smooth="yes"/>
      <point x="833" y="94"/>
      <point x="921" y="179"/>
      <point x="921" y="326" type="curve" smooth="yes"/>
      <point x="921" y="457"/>
      <point x="837" y="551"/>
      <point x="715" y="551" type="curve" smooth="yes"/>
      <point x="582" y="551"/>
      <point x="519" y="453"/>
      <point x="521" y="354" type="curve"/>
      <point x="545" y="301" type="line"/>
      <point x="545" y="382"/>
      <point x="586" y="461"/>
      <point x="683" y="461" type="curve" smooth="yes"/>
      <point x="759" y="461"/>
      <point x="815" y="405"/>
      <point x="815" y="321" type="curve" smooth="yes"/>
      <point x="815" y="233"/>
      <point x="761" y="179"/>
      <point x="687" y="179" type="curve" smooth="yes"/>
      <point x="673" y="179"/>
      <point x="658" y="181"/>
      <point x="646" y="184" type="curve"/>
      <point x="646" y="102" type="line"/>
      <point x="665" y="97"/>
      <point x="690" y="94"/>
    </contour>
    <contour>
      <point x="-24" y="652" type="line"/>
      <point x="1009" y="652" type="line"/>
      <point x="1009" y="740" type="line"/>
      <point x="-24" y="740" type="line"/>
    </contour>
  </outline>
</glyph>
<glyph name="dvBA" format="2">
  <advance width="688"/>
  <unicode hex="092C"/>
  <outline>
    <contour>
      <point x="490" y="0" type="line"/>
      <point x="591" y="0" type="line"/>
      <point x="591" y="652" type="line"/>
      <point x="712" y="652" type="line"/>
      <point x="712" y="740" type="line"/>
      <point x="-24" y="740" type="line"/>
      <point x="-24" y="652" type="line"/>
      <point x="490" y="652" type="line"/>
      <point x="490" y="429" type="line"/>
      <point x="519" y="398" type="line"/>
      <point x="503" y="479"/>
      <point x="430" y="561"/>
      <point x="306" y="561" type="curve" smooth="yes"/>
      <point x="169" y="561"/>
      <point x="65" y="466"/>
      <point x="65" y="322" type="curve" smooth="yes"/>
      <point x="65" y="177"/>
      <point x="172" y="82"/>
      <point x="308" y="82" type="curve" smooth="yes"/>
      <point x="424" y="82"/>
      <point x="497" y="151"/>
      <point x="511" y="232" type="curve"/>
      <point x="490" y="227" type="line"/>
    </contour>
    <contour>
      <point x="328" y="158" type="curve" smooth="yes"/>
      <point x="236" y="158"/>
      <point x="157" y="219"/>
      <point x="157" y="322" type="curve" smooth="yes"/>
      <point x="157" y="425"/>
      <point x="233" y="491"/>
      <point x="327" y="491" type="curve" smooth="yes"/>
      <point x="438" y="491"/>
      <point x="495" y="407"/>
      <point x="495" y="324" type="curve" smooth="yes"/>
      <point x="495" y="245"/>
      <point x="441" y="158"/>
    </contour>
    <contour>
      <point x="472" y="173" type="line"/>
      <point x="501" y="209" type="line"/>
      <point x="182" y="478" type="line"/>
      <point x="148" y="444" type="line"/>
    </contour>
  </outline>
</glyph>
<glyph name="dvMA" format="2">
  <advance width="802"/>
  <unicode hex="092E"/>
  <outline>
    <contour>
      <point x="240" y="89" type="curve" smooth="yes"/>
      <point x="364" y="89"/>
      <point x="432" y="167"/>
      <point x="432" y="302" type="curve" smooth="yes"/>
      <point x="432" y="688" type="line"/>
      <point x="334" y="688" type="line"/>
      <point x="334" y="297" type="line" smooth="yes"/>
      <point x="334" y="223"/>
      <point x="299" y="178"/>
      <point x="239" y="178" type="curve" smooth="yes"/>
      <point x="184" y="178"/>
      <point x="143" y="215"/>
      <point x="143" y="274" type="curve" smooth="yes"/>
      <point x="143" y="335"/>
      <point x="188" y="371"/>
      <point x="251" y="371" type="curve" smooth="yes"/>
      <point x="657" y="371" type="line"/>
      <point x="657" y="457" type="line"/>
      <point x="248" y="457" type="line" smooth="yes"/>
      <point x="134" y="457"/>
      <point x="46" y="394"/>
      <point x="46" y="274" type="curve" smooth="yes"/>
      <point x="46" y="163"/>
      <point x="123" y="89"/>
    </contour>
    <contour>
      <point x="599" y="0" type="line"/>
      <point x="704" y="0" type="line"/>
      <point x="704" y="725" type="line"/>
      <point x="599" y="725" type="line"/>
    </contour>
    <contour>
      <point x="-24" y="652" type="line"/>
      <point x="826" y="652" type="line"/>
      <point x="826" y="740" type="line"/>
      <point x="-24" y="740" type="line"/>
    </contour>
  </outline>
</glyph>
<glyph name="dvYA" format="2">
  <advance width="743"/>
  <unicode hex="092F"/>
  <outline>
    <contour>
      <point x="331" y="103" type="curve" smooth="yes"/>
      <point x="483" y="103"/>
      <point x="564" y="195"/>
      <point x="574" y="293" type="curve"/>
      <point x="540" y="371" type="line"/>
      <point x="540" y="265"/>
      <point x="461" y="191"/>
      <point x="353" y="191" type="curve" smooth="yes"/>
      <point x="235" y="191"/>
      <point x="168" y="264"/>
      <point x="168" y="375" type="curve" smooth="yes"/>
      <point x="168" y="384"/>
      <point x="169" y="395"/>
      <point x="171" y="408" type="curve"/>
      <point x="119" y="378" type="line"/>
      <point x="145" y="378" type="line" smooth="yes"/>
      <point x="284" y="378"/>
      <point x="355" y="443"/>
      <point x="355" y="572" type="curve" smooth="yes"/>
      <point x="355" y="671" type="line"/>
      <point x="251" y="671" type="line"/>
      <point x="251" y="590" type="line" smooth="yes"/>
      <point x="251" y="480"/>
      <point x="194" y="436"/>
      <point x="81" y="436" type="curve" smooth="yes"/>
      <point x="68" y="436" type="line"/>
      <point x="66" y="419"/>
      <point x="65" y="401"/>
      <point x="65" y="385" type="curve" smooth="yes"/>
      <point x="65" y="214"/>
      <point x="160" y="103"/>
    </contour>
    <contour>
      <point x="540" y="0" type="line"/>
      <point x="645" y="0" type="line"/>
      <point x="645" y="669" type="line"/>
      <point x="540" y="669" type="line"/>
    </contour>
    <contour>
      <point x="-24" y="652" type="line"/>
      <point x="767" y="652" type="line"/>
      <point x="767" y="740" type="line"/>
      <point x="-24" y="740" type="line"/>
    </contour>
  </outline>
</glyph>
<glyph name="dvRA" format="2">
  <advance width="533"/>
  <unicode hex="0930"/>
  <anchor x="448" y="740" name="abvm.e"/>
  <outline>
    <contour>
      <point x="281" y="-9" type="curve" smooth="yes"/>
      <point x="405" y="-9"/>
      <point x="478" y="72"/>
      <point x="478" y="196" type="curve" smooth="yes"/>
      <point x="478" y="200"/>
      <point x="478" y="207"/>
      <point x="478" y="215" type="curve"/>
      <point x="377" y="215" type="line"/>
      <point x="377" y="193" type="line" smooth="yes"/>
      <point x="377" y="126"/>
      <point x="340" y="81"/>
      <point x="279" y="81" type="curve" smooth="yes"/>
      <point x="211" y="81"/>
      <point x="180" y="132"/>
      <point x="180" y="202" type="curve" smooth="yes"/>
      <point x="180" y="378" type="line"/>
      <point x="129" y="327" type="line"/>
      <point x="218" y="327" type="line" smooth="yes"/>
      <point x="381" y="327"/>
      <point x="448" y="421"/>
      <point x="448" y="569" type="curve" smooth="yes"/>
      <point x="448" y="668" type="line"/>
      <point x="344" y="668" type="line"/>
      <point x="344" y="569" type="line" smooth="yes"/>
      <point x="344" y="467"/>
      <point x="293" y="413"/>
      <point x="181" y="413" type="curve" smooth="yes"/>
      <point x="77" y="413" type="line"/>
      <point x="77" y="207" type="line" smooth="yes"/>
      <point x="77" y="83"/>
      <point x="145" y="-9"/>
    </contour>
    <contour>
      <point x="-24" y="652" type="line"/>
      <point x="558" y="652" type="line"/>
      <point x="558" y="740" type="line"/>
      <point x="-24" y="740" type="line"/>
    </contour>
  </outline>
</glyph>
<glyph name="dvLLA" format="2">
  <advance width="986"/>
  <unicode hex="0933"/>
  <anchor x="761" y="740" name="abvm.e"/>
  <anchor x="760" y="-9" name="blwm.u"/>
  <anchor x="752" y="83" name="blwm.virama"/>
  <outline>
    <contour>
      <point x="291" y="83" type="curve" smooth="yes"/>
      <point x="390" y="83"/>
      <point x="464" y="138"/>
      <point x="491" y="216" type="curve"/>
      <point x="495" y="216" type="line"/>
      <point x="523" y="138"/>
      <point x="597" y="83"/>
      <point x="696" y="83" type="curve" smooth="yes"/>
      <point x="823" y="83"/>
      <point x="922" y="173"/>
      <point x="922" y="310" type="curve" smooth="yes"/>
      <point x="922" y="450"/>
      <point x="822" y="540"/>
      <point x="696" y="540" type="curve" smooth="yes"/>
      <point x="599" y="540"/>
      <point x="530" y="488"/>
      <point x="495" y="409" type="curve"/>
      <point x="492" y="409" type="line"/>
      <point x="456" y="488"/>
      <point x="388" y="540"/>
      <point x="290" y="540" type="curve" smooth="yes"/>
      <point x="164" y="540"/>
      <point x="65" y="450"/>
      <point x="65" y="310" type="curve" smooth="yes"/>
      <point x="65" y="173"/>
      <point x="164" y="83"/>
    </contour>
    <contour>
      <point x="305" y="173" type="curve" smooth="yes"/>
      <point x="226" y="173"/>
      <point x="167" y="227"/>
      <point x="167" y="309" type="curve" smooth="yes"/>
      <point x="167" y="394"/>
      <point x="225" y="450"/>
      <point x="305" y="450" type="curve" smooth="yes"/>
      <point x="387" y="450"/>
      <point x="442" y="392"/>
      <point x="442" y="310" type="curve" smooth="yes"/>
      <point x="442" y="229"/>
      <point x="386" y="173"/>
    </contour>
    <contour>
      <point x="681" y="173" type="curve" smooth="yes"/>
      <point x="600" y="173"/>
      <point x="545" y="229"/>
      <point x="545" y="310" type="curve" smooth="yes"/>
      <point x="545" y="392"/>
      <point x="600" y="450"/>
      <point x="682" y="450" type="curve" smooth="yes"/>
      <point x="762" y="450"/>
      <point x="819" y="394"/>
      <point x="819" y="309" type="curve" smooth="yes"/>
      <point x="819" y="227"/>
      <point x="761" y="173"/>
    </contour>
    <contour>
      <point x="659" y="479" type="line"/>
      <point x="761" y="479" type="line"/>
      <point x="761" y="652" type="line"/>
      <point x="1010" y="652" type="line"/>
      <point x="1010" y="740" type="line"/>
      <point x="-24" y="740" type="line"/>
      <point x="-24" y="652" type="line"/>
      <point x="659" y="652" type="line"/>
    </contour>
  </outline>
</glyph>
<glyph name="dvVA" format="2">
  <advance width="672"/>
  <unicode hex="0935"/>
  <outline>
    <contour>
      <point x="65" y="324" type="curve" smooth="yes"/>
      <point x="65" y="182"/>
      <point x="155" y="86"/>
      <point x="292" y="86" type="curve" smooth="yes"/>
      <point x="434" y="86"/>
      <point x="509" y="190"/>
      <point x="500" y="314" type="curve"/>
      <point x="472" y="319" type="line"/>
      <point x="472" y="250"/>
      <point x="424" y="170"/>
      <point x="319" y="170" type="curve" smooth="yes"/>
      <point x="232" y="170"/>
      <point x="168" y="228"/>
      <point x="168" y="321" type="curve" smooth="yes"/>
      <point x="168" y="412"/>
      <point x="234" y="470"/>
      <point x="319" y="470" type="curve" smooth="yes"/>
      <point x="424" y="470"/>
      <point x="472" y="393"/>
      <point x="472" y="320" type="curve"/>
      <point x="500" y="330" type="line"/>
      <point x="509" y="450"/>
      <point x="435" y="555"/>
      <point x="292" y="555" type="curve" smooth="yes"/>
      <point x="157" y="555"/>
      <point x="65" y="460"/>
    </contour>
    <contour>
      <point x="696" y="652" type="line"/>
      <point x="696" y="740" type="line"/>
      <point x="-24" y="740" type="line"/>
      <point x="-24" y="652" type="line"/>
      <point x="472" y="652" type="line"/>
      <point x="472" y="0" type="line"/>
      <point x="574" y="0" type="line"/>
      <point x="574" y="652" type="line"/>
    </contour>
  </outline>
</glyph>
<glyph name="dvSSA" format="2">
  <advance width="670"/>
  <unicode hex="0937"/>
  <outline>
    <contour>
      <point x="303" y="179" type="curve" smooth="yes"/>
      <point x="438" y="179"/>
      <point x="502" y="267"/>
      <point x="504" y="384" type="curve"/>
      <point x="469" y="416" type="line"/>
      <point x="469" y="335"/>
      <point x="418" y="268"/>
      <point x="324" y="268" type="curve" smooth="yes"/>
      <point x="226" y="268"/>
      <point x="181" y="334"/>
      <point x="181" y="434" type="curve" smooth="yes"/>
      <point x="181" y="664" type="line"/>
      <point x="80" y="664" type="line"/>
      <point x="80" y="437" type="line" smooth="yes"/>
      <point x="80" y="284"/>
      <point x="155" y="179"/>
    </contour>
    <contour>
      <point x="477" y="345" type="line"/>
      <point x="535" y="380" type="line"/>
      <point x="179" y="655" type="line"/>
      <point x="134" y="609" type="line"/>
    </contour>
    <contour>
      <point x="469" y="0" type="line"/>
      <point x="572" y="0" type="line"/>
      <point x="572" y="659" type="line"/>
      <point x="469" y="659" type="line"/>
    </contour>
    <contour>
      <point x="-24" y="652" type="line"/>
      <point x="694" y="652" type="line"/>
      <point x="694" y="740" type="line"/>
      <point x="-24" y="740" type="line"/>
    </contour>
  </outline>
</glyph>
<glyph name="dvHA" format="2">
  <advance width="585"/>
  <unicode hex="0939"/>
  <anchor x="472" y="740" name="abvm.e"/>
  <anchor x="374" y="-198" name="blwm.u"/>
  <anchor x="366" y="-106" name="blwm.virama"/>
  <outline>
    <contour>
      <point x="213" y="288" type="curve"/>
      <point x="273" y="326" type="line"/>
      <point x="229" y="335"/>
      <point x="198" y="361"/>
      <point x="198" y="402" type="curve" smooth="yes"/>
      <point x="198" y="455"/>
      <point x="242" y="473"/>
      <point x="292" y="473" type="curve" smooth="yes"/>
      <point x="472" y="473" type="line"/>
      <point x="472" y="549" type="line"/>
      <point x="256" y="549" type="line" smooth="yes"/>
      <point x="160" y="549"/>
      <point x="94" y="505"/>
      <point x="94" y="422" type="curve" smooth="yes"/>
      <point x="94" y="348"/>
      <point x="147" y="304"/>
    </contour>
    <contour>
      <point x="372" y="541" type="line"/>
      <point x="472" y="541" type="line"/>
      <point x="472" y="652" type="line"/>
      <point x="609" y="652" type="line"/>
      <point x="609" y="740" type="line"/>
      <point x="-24" y="740" type="line"/>
      <point x="-24" y="652" type="line"/>
      <point x="372" y="652" type="line"/>
    </contour>
    <contour>
      <point x="308" y="336" type="curve" smooth="yes"/>
      <point x="166" y="336"/>
      <point x="70" y="248"/>
      <point x="70" y="118" type="curve" smooth="yes"/>
      <point x="70" y="-11"/>
      <point x="156" y="-106"/>
      <point x="306" y="-106" type="curve" smooth="yes"/>
      <point x="437" y="-106"/>
      <point x="519" y="-29"/>
      <point x="532" y="66" type="curve"/>
      <point x="432" y="66" type="line"/>
      <point x="420" y="25"/>
      <point x="378" y="-19"/>
      <point x="306" y="-19" type="curve" smooth="yes"/>
      <point x="222" y="-19"/>
      <point x="173" y="38"/>
      <point x="173" y="116" type="curve" smooth="yes"/>
      <point x="173" y="193"/>
      <point x="222" y="252"/>
      <point x="306" y="252" type="curve" smooth="yes"/>
      <point x="381" y="252"/>
      <point x="422" y="206"/>
      <point x="432" y="165" type="curve"/>
      <point x="532" y="165" type="line"/>
      <point x="519" y="255"/>
      <point x="450" y="336"/>
    </contour>
  </outline>
</glyph>
<glyph name="dvNukta" format="2">
  <unicode hex="093C"/>
  <outline>
    <contour>
      <point x="-337" y="-181" type="curve" smooth="yes"/>
      <point x="-299" y="-181"/>
      <point x="-270" y="-153"/>
      <point x="-270" y="-116" type="curve" smooth="yes"/>
      <point x="-270" y="-78"/>
      <point x="-299" y="-49"/>
      <point x="-337" y="-49" type="curve" smooth="yes"/>
      <point x="-374" y="-49"/>
      <point x="-403" y="-78"/>
      <point x="-403" y="-116" type="curve" smooth="yes"/>
      <point x="-403" y="-153"/>
      <point x="-374" y="-181"/>
    </contour>
  </outline>
</glyph>
<glyph name="dvAvagraha" format="2">
  <advance width="582"/>
  <unicode hex="093D"/>
  <outline>
    <contour>
      <point x="70" y="57" type="line"/>
      <point x="330" y="57" type="line" smooth="yes"/>
      <point x="429" y="57"/>
      <point x="485" y="112"/>
      <point x="485" y="187" type="curve" smooth="yes"/>
      <point x="485" y="353"/>
      <point x="237" y="428"/>
      <point x="237" y="530" type="curve" smooth="yes"/>
      <point x="237" y="574"/>
      <point x="272" y="583"/>
      <point x="311" y="583" type="curve" smooth="yes"/>
      <point x="496" y="583" type="line"/>
      <point x="496" y="672" type="line"/>
      <point x="286" y="672" type="line" smooth="yes"/>
      <point x="199" y="672"/>
      <point x="130" y="635"/>
      <point x="130" y="545" type="curve" smooth="yes"/>
      <point x="130" y="377"/>
      <point x="379" y="302"/>
      <point x="379" y="202" type="curve" smooth="yes"/>
      <point x="379" y="170"/>
      <point x="354" y="146"/>
      <point x="304" y="146" type="curve"/>
      <point x="70" y="146" type="line"/>
    </contour>
  </outline>
</glyph>
<glyph name="dvmAA" format="2">
  <advance width="301"/>
  <unicode hex="093E"/>
  <outline>
    <contour>
      <point x="98" y="0" type="line"/>
      <point x="203" y="0" type="line"/>
      <point x="203" y="652" type="line"/>
      <point x="325" y="652" type="line"/>
      <point x="325" y="740" type="line"/>
      <point x="-24" y="740" type="line"/>
      <point x="-24" y="652" type="line"/>
      <point x="98" y="652" type="line"/>
    </contour>
  </outline>
</glyph>
<glyph name="dvmI" format="2">
  <advance width="301"/>
  <unicode hex="093F"/>
  <anchor x="886" y="740" name="abvm.e"/>
  <outline>
    <contour>
      <point x="98" y="715" type="line"/>
      <point x="202" y="715" type="line"/>
      <point x="202" y="733" type="line" smooth="yes"/>
      <point x="202" y="880"/>
      <point x="356" y="920"/>
      <point x="492" y="920" type="curve" smooth="yes"/>
      <point x="627" y="920"/>
      <point x="781" y="870"/>
      <point x="781" y="731" type="curve" smooth="yes"/>
      <point x="781" y="716" type="line"/>
      <point x="886" y="716" type="line"/>
      <point x="886" y="733" type="line" smooth="yes"/>
      <point x="886" y="911"/>
      <point x="708" y="1006"/>
      <point x="492" y="1006" type="curve" smooth="yes"/>
      <point x="275" y="1006"/>
      <point x="98" y="920"/>
      <point x="98" y="732" type="curve" smooth="yes"/>
    </contour>
    <component base="dvmAA"/>
  </outline>
</glyph>
<glyph name="dvmII" format="2">
  <advance width="301"/>
  <unicode hex="0940"/>
  <outline>
    <contour>
      <point x="-203" y="716" type="line"/>
      <point x="-101" y="716" type="line"/>
      <point x="-101" y="781" type="line" smooth="yes"/>
      <point x="-101" y="845"/>
      <point x="-82" y="918"/>
      <point x="1" y="918" type="curve" smooth="yes"/>
      <point x="83" y="918"/>
      <point x="101" y="845"/>
      <point x="101" y="781" type="curve" smooth="yes"/>
      <point x="101" y="716" type="line"/>
      <point x="203" y="716" type="line"/>
      <point x="203" y="776" type="line" smooth="yes"/>
      <point x="203" y="905"/>
      <point x="154" y="1006"/>
      <point x="1" y="1006" type="curve" smooth="yes"/>
      <point x="-149" y="1006"/>
      <point x="-203" y="906"/>
      <point x="-203" y="776" type="curve" smooth="yes"/>
    </contour>
    <component base="dvmAA"/>
  </outline>
</glyph>
<glyph name="dvmU" format="2">
  <unicode hex="0941"/>
  <anchor x="-98" y="0" name="_blwm.u"/>
  <outline>
    <contour>
      <point x="-201" y="-311" type="curve" smooth="yes"/>
      <point x="-75" y="-311"/>
      <point x="3" y="-245"/>
      <point x="3" y="-135" type="curve" smooth="yes"/>
      <point x="3" y="-37"/>
      <point x="-58" y="33"/>
      <point x="-176" y="33" type="curve" smooth="yes"/>
      <point x="-203" y="33" type="line"/>
      <point x="-203" y="-49" type="line"/>
      <point x="-176" y="-49" type="line" smooth="yes"/>
      <point x="-117" y="-49"/>
      <point x="-86" y="-89"/>
      <point x="-86" y="-134" type="curve" smooth="yes"/>
      <point x="-86" y="-195"/>
      <point x="-132" y="-229"/>
      <point x="-204" y="-229" type="curve" smooth="yes"/>
      <point x="-286" y="-229"/>
      <point x="-350" y="-189"/>
      <point x="-346" y="-95" type="curve"/>
      <point x="-439" y="-95" type="line"/>
      <point x="-443" y="-250"/>
      <point x="-327" y="-311"/>
    </contour>
  </outline>
</glyph>
<glyph name="dvmUU" format="2">
  <unicode hex="0942"/>
  <anchor x="-98" y="0" name="_blwm.u"/>
  <outline>
    <contour>
      <point x="-180" y="-301" type="curve" smooth="yes"/>
      <point x="-167" y="-301"/>
      <point x="-155" y="-301"/>
      <point x="-142" y="-300" type="curve"/>
      <point x="-142" y="-223" type="line"/>
      <point x="-154" y="-224"/>
      <point x="-164" y="-225"/>
      <point x="-174" y="-225" type="curve" smooth="yes"/>
      <point x="-226" y="-225"/>
      <point x="-268" y="-194"/>
      <point x="-268" y="-141" type="curve" smooth="yes"/>
      <point x="-268" y="-83"/>
      <point x="-221" y="-49"/>
      <point x="-154" y="-49" type="curve" smooth="yes"/>
      <point x="-53" y="-49"/>
      <point x="9" y="-121"/>
      <point x="9" y="-248" type="curve" smooth="yes"/>
      <point x="9" y="-295" type="line"/>
      <point x="95" y="-295" type="line"/>
      <point x="96" y="-282"/>
      <point x="96" y="-269"/>
      <point x="96" y="-255" type="curve" smooth="yes"/>
      <point x="96" y="-97"/>
      <point x="22" y="30"/>
      <point x="-154" y="30" type="curve" smooth="yes"/>
      <point x="-271" y="30"/>
      <point x="-353" y="-34"/>
      <point x="-353" y="-140" type="curve" smooth="yes"/>
      <point x="-353" y="-246"/>
      <point x="-276" y="-301"/>
    </contour>
  </outline>
</glyph>
<glyph name="dvmvR" format="2">
  <unicode hex="0943"/>
  <anchor x="-98" y="0" name="_blwm.u"/>
  <outline>
    <contour>
      <point x="-137" y="-318" type="curve" smooth="yes"/>
      <point x="-106" y="-318"/>
      <point x="-71" y="-313"/>
      <point x="-45" y="-304" type="curve"/>
      <point x="-45" y="-222" type="line"/>
      <point x="-61" y="-227"/>
      <point x="-90" y="-233"/>
      <point x="-121" y="-233" type="curve" smooth="yes"/>
      <point x="-182" y="-233"/>
      <point x="-235" y="-208"/>
      <point x="-235" y="-139" type="curve" smooth="yes"/>
      <point x="-235" y="-85"/>
      <point x="-199" y="-42"/>
      <point x="-131" y="-42" type="curve" smooth="yes"/>
      <point x="-123" y="-42"/>
      <point x="-112" y="-42"/>
      <point x="-98" y="-42" type="curve"/>
      <point x="-98" y="30" type="line"/>
      <point x="-106" y="31"/>
      <point x="-131" y="31"/>
      <point x="-139" y="31" type="curve" smooth="yes"/>
      <point x="-265" y="31"/>
      <point x="-336" y="-42"/>
      <point x="-336" y="-143" type="curve" smooth="yes"/>
      <point x="-336" y="-270"/>
      <point x="-236" y="-318"/>
    </contour>
  </outline>
</glyph>
<glyph name="dvmvRR" format="2">
  <unicode hex="0944"/>
  <anchor x="-98" y="0" name="_blwm.u"/>
  <outline>
    <contour>
      <point x="-133" y="-457" type="curve" smooth="yes"/>
      <point x="-92" y="-457"/>
      <point x="-45" y="-449"/>
      <point x="-19" y="-439" type="curve"/>
      <point x="-19" y="-360" type="line"/>
      <point x="-36" y="-366"/>
      <point x="-77" y="-375"/>
      <point x="-117" y="-375" type="curve" smooth="yes"/>
      <point x="-168" y="-375"/>
      <point x="-215" y="-359"/>
      <point x="-215" y="-308" type="curve" smooth="yes"/>
      <point x="-215" y="-254"/>
      <point x="-169" y="-239"/>
      <point x="-121" y="-239" type="curve" smooth="yes"/>
      <point x="-74" y="-239" type="line"/>
      <point x="-74" y="-161" type="line"/>
      <point x="-124" y="-161" type="line" smooth="yes"/>
      <point x="-173" y="-161"/>
      <point x="-215" y="-143"/>
      <point x="-215" y="-95" type="curve" smooth="yes"/>
      <point x="-215" y="-44"/>
      <point x="-173" y="-28"/>
      <point x="-127" y="-28" type="curve" smooth="yes"/>
      <point x="-98" y="-28" type="line"/>
      <point x="-98" y="31" type="line"/>
      <point x="-166" y="31" type="line" smooth="yes"/>
      <point x="-234" y="31"/>
      <point x="-315" y="1"/>
      <point x="-315" y="-90" type="curve" smooth="yes"/>
      <point x="-315" y="-155"/>
      <point x="-275" y="-188"/>
      <point x="-222" y="-200" type="curve"/>
      <point x="-222" y="-203" type="line"/>
      <point x="-275" y="-215"/>
      <point x="-316" y="-256"/>
      <point x="-316" y="-319" type="curve" smooth="yes"/>
      <point x="-316" y="-419"/>
      <point x="-226" y="-457"/>
    </contour>
  </outline>
</glyph>
<glyph name="dvmEcandra" format="2">
  <unicode hex="0945"/>
  <anchor x="-98" y="740" name="_abvm.e"/>
  <outline>
    <contour>
      <point x="-156" y="816" type="curve" smooth="yes"/>
      <point x="-8" y="816"/>
      <point x="58" y="902"/>
      <point x="58" y="1002" type="curve"/>
      <point x="-32" y="1002" type="line"/>
      <point x="-32" y="948"/>
      <point x="-69" y="895"/>
      <point x="-156" y="895" type="curve" smooth="yes"/>
      <point x="-243" y="895"/>
      <point x="-279" y="948"/>
      <point x="-279" y="1002" type="curve"/>
      <point x="-370" y="1002" type="line"/>
      <point x="-370" y="902"/>
      <point x="-305" y="816"/>
    </contour>
  </outline>
</glyph>
<glyph name="dvmE" format="2">
  <unicode hex="0947"/>
  <anchor x="-99" y="740" name="_abvm.e"/>
  <outline>
    <contour>
      <point x="-198" y="736" type="curve"/>
      <point x="-99" y="736" type="line"/>
      <point x="-231" y="966"/>
      <point x="-283" y="986"/>
      <point x="-422" y="987" type="curve"/>
      <point x="-465" y="987" type="line"/>
      <point x="-465" y="901" type="line"/>
      <point x="-420" y="901" type="line"/>
      <point x="-325" y="901"/>
      <point x="-294" y="887"/>
    </contour>
  </outline>
</glyph>
<glyph name="dvmAI" format="2">
  <unicode hex="0948"/>
  <anchor x="-98" y="740" name="_abvm.e"/>
  <outline>
    <contour>
      <point x="-168" y="737" type="curve"/>
      <point x="-99" y="737" type="line"/>
      <point x="-253" y="1037"/>
      <point x="-290" y="1050"/>
      <point x="-427" y="1050" type="curve" smooth="yes"/>
      <point x="-473" y="1050" type="line"/>
      <point x="-473" y="982" type="line"/>
      <point x="-425" y="982" type="line" smooth="yes"/>
      <point x="-331" y="982"/>
      <point x="-286" y="976"/>
    </contour>
    <contour>
      <point x="-189" y="737" type="curve"/>
      <point x="-116" y="737" type="line"/>
      <point x="-289" y="891"/>
      <point x="-303" y="894"/>
      <point x="-429" y="894" type="curve" smooth="yes"/>
      <point x="-473" y="894" type="line"/>
      <point x="-473" y="827" type="line"/>
      <point x="-427" y="827" type="line" smooth="yes"/>
      <point x="-320" y="827"/>
      <point x="-305" y="823"/>
    </contour>
  </outline>
</glyph>
<glyph name="dvVirama" format="2">
  <unicode hex="094D"/>
  <anchor x="-98" y="0" name="_blwm.virama"/>
  <outline>
    <contour>
      <point x="-76" y="-265" type="line"/>
      <point x="32" y="-265" type="line"/>
      <point x="-95" y="-59" type="line"/>
      <point x="-200" y="-59" type="line"/>
    </contour>
  </outline>
</glyph>
<glyph name="dvOm" format="2">
  <advance width="1060"/>
  <unicode hex="0950"/>
  <outline>
    <contour>
      <point x="720" y="22" type="curve" smooth="yes"/>
      <point x="898" y="22"/>
      <point x="979" y="121"/>
      <point x="979" y="306" type="curve" smooth="yes"/>
      <point x="979" y="438" type="line" smooth="yes"/>
      <point x="979" y="595"/>
      <point x="924" y="685"/>
      <point x="777" y="685" type="curve" smooth="yes"/>
      <point x="632" y="685"/>
      <point x="582" y="605"/>
      <point x="582" y="482" type="curve" smooth="yes"/>
      <point x="582" y="395"/>
      <point x="543" y="371"/>
      <point x="472" y="371" type="curve" smooth="yes"/>
      <point x="384" y="371" type="line"/>
      <point x="400" y="289" type="line"/>
      <point x="488" y="289" type="line" smooth="yes"/>
      <point x="624" y="289"/>
      <point x="680" y="341"/>
      <point x="680" y="481" type="curve" smooth="yes"/>
      <point x="680" y="545"/>
      <point x="704" y="596"/>
      <point x="777" y="596" type="curve" smooth="yes"/>
      <point x="853" y="596"/>
      <point x="877" y="540"/>
      <point x="877" y="451" type="curve" smooth="yes"/>
      <point x="877" y="309" type="line" smooth="yes"/>
      <point x="877" y="185"/>
      <point x="838" y="112"/>
      <point x="702" y="112" type="curve" smooth="yes"/>
      <point x="679" y="112"/>
      <point x="651" y="115"/>
      <point x="621" y="120" type="curve"/>
      <point x="621" y="32" type="line"/>
      <point x="657" y="26"/>
      <point x="689" y="22"/>
    </contour>
    <contour>
      <point x="301" y="12" type="curve" smooth="yes"/>
      <point x="424" y="12"/>
      <point x="508" y="89"/>
      <point x="508" y="210" type="curve" smooth="yes"/>
      <point x="508" y="287"/>
      <point x="468" y="363"/>
      <point x="379" y="382" type="curve"/>
      <point x="379" y="385" type="line"/>
      <point x="457" y="405"/>
      <point x="497" y="466"/>
      <point x="497" y="544" type="curve" smooth="yes"/>
      <point x="497" y="656"/>
      <point x="414" y="728"/>
      <point x="293" y="728" type="curve" smooth="yes"/>
      <point x="170" y="728"/>
      <point x="83" y="654"/>
      <point x="83" y="538" type="curve"/>
      <point x="181" y="538" type="line"/>
      <point x="181" y="601"/>
      <point x="229" y="639"/>
      <point x="292" y="639" type="curve" smooth="yes"/>
      <point x="352" y="639"/>
      <point x="401" y="598"/>
      <point x="401" y="530" type="curve" smooth="yes"/>
      <point x="401" y="476"/>
      <point x="362" y="425"/>
      <point x="284" y="425" type="curve" smooth="yes"/>
      <point x="243" y="425" type="line"/>
      <point x="243" y="336" type="line"/>
      <point x="284" y="336" type="line" smooth="yes"/>
      <point x="376" y="336"/>
      <point x="411" y="276"/>
      <point x="411" y="220" type="curve" smooth="yes"/>
      <point x="411" y="150"/>
      <point x="367" y="102"/>
      <point x="295" y="102" type="curve" smooth="yes"/>
      <point x="224" y="102"/>
      <point x="175" y="150"/>
      <point x="175" y="217" type="curve"/>
      <point x="76" y="217" type="line"/>
      <point x="76" y="94"/>
      <point x="167" y="12"/>
    </contour>
    <contour>
      <point x="572" y="739" type="curve" smooth="yes"/>
      <point x="714" y="739"/>
      <point x="786" y="819"/>
      <point x="786" y="925" type="curve"/>
      <point x="701" y="925" type="line"/>
      <point x="701" y="870"/>
      <point x="658" y="815"/>
      <point x="572" y="815" type="curve" smooth="yes"/>
      <point x="485" y="815"/>
      <point x="442" y="870"/>
      <point x="442" y="925" type="curve"/>
      <point x="358" y="925" type="line"/>
      <point x="358" y="819"/>
      <point x="429" y="739"/>
    </contour>
    <contour>
      <point x="572" y="906" type="curve" smooth="yes"/>
      <point x="599" y="906"/>
      <point x="619" y="926"/>
      <point x="619" y="953" type="curve" smooth="yes"/>
      <point x="619" y="980"/>
      <point x="599" y="1001"/>
      <point x="572" y="1001" type="curve" smooth="yes"/>
      <point x="545" y="1001"/>
      <point x="525" y="980"/>
      <point x="525" y="953" type="curve" smooth="yes"/>
      <point x="525" y="926"/>
      <point x="545" y="906"/>
    </contour>
  </outline>
</glyph>
<glyph name="dvvRR" format="2">
  <advance width="995"/>
  <unicode hex="0960"/>
  <anchor x="589" y="740" name="abvm.e"/>
  <outline>
    <contour>
      <point x="492" y="0" type="line"/>
      <point x="589" y="0" type="line"/>
      <point x="589" y="652" type="line"/>
      <point x="1055" y="652" type="line"/>
      <point x="1055" y="740" type="line"/>
      <point x="-24" y="740" type="line"/>
      <point x="-24" y="652" type="line"/>
      <point x="492" y="652" type="line"/>
    </contour>
    <contour>
      <point x="112" y="0" type="line"/>
      <point x="244" y="0" type="line"/>
      <point x="550" y="301" type="line"/>
      <point x="511" y="368" type="line"/>
      <point x="112" y="6" type="line"/>
    </contour>
    <contour>
      <point x="540" y="281" type="line"/>
      <point x="541" y="432"/>
      <point x="472" y="556"/>
      <point x="312" y="556" type="curve" smooth="yes"/>
      <point x="165" y="556"/>
      <point x="69" y="450"/>
      <point x="69" y="293" type="curve"/>
      <point x="174" y="293" type="line"/>
      <point x="174" y="399"/>
      <point x="241" y="467"/>
      <point x="342" y="467" type="curve" smooth="yes"/>
      <point x="436" y="467"/>
      <point x="496" y="398"/>
      <point x="496" y="312" type="curve"/>
    </contour>
    <contour>
      <point x="883" y="-221" type="curve" smooth="yes"/>
      <point x="924" y="-221"/>
      <point x="970" y="-213"/>
      <point x="997" y="-202" type="curve"/>
      <point x="997" y="-123" type="line"/>
      <point x="979" y="-129"/>
      <point x="938" y="-139"/>
      <point x="898" y="-139" type="curve" smooth="yes"/>
      <point x="848" y="-139"/>
      <point x="800" y="-123"/>
      <point x="800" y="-72" type="curve" smooth="yes"/>
      <point x="800" y="-18"/>
      <point x="847" y="-3"/>
      <point x="894" y="-3" type="curve" smooth="yes"/>
      <point x="942" y="-3" type="line"/>
      <point x="942" y="76" type="line"/>
      <point x="892" y="76" type="line" smooth="yes"/>
      <point x="843" y="76"/>
      <point x="801" y="93"/>
      <point x="801" y="141" type="curve" smooth="yes"/>
      <point x="801" y="193"/>
      <point x="843" y="208"/>
      <point x="888" y="208" type="curve" smooth="yes"/>
      <point x="917" y="208" type="line"/>
      <point x="917" y="267" type="line"/>
      <point x="849" y="267" type="line" smooth="yes"/>
      <point x="781" y="268"/>
      <point x="700" y="237"/>
      <point x="700" y="146" type="curve" smooth="yes"/>
      <point x="700" y="82"/>
      <point x="741" y="48"/>
      <point x="793" y="36" type="curve"/>
      <point x="793" y="33" type="line"/>
      <point x="741" y="22"/>
      <point x="700" y="-20"/>
      <point x="700" y="-82" type="curve" smooth="yes"/>
      <point x="700" y="-182"/>
      <point x="790" y="-221"/>
    </contour>
    <contour>
      <point x="565" y="358" type="line"/>
      <point x="743" y="358" type="line" smooth="yes"/>
      <point x="838" y="358"/>
      <point x="913" y="408"/>
      <point x="913" y="513" type="curve" smooth="yes"/>
      <point x="913" y="546" type="line"/>
      <point x="836" y="546" type="line"/>
      <point x="836" y="511" type="line" smooth="yes"/>
      <point x="836" y="468"/>
      <point x="813" y="442"/>
      <point x="758" y="442" type="curve" smooth="yes"/>
      <point x="565" y="442" type="line"/>
    </contour>
    <contour>
      <point x="836" y="208" type="line"/>
      <point x="927" y="208" type="line"/>
      <point x="927" y="563" type="line"/>
      <point x="836" y="563" type="line"/>
    </contour>
  </outline>
</glyph>
<glyph name="dvvLL" format="2">
  <advance width="911"/>
  <unicode hex="0961"/>
  <anchor x="687" y="740" name="abvm.e"/>
  <outline>
    <contour>
      <point x="309" y="61" type="curve" smooth="yes"/>
      <point x="318" y="61"/>
      <point x="330" y="61"/>
      <point x="343" y="62" type="curve"/>
      <point x="343" y="154" type="line"/>
      <point x="333" y="153"/>
      <point x="322" y="152"/>
      <point x="315" y="152" type="curve" smooth="yes"/>
      <point x="223" y="152"/>
      <point x="171" y="211"/>
      <point x="171" y="307" type="curve" smooth="yes"/>
      <point x="171" y="388"/>
      <point x="213" y="448"/>
      <point x="293" y="448" type="curve" smooth="yes"/>
      <point x="373" y="448"/>
      <point x="409" y="377"/>
      <point x="409" y="284" type="curve" smooth="yes"/>
      <point x="409" y="263" type="line"/>
      <point x="497" y="263" type="line"/>
      <point x="497" y="284" type="line" smooth="yes"/>
      <point x="497" y="379"/>
      <point x="535" y="448"/>
      <point x="618" y="448" type="curve" smooth="yes"/>
      <point x="694" y="448"/>
      <point x="733" y="387"/>
      <point x="733" y="309" type="curve" smooth="yes"/>
      <point x="733" y="283"/>
      <point x="729" y="260"/>
      <point x="722" y="238" type="curve"/>
      <point x="821" y="208" type="line"/>
      <point x="832" y="238"/>
      <point x="837" y="272"/>
      <point x="837" y="308" type="curve" smooth="yes"/>
      <point x="837" y="455"/>
      <point x="750" y="541"/>
      <point x="634" y="541" type="curve" smooth="yes"/>
      <point x="527" y="541"/>
      <point x="474" y="473"/>
      <point x="454" y="404" type="curve"/>
      <point x="451" y="404" type="line"/>
      <point x="431" y="472"/>
      <point x="381" y="541"/>
      <point x="279" y="541" type="curve" smooth="yes"/>
      <point x="157" y="541"/>
      <point x="65" y="458"/>
      <point x="65" y="308" type="curve" smooth="yes"/>
      <point x="65" y="163"/>
      <point x="149" y="61"/>
    </contour>
    <contour>
      <point x="781" y="-221" type="curve" smooth="yes"/>
      <point x="822" y="-221"/>
      <point x="868" y="-213"/>
      <point x="895" y="-202" type="curve"/>
      <point x="895" y="-123" type="line"/>
      <point x="878" y="-129"/>
      <point x="836" y="-139"/>
      <point x="796" y="-139" type="curve" smooth="yes"/>
      <point x="746" y="-139"/>
      <point x="698" y="-123"/>
      <point x="698" y="-72" type="curve" smooth="yes"/>
      <point x="698" y="-18"/>
      <point x="744" y="-3"/>
      <point x="792" y="-3" type="curve" smooth="yes"/>
      <point x="840" y="-3" type="line"/>
      <point x="840" y="76" type="line"/>
      <point x="790" y="76" type="line" smooth="yes"/>
      <point x="741" y="76"/>
      <point x="699" y="93"/>
      <point x="699" y="141" type="curve" smooth="yes"/>
      <point x="699" y="193"/>
      <point x="741" y="208"/>
      <point x="786" y="208" type="curve"/>
      <point x="821" y="208" type="line"/>
      <point x="793" y="267" type="line"/>
      <point x="747" y="267" type="line" smooth="yes"/>
      <point x="679" y="267"/>
      <point x="598" y="237"/>
      <point x="598" y="146" type="curve" smooth="yes"/>
      <point x="598" y="82"/>
      <point x="639" y="48"/>
      <point x="691" y="36" type="curve"/>
      <point x="691" y="33" type="line"/>
      <point x="639" y="22"/>
      <point x="598" y="-20"/>
      <point x="598" y="-81" type="curve" smooth="yes"/>
      <point x="598" y="-182"/>
      <point x="688" y="-221"/>
    </contour>
    <contour>
      <point x="-24" y="652" type="line"/>
      <point x="931" y="652" type="line"/>
      <point x="931" y="740" type="line"/>
      <point x="-24" y="740" type="line"/>
    </contour>
    <contour>
      <point x="585" y="495" type="line"/>
      <point x="687" y="512" type="line"/>
      <point x="687" y="670" type="line"/>
      <point x="585" y="670" type="line"/>
    </contour>
  </outline>
</glyph>
<glyph name="dvmvL" format="2">
  <unicode hex="0962"/>
  <anchor x="-98" y="0" name="_blwm.u"/>
  <outline>
    <contour>
      <point x="103" y="-467" type="curve" smooth="yes"/>
      <point x="121" y="-467"/>
      <point x="140" y="-465"/>
      <point x="155" y="-462" type="curve"/>
      <point x="155" y="-395" type="line"/>
      <point x="144" y="-399"/>
      <point x="128" y="-401"/>
      <point x="112" y="-401" type="curve" smooth="yes"/>
      <point x="70" y="-401"/>
      <point x="31" y="-381"/>
      <point x="31" y="-335" type="curve" smooth="yes"/>
      <point x="31" y="-297"/>
      <point x="58" y="-267"/>
      <point x="120" y="-267" type="curve" smooth="yes"/>
      <point x="122" y="-267"/>
      <point x="124" y="-267"/>
      <point x="126" y="-267" type="curve"/>
      <point x="133" y="-244"/>
      <point x="137" y="-220"/>
      <point x="137" y="-194" type="curve" smooth="yes"/>
      <point x="137" y="-84"/>
      <point x="71" y="-21"/>
      <point x="-15" y="-21" type="curve" smooth="yes"/>
      <point x="-93" y="-21"/>
      <point x="-133" y="-71"/>
      <point x="-148" y="-120" type="curve"/>
      <point x="-150" y="-120" type="line"/>
      <point x="-165" y="-71"/>
      <point x="-202" y="-21"/>
      <point x="-277" y="-21" type="curve" smooth="yes"/>
      <point x="-366" y="-21"/>
      <point x="-435" y="-82"/>
      <point x="-435" y="-194" type="curve" smooth="yes"/>
      <point x="-435" y="-300"/>
      <point x="-372" y="-375"/>
      <point x="-254" y="-375" type="curve" smooth="yes"/>
      <point x="-248" y="-375"/>
      <point x="-238" y="-375"/>
      <point x="-229" y="-374" type="curve"/>
      <point x="-229" y="-302" type="line"/>
      <point x="-235" y="-304"/>
      <point x="-245" y="-304"/>
      <point x="-250" y="-304" type="curve" smooth="yes"/>
      <point x="-314" y="-304"/>
      <point x="-352" y="-262"/>
      <point x="-352" y="-195" type="curve" smooth="yes"/>
      <point x="-352" y="-136"/>
      <point x="-322" y="-94"/>
      <point x="-265" y="-94" type="curve" smooth="yes"/>
      <point x="-208" y="-94"/>
      <point x="-182" y="-144"/>
      <point x="-182" y="-211" type="curve" smooth="yes"/>
      <point x="-182" y="-226" type="line"/>
      <point x="-113" y="-226" type="line"/>
      <point x="-113" y="-211" type="line" smooth="yes"/>
      <point x="-113" y="-144"/>
      <point x="-87" y="-94"/>
      <point x="-28" y="-94" type="curve" smooth="yes"/>
      <point x="27" y="-94"/>
      <point x="53" y="-137"/>
      <point x="53" y="-194" type="curve" smooth="yes"/>
      <point x="53" y="-211"/>
      <point x="52" y="-228"/>
      <point x="46" y="-245" type="curve"/>
      <point x="73" y="-219" type="line"/>
      <point x="4" y="-223"/>
      <point x="-48" y="-272"/>
      <point x="-48" y="-340" type="curve" smooth="yes"/>
      <point x="-48" y="-425"/>
      <point x="18" y="-467"/>
    </contour>
  </outline>
</glyph>
<glyph name="dvmvLL" format="2">
  <unicode hex="0963"/>
  <anchor x="-98" y="0" name="_blwm.u"/>
  <outline>
    <contour>
      <point x="46" y="-245" type="curve"/>
      <point x="126" y="-267" type="line"/>
      <point x="133" y="-244"/>
      <point x="137" y="-220"/>
      <point x="137" y="-194" type="curve" smooth="yes"/>
      <point x="137" y="-84"/>
      <point x="71" y="-21"/>
      <point x="-15" y="-21" type="curve" smooth="yes"/>
      <point x="-93" y="-21"/>
      <point x="-133" y="-71"/>
      <point x="-148" y="-120" type="curve"/>
      <point x="-150" y="-120" type="line"/>
      <point x="-165" y="-71"/>
      <point x="-202" y="-21"/>
      <point x="-277" y="-21" type="curve" smooth="yes"/>
      <point x="-366" y="-21"/>
      <point x="-435" y="-82"/>
      <point x="-435" y="-194" type="curve" smooth="yes"/>
      <point x="-435" y="-300"/>
      <point x="-372" y="-375"/>
      <point x="-254" y="-375" type="curve" smooth="yes"/>
      <point x="-248" y="-375"/>
      <point x="-238" y="-375"/>
      <point x="-229" y="-374" type="curve"/>
      <point x="-229" y="-302" type="line"/>
      <point x="-235" y="-304"/>
      <point x="-245" y="-304"/>
      <point x="-250" y="-304" type="curve" smooth="yes"/>
      <point x="-314" y="-304"/>
      <point x="-352" y="-262"/>
      <point x="-352" y="-195" type="curve" smooth="yes"/>
      <point x="-352" y="-136"/>
      <point x="-322" y="-94"/>
      <point x="-265" y="-94" type="curve" smooth="yes"/>
      <point x="-208" y="-94"/>
      <point x="-182" y="-144"/>
      <point x="-182" y="-211" type="curve" smooth="yes"/>
      <point x="-182" y="-226" type="line"/>
      <point x="-113" y="-226" type="line"/>
      <point x="-113" y="-211" type="line" smooth="yes"/>
      <point x="-113" y="-144"/>
      <point x="-87" y="-94"/>
      <point x="-28" y="-94" type="curve" smooth="yes"/>
      <point x="27" y="-94"/>
      <point x="53" y="-137"/>
      <point x="53" y="-194" type="curve" smooth="yes"/>
      <point x="53" y="-211"/>
      <point x="52" y="-228"/>
    </contour>
    <contour>
      <point x="93" y="-582" type="curve" smooth="yes"/>
      <point x="124" y="-582"/>
      <point x="158" y="-577"/>
      <point x="177" y="-570" type="curve"/>
      <point x="177" y="-508" type="line"/>
      <point x="165" y="-512"/>
      <point x="135" y="-519"/>
      <point x="105" y="-519" type="curve" smooth="yes"/>
      <point x="69" y="-519"/>
      <point x="35" y="-508"/>
      <point x="35" y="-472" type="curve" smooth="yes"/>
      <point x="35" y="-432"/>
      <point x="69" y="-423"/>
      <point x="104" y="-423" type="curve" smooth="yes"/>
      <point x="137" y="-423" type="line"/>
      <point x="137" y="-361" type="line"/>
      <point x="102" y="-361" type="line" smooth="yes"/>
      <point x="65" y="-361"/>
      <point x="36" y="-348"/>
      <point x="36" y="-314" type="curve" smooth="yes"/>
      <point x="36" y="-278"/>
      <point x="66" y="-267"/>
      <point x="98" y="-267" type="curve"/>
      <point x="126" y="-267" type="line"/>
      <point x="101" y="-219" type="line"/>
      <point x="67" y="-219" type="line" smooth="yes"/>
      <point x="16" y="-219"/>
      <point x="-42" y="-243"/>
      <point x="-42" y="-310" type="curve" smooth="yes"/>
      <point x="-42" y="-357"/>
      <point x="-13" y="-384"/>
      <point x="26" y="-393" type="curve"/>
      <point x="26" y="-395" type="line"/>
      <point x="-12" y="-403"/>
      <point x="-42" y="-433"/>
      <point x="-42" y="-480" type="curve" smooth="yes"/>
      <point x="-42" y="-555"/>
      <point x="24" y="-582"/>
    </contour>
  </outline>
</glyph>
<glyph name="doubledanda" format="2">
  <advance width="529"/>
  <unicode hex="0965"/>
  <outline>
    <contour>
      <point x="258" y="741" type="line"/>
      <point x="154" y="741" type="line"/>
      <point x="154" y="0" type="line"/>
      <point x="258" y="0" type="line"/>
    </contour>
    <contour>
      <point x="486" y="741" type="line"/>
      <point x="382" y="741" type="line"/>
      <point x="382" y="0" type="line"/>
      <point x="486" y="0" type="line"/>
    </contour>
  </outline>
</glyph>
<glyph name="dvAbbreviationsign" format="2">
  <advance width="488"/>
  <unicode hex="0970"/>
  <outline>
    <contour>
      <point x="344" y="508"/>
      <point x="246" y="508" type="curve"/>
      <point x="147" y="508"/>
      <point x="77" y="441"/>
      <point x="77" y="345" type="curve" smooth="yes"/>
      <point x="77" y="250"/>
      <point x="147" y="182"/>
      <point x="246" y="182" type="curve"/>
      <point x="344" y="182"/>
      <point x="412" y="249"/>
      <point x="412" y="344" type="curve" smooth="yes"/>
      <point x="412" y="441"/>
    </contour>
    <contour>
      <point x="186" y="444"/>
      <point x="246" y="444" type="curve" smooth="yes"/>
      <point x="304" y="444"/>
      <point x="345" y="402"/>
      <point x="345" y="344" type="curve" smooth="yes"/>
      <point x="345" y="286"/>
      <point x="304" y="246"/>
      <point x="246" y="246" type="curve" smooth="yes"/>
      <point x="186" y="246"/>
      <point x="142" y="287"/>
      <point x="142" y="345" type="curve" smooth="yes"/>
      <point x="142" y="403"/>
    </contour>
  </outline>
</glyph>
<glyph name="endash" format="2">
  <advance width="708"/>
  <unicode hex="2013"/>
  <outline>
    <contour>
      <point x="87" y="410" type="line"/>
      <point x="87" y="314" type="line"/>
      <point x="622" y="314" type="line"/>
      <point x="622" y="410" type="line"/>
    </contour>
  </outline>
</glyph>
<glyph name="quoteleft" format="2">
  <advance width="242"/>
  <unicode hex="2018"/>
  <guideline x="254" y="848" angle="0"/>
  <outline>
    <contour>
      <point x="210" y="695" type="line"/>
      <point x="130" y="695" type="line"/>
      <point x="25" y="457" type="line"/>
      <point x="149" y="457" type="line"/>
    </contour>
  </outline>
</glyph>
<glyph name="quoteright" format="2">
  <advance width="242"/>
  <unicode hex="2019"/>
  <guideline x="109" y="695" angle="0"/>
  <outline>
    <contour>
      <point x="32" y="457" type="line"/>
      <point x="112" y="457" type="line"/>
      <point x="217" y="695" type="line"/>
      <point x="93" y="695" type="line"/>
    </contour>
  </outline>
</glyph>
<glyph name="quotesinglbase" format="2">
  <advance width="215"/>
  <unicode hex="201A"/>
  <outline>
    <contour>
      <point x="5" y="-103" type="line"/>
      <point x="85" y="-103" type="line"/>
      <point x="190" y="135" type="line"/>
      <point x="66" y="135" type="line"/>
    </contour>
  </outline>
</glyph>
<glyph name="quotedblleft" format="2">
  <advance width="422"/>
  <unicode hex="201C"/>
  <outline>
    <contour>
      <point x="210" y="695" type="line"/>
      <point x="130" y="695" type="line"/>
      <point x="25" y="457" type="line"/>
      <point x="149" y="457" type="line"/>
    </contour>
    <contour>
      <point x="390" y="695" type="line"/>
      <point x="310" y="695" type="line"/>
      <point x="205" y="457" type="line"/>
      <point x="329" y="457" type="line"/>
    </contour>
  </outline>
</glyph>
<glyph name="quotedblright" format="2">
  <advance width="422"/>
  <unicode hex="201D"/>
  <guideline x="432" y="695" angle="0"/>
  <outline>
    <contour>
      <point x="212" y="457" type="line"/>
      <point x="292" y="457" type="line"/>
      <point x="397" y="695" type="line"/>
      <point x="273" y="695" type="line"/>
    </contour>
    <contour>
      <point x="32" y="457" type="line"/>
      <point x="112" y="457" type="line"/>
      <point x="217" y="695" type="line"/>
      <point x="93" y="695" type="line"/>
    </contour>
  </outline>
</glyph>
<glyph name="quotedblbase" format="2">
  <advance width="397"/>
  <unicode hex="201E"/>
  <outline>
    <contour>
      <point x="5" y="-103" type="line"/>
      <point x="85" y="-103" type="line"/>
      <point x="190" y="135" type="line"/>
      <point x="66" y="135" type="line"/>
    </contour>
    <contour>
      <point x="187" y="-103" type="line"/>
      <point x="267" y="-103" type="line"/>
      <point x="372" y="135" type="line"/>
      <point x="248" y="135" type="line"/>
    </contour>
  </outline>
</glyph>
<glyph name="fraction" format="2">
  <advance width="367"/>
  <unicode hex="2044"/>
  <outline>
    <contour>
      <point x="315" y="696" type="line"/>
      <point x="-56" y="0" type="line"/>
      <point x="52" y="0" type="line"/>
      <point x="423" y="696" type="line"/>
    </contour>
  </outline>
</glyph>
<glyph name="foursuperior" format="2">
  <advance width="356"/>
  <unicode hex="2074"/>
  <outline>
    <contour>
      <point x="330" y="475" type="line"/>
      <point x="285" y="475" type="line"/>
      <point x="285" y="705" type="line"/>
      <point x="161" y="705" type="line"/>
      <point x="10" y="469" type="line"/>
      <point x="10" y="419" type="line"/>
      <point x="196" y="419" type="line"/>
      <point x="196" y="352" type="line"/>
      <point x="285" y="352" type="line"/>
      <point x="285" y="419" type="line"/>
      <point x="330" y="419" type="line"/>
    </contour>
    <contour>
      <point x="198" y="475" type="line"/>
      <point x="99" y="475" type="line"/>
      <point x="198" y="637" type="line"/>
    </contour>
  </outline>
</glyph>
<glyph name="lozenge" format="2">
  <advance width="557"/>
  <unicode hex="25CA"/>
  <outline>
    <contour>
      <point x="279" y="598" type="line"/>
      <point x="31" y="351" type="line"/>
      <point x="279" y="103" type="line"/>
      <point x="526" y="351" type="line"/>
    </contour>
    <contour>
      <point x="279" y="476" type="line"/>
      <point x="404" y="351" type="line"/>
      <point x="279" y="225" type="line"/>
      <point x="154" y="351" type="line"/>
    </contour>
  </outline>
</glyph>
<glyph name="a.ss02" format="2">
  <advance width="606"/>
  <guideline x="472" y="86" angle="0"/>
  <guideline x="330" y="466" angle="0"/>
  <anchor x="531" y="0" name="ogonek"/>
  <anchor x="295" y="567" name="top"/>
  <outline>
    <contour>
      <point x="415" y="80" type="curve"/>
      <point x="415" y="0" type="line"/>
      <point x="531" y="0" type="line"/>
      <point x="531" y="323" type="line" smooth="yes"/>
      <point x="531" y="473"/>
      <point x="425" y="561"/>
      <point x="295" y="561" type="curve" smooth="yes"/>
      <point x="157" y="561"/>
      <point x="67" y="475"/>
      <point x="51" y="356" type="curve"/>
      <point x="163" y="356" type="line"/>
      <point x="175" y="423"/>
      <point x="222" y="462"/>
      <point x="290" y="462" type="curve" smooth="yes"/>
      <point x="364" y="462"/>
      <point x="408" y="412"/>
      <point x="414" y="341" type="curve" smooth="yes"/>
      <point x="415" y="338"/>
      <point x="415" y="334"/>
      <point x="415" y="331" type="curve"/>
      <point x="259" y="331" type="line" smooth="yes"/>
      <point x="103" y="331"/>
      <point x="37" y="249"/>
      <point x="37" y="155" type="curve" smooth="yes"/>
      <point x="37" y="60"/>
      <point x="116" y="-10"/>
      <point x="224" y="-10" type="curve" smooth="yes"/>
      <point x="308" y="-10"/>
      <point x="383" y="32"/>
    </contour>
    <contour>
      <point x="248" y="90" type="curve" smooth="yes"/>
      <point x="188" y="90"/>
      <point x="154" y="120"/>
      <point x="154" y="164" type="curve" smooth="yes"/>
      <point x="154" y="205"/>
      <point x="183" y="239"/>
      <point x="259" y="239" type="curve" smooth="yes"/>
      <point x="415" y="239" type="line"/>
      <point x="415" y="238" type="line"/>
      <point x="415" y="136"/>
      <point x="321" y="90"/>
    </contour>
  </outline>
</glyph>
<glyph name="colon.ss01" format="2">
  <advance width="279"/>
  <outline>
    <contour>
      <point x="70" y="132" type="line"/>
      <point x="70" y="0" type="line"/>
      <point x="199" y="0" type="line"/>
      <point x="199" y="132" type="line"/>
    </contour>
    <contour>
      <point x="70" y="551" type="line"/>
      <point x="70" y="419" type="line"/>
      <point x="199" y="419" type="line"/>
      <point x="199" y="551" type="line"/>
    </contour>
  </outline>
</glyph>
<glyph name="comma.ss01" format="2">
  <advance width="209"/>
  <outline>
    <contour>
      <point x="149" y="114" type="curve"/>
      <point x="32" y="114" type="line"/>
      <point x="32" y="5" type="line"/>
      <point x="93" y="5" type="line"/>
      <point x="93" y="-18" type="line" smooth="yes"/>
      <point x="93" y="-62"/>
      <point x="75" y="-83"/>
      <point x="39" y="-83" type="curve"/>
      <point x="39" y="-138" type="line"/>
      <point x="122" y="-138"/>
      <point x="165" y="-92"/>
      <point x="165" y="2" type="curve" smooth="yes"/>
      <point x="165" y="34"/>
      <point x="159" y="72"/>
    </contour>
  </outline>
</glyph>
